<svg xmlns="http://www.w3.org/2000/svg" xmlns:xlink="http://www.w3.org/1999/xlink" width="500" zoomAndPan="magnify" viewBox="0 0 375 374.999991" height="500" preserveAspectRatio="xMidYMid meet" version="1.0"><defs><clipPath id="8d55158817"><path d="M 15.246094 94.648438 L 169.566406 94.648438 L 169.566406 280.648438 L 15.246094 280.648438 Z M 15.246094 94.648438 " clip-rule="nonzero"/></clipPath><clipPath id="628e650a82"><path d="M 107.226562 94.648438 L 261.78125 94.648438 L 261.78125 280.648438 L 107.226562 280.648438 Z M 107.226562 94.648438 " clip-rule="nonzero"/></clipPath><clipPath id="806df7e7d5"><path d="M 194 94.648438 L 347 94.648438 L 347 252 L 194 252 Z M 194 94.648438 " clip-rule="nonzero"/></clipPath><clipPath id="343fb1b742"><path d="M 172.390625 239.429688 L 242 239.429688 L 242 280.648438 L 172.390625 280.648438 Z M 172.390625 239.429688 " clip-rule="nonzero"/></clipPath><clipPath id="56abab8f51"><path d="M 341.53125 127.609375 L 360.058594 127.609375 L 360.058594 150.914062 L 341.53125 150.914062 Z M 341.53125 127.609375 " clip-rule="nonzero"/></clipPath></defs><g clip-path="url(#8d55158817)"><path fill="#cbeaf4" d="M 168.949219 132.324219 C 168.625 131.066406 168.738281 130.917969 168 129.417969 C 167.039062 127.480469 165.15625 126.738281 165.953125 129.953125 C 166.472656 132.058594 165.824219 134.335938 165.316406 135.660156 C 165 136.351562 164.667969 136.75 164.308594 136.546875 C 164.625 134.390625 165 131.90625 163.574219 131.871094 C 162.75 131.847656 162.84375 133.882812 161.316406 136.21875 C 158.976562 139.792969 160.6875 140.15625 159.355469 143.164062 C 159.023438 143.734375 158.375 144.578125 157.894531 145.21875 C 155.625 148.25 149.863281 151.0625 144.125 155.65625 C 142.070312 149.433594 141.164062 142.21875 138.578125 137.335938 C 138.523438 136.984375 138.453125 136.671875 138.351562 136.40625 C 137.277344 133.554688 136.230469 131.492188 134.363281 129.332031 C 136.128906 124.605469 138.210938 124.269531 138.210938 124.269531 L 138.613281 124.140625 C 141.589844 124.8125 145.179688 126.601562 144.953125 123.910156 C 144.761719 121.683594 145.839844 122.34375 146.011719 121.871094 C 146.171875 121.433594 145.835938 121.199219 145.636719 121.101562 C 145.894531 121.203125 146.464844 121.382812 146.597656 121.09375 C 146.722656 120.808594 146.394531 120.429688 146.597656 119.96875 C 146.808594 119.488281 147.222656 119.160156 148.0625 119.515625 C 149.019531 119.921875 149.523438 119.242188 149.277344 117.6875 C 148.929688 115.484375 148.367188 115.332031 149.222656 112.066406 C 149.605469 110.597656 150.859375 110.273438 151.542969 107.609375 C 151.742188 106.84375 151.953125 105.898438 151.699219 104.820312 C 152.15625 104.195312 152.554688 103.289062 152.675781 101.988281 C 152.851562 100.109375 144.230469 93.820312 137.714844 94.742188 C 131.199219 95.664062 127.457031 95.109375 126.648438 98.503906 C 126.492188 99.164062 126.324219 99.835938 126.15625 100.511719 C 124.867188 102.726562 124.339844 105.707031 124.992188 109.554688 C 125.042969 110.292969 125.183594 110.933594 125.398438 111.480469 C 125.90625 113.492188 125.601562 115.296875 125.421875 116.683594 C 124.195312 118.082031 121.953125 118.332031 119.925781 118.210938 C 115.335938 116.296875 111.554688 115.882812 108.800781 115.519531 C 106.96875 114.8125 105.328125 114.769531 103.945312 114.621094 C 101.960938 114.410156 100.019531 113.921875 98.171875 113.175781 C 93.667969 111.355469 85.1875 108.539062 79.667969 110.472656 C 79.65625 110.480469 79.644531 110.484375 79.644531 110.484375 C 72.496094 115.335938 68.488281 122.316406 60.191406 127.066406 C 60.140625 127.097656 60.089844 127.136719 60.039062 127.179688 C 58.941406 127.832031 57.753906 128.421875 56.636719 128.824219 C 53.539062 129.945312 47.542969 130.464844 44.394531 130.917969 C 43.597656 131.035156 43.398438 131.777344 44.3125 131.863281 C 45.488281 131.972656 48.226562 131.660156 49.5 131.625 C 49.722656 131.621094 49.828125 131.769531 49.613281 131.832031 C 47.738281 132.355469 44.273438 133.128906 42.601562 133.792969 C 42.195312 133.957031 42.335938 134.503906 42.703125 134.523438 C 43.566406 134.570312 47.515625 133.816406 49.066406 133.753906 C 49.285156 133.746094 49.347656 134.046875 49.148438 134.128906 C 47.699219 134.714844 42.65625 136.226562 41.835938 136.589844 C 41.382812 136.792969 41.628906 137.351562 42 137.355469 C 43.503906 137.367188 47.746094 136.324219 49.289062 136.097656 C 49.601562 136.054688 49.828125 136.207031 49.609375 136.429688 C 48.484375 137.554688 46.777344 137.820312 45.71875 139.421875 C 45.578125 139.628906 45.761719 139.894531 45.996094 139.804688 C 47.851562 139.105469 51.367188 137.566406 53.472656 137.171875 C 53.789062 137.113281 54.039062 137.425781 53.921875 137.722656 C 53.445312 138.953125 51.5625 141.367188 53.074219 141.472656 C 53.488281 141.5 53.886719 141.300781 54.15625 140.984375 C 55.378906 139.527344 56.585938 138.6875 57.492188 137.421875 C 58.222656 136.410156 58.675781 135.226562 59.191406 133.941406 C 59.695312 132.679688 62.757812 131.332031 63.554688 130.875 C 69.886719 128.3125 78.070312 125.140625 83.027344 121.632812 C 83.484375 122.085938 84 122.480469 84.585938 122.796875 C 88.074219 124.683594 92.832031 127.648438 97.339844 129.863281 C 95.796875 133.78125 93.003906 140.890625 92.140625 143.210938 C 89.621094 149.996094 83.273438 157.097656 80.949219 158.660156 C 80.742188 158.761719 80.542969 158.863281 80.339844 158.964844 C 80.3125 158.972656 80.28125 158.976562 80.257812 158.976562 C 80.199219 158.976562 80.144531 158.980469 80.089844 158.980469 C 80.105469 159.011719 80.121094 159.039062 80.136719 159.070312 C 64.171875 167.367188 66.269531 179.410156 66.265625 186.753906 C 66.265625 187.101562 66.273438 187.433594 66.292969 187.753906 C 62.082031 198.667969 64.089844 205.722656 61.511719 218.1875 C 58.089844 220.65625 51.15625 221.105469 42.40625 231.472656 C 39 235.511719 34.324219 243.480469 25.453125 247.730469 C 25.410156 247.816406 25.367188 247.902344 25.324219 247.984375 C 24.464844 247.765625 23.539062 247.859375 22.726562 248.269531 C 21.261719 249.007812 19.507812 250.007812 15.851562 253.085938 C 13.835938 254.785156 16.949219 258.71875 24.03125 266.320312 C 28.726562 271.359375 32.726562 277.234375 33.824219 278.757812 C 36.554688 282.542969 40.53125 280.46875 38.078125 274.101562 C 35.765625 268.101562 32.5625 263.40625 33.925781 259.476562 C 34.21875 259.097656 34.160156 258.253906 33.914062 257.285156 C 36.316406 250.328125 45.339844 245.179688 61.023438 233.554688 C 64.046875 231.3125 68.289062 230.414062 71.242188 228.074219 C 72.203125 227.3125 73.265625 226.25 73.875 224.910156 C 74.292969 224.566406 74.722656 224.210938 75.160156 223.832031 C 81.488281 218.386719 88.089844 205.597656 92.214844 196.613281 C 101.910156 201.316406 108.300781 201.273438 116.003906 201.660156 C 112.621094 202.886719 108.765625 204.773438 104.488281 208.007812 C 100.941406 210.691406 95.902344 215.894531 88.675781 218.777344 C 87.527344 218.429688 86.0625 218.054688 84.109375 217.640625 C 81.535156 217.097656 80.347656 221.972656 78.722656 232.238281 C 77.644531 239.042969 75.476562 245.816406 74.953125 247.617188 C 73.65625 252.101562 77.730469 253.960938 81.238281 248.105469 C 84.542969 242.589844 86.269531 237.171875 90.203125 235.832031 C 91.484375 235.820312 93.855469 231.792969 94.039062 230.078125 C 94.144531 229.085938 94.261719 228.324219 94.335938 227.542969 C 99.589844 223.90625 108.632812 221.226562 122.253906 215.21875 C 125.699219 213.695312 129.214844 212.375 132.421875 210.402344 C 135.453125 208.542969 136.671875 206.15625 137.710938 204.246094 C 138.425781 203.707031 138.980469 202.855469 139.304688 201.886719 C 139.75 200.546875 139.753906 198.988281 139.136719 197.730469 C 138.035156 195.492188 136.175781 192.644531 133.074219 189.167969 C 127.363281 182.777344 113.917969 176.246094 104.835938 172.320312 C 112.960938 159.742188 120.667969 158.59375 126.183594 152.894531 C 128.867188 156.816406 137.464844 168.851562 142.65625 169.855469 C 142.84375 169.792969 143.039062 169.722656 143.25 169.628906 C 148.617188 167.300781 155.230469 157.1875 160.195312 149.886719 C 160.941406 148.792969 162.035156 147.605469 162.8125 146.824219 C 163.066406 146.648438 163.3125 146.472656 163.558594 146.300781 C 167.332031 143.234375 168.011719 143.125 168.953125 141.074219 C 169.199219 140.660156 169.167969 140.230469 169.445312 139.535156 C 169.445312 139.535156 169.703125 135.28125 168.949219 132.324219 " fill-opacity="1" fill-rule="nonzero"/></g><g clip-path="url(#628e650a82)"><path fill="#80d1f1" d="M 261.15625 132.324219 C 260.835938 131.066406 260.945312 130.917969 260.207031 129.417969 C 259.246094 127.480469 257.363281 126.738281 258.160156 129.953125 C 258.683594 132.058594 258.035156 134.335938 257.523438 135.660156 C 257.207031 136.351562 256.878906 136.75 256.519531 136.546875 C 256.835938 134.390625 257.207031 131.90625 255.78125 131.871094 C 254.957031 131.847656 255.050781 133.882812 253.523438 136.21875 C 251.183594 139.792969 252.894531 140.15625 251.566406 143.164062 C 251.234375 143.734375 250.582031 144.578125 250.101562 145.21875 C 247.835938 148.25 242.074219 151.0625 236.332031 155.65625 C 234.28125 149.433594 233.371094 142.21875 230.785156 137.335938 C 230.734375 136.984375 230.660156 136.671875 230.558594 136.40625 C 229.488281 133.554688 228.4375 131.492188 226.570312 129.332031 C 228.335938 124.605469 230.421875 124.269531 230.421875 124.269531 L 230.820312 124.140625 C 233.800781 124.8125 237.390625 126.601562 237.160156 123.910156 C 236.972656 121.683594 238.046875 122.34375 238.21875 121.871094 C 238.378906 121.433594 238.042969 121.199219 237.84375 121.101562 C 238.105469 121.203125 238.671875 121.382812 238.804688 121.09375 C 238.933594 120.808594 238.601562 120.429688 238.804688 119.96875 C 239.015625 119.488281 239.429688 119.160156 240.269531 119.515625 C 241.226562 119.921875 241.730469 119.242188 241.484375 117.6875 C 241.136719 115.484375 240.574219 115.332031 241.429688 112.066406 C 241.816406 110.597656 243.070312 110.273438 243.753906 107.609375 C 243.949219 106.84375 244.164062 105.898438 243.90625 104.820312 C 244.367188 104.195312 244.765625 103.289062 244.886719 101.988281 C 245.058594 100.109375 236.4375 93.820312 229.921875 94.742188 C 223.40625 95.664062 219.664062 95.109375 218.859375 98.503906 C 218.699219 99.164062 218.53125 99.835938 218.363281 100.511719 C 217.074219 102.726562 216.550781 105.707031 217.199219 109.554688 C 217.253906 110.292969 217.390625 110.933594 217.605469 111.480469 C 218.113281 113.492188 217.808594 115.296875 217.628906 116.683594 C 216.402344 118.082031 214.160156 118.332031 212.132812 118.210938 C 207.542969 116.296875 203.765625 115.882812 201.007812 115.519531 C 199.175781 114.8125 197.535156 114.769531 196.152344 114.621094 C 194.171875 114.410156 192.230469 113.921875 190.378906 113.175781 C 185.875 111.355469 177.394531 108.539062 171.878906 110.472656 C 171.863281 110.480469 171.851562 110.484375 171.851562 110.484375 C 164.703125 115.335938 160.695312 122.316406 152.402344 127.066406 C 152.351562 127.097656 152.296875 127.136719 152.246094 127.179688 C 151.148438 127.832031 149.960938 128.421875 148.847656 128.824219 C 145.746094 129.945312 139.753906 130.464844 136.605469 130.917969 C 135.804688 131.035156 135.605469 131.777344 136.519531 131.863281 C 137.695312 131.972656 140.433594 131.660156 141.707031 131.625 C 141.929688 131.621094 142.035156 131.769531 141.820312 131.832031 C 139.945312 132.355469 136.484375 133.128906 134.8125 133.792969 C 134.402344 133.957031 134.542969 134.503906 134.914062 134.523438 C 135.777344 134.570312 139.722656 133.816406 141.277344 133.753906 C 141.492188 133.746094 141.554688 134.046875 141.355469 134.128906 C 139.90625 134.714844 134.867188 136.226562 134.042969 136.589844 C 133.59375 136.792969 133.835938 137.351562 134.207031 137.355469 C 135.714844 137.367188 139.953125 136.324219 141.5 136.097656 C 141.808594 136.054688 142.035156 136.207031 141.816406 136.429688 C 140.695312 137.554688 138.984375 137.820312 137.925781 139.421875 C 137.789062 139.628906 137.972656 139.894531 138.207031 139.804688 C 140.0625 139.105469 143.574219 137.566406 145.679688 137.171875 C 145.996094 137.113281 146.25 137.425781 146.132812 137.722656 C 145.652344 138.953125 143.769531 141.367188 145.28125 141.472656 C 145.695312 141.5 146.097656 141.300781 146.363281 140.984375 C 147.585938 139.527344 148.792969 138.6875 149.703125 137.421875 C 150.429688 136.410156 150.882812 135.226562 151.398438 133.941406 C 151.902344 132.679688 154.96875 131.332031 155.765625 130.875 C 162.097656 128.3125 170.277344 125.140625 175.238281 121.632812 C 175.691406 122.085938 176.207031 122.480469 176.792969 122.796875 C 180.285156 124.683594 185.039062 127.648438 189.546875 129.863281 C 188.003906 133.78125 185.210938 140.890625 184.351562 143.210938 C 181.828125 149.996094 175.480469 157.097656 173.15625 158.660156 C 172.949219 158.761719 172.75 158.863281 172.550781 158.964844 C 172.519531 158.972656 172.492188 158.976562 172.464844 158.976562 C 172.410156 158.976562 172.355469 158.980469 172.296875 158.980469 C 172.3125 159.011719 172.328125 159.039062 172.34375 159.070312 C 156.378906 167.367188 158.476562 179.410156 158.472656 186.753906 C 158.472656 187.101562 158.484375 187.433594 158.503906 187.753906 C 154.292969 198.667969 156.300781 205.722656 153.71875 218.1875 C 150.296875 220.65625 143.363281 221.105469 134.617188 231.472656 C 131.207031 235.511719 126.535156 243.480469 117.660156 247.730469 C 117.617188 247.816406 117.574219 247.902344 117.535156 247.984375 C 116.671875 247.765625 115.746094 247.859375 114.933594 248.269531 C 113.46875 249.007812 111.714844 250.007812 108.058594 253.085938 C 106.042969 254.785156 109.15625 258.71875 116.238281 266.320312 C 120.9375 271.359375 124.933594 277.234375 126.035156 278.757812 C 128.765625 282.542969 132.738281 280.46875 130.285156 274.101562 C 127.976562 268.101562 124.769531 263.40625 126.136719 259.476562 C 126.425781 259.097656 126.371094 258.253906 126.121094 257.285156 C 128.527344 250.328125 137.550781 245.179688 153.230469 233.554688 C 156.257812 231.3125 160.496094 230.414062 163.449219 228.074219 C 164.414062 227.3125 165.472656 226.25 166.082031 224.910156 C 166.503906 224.566406 166.929688 224.210938 167.367188 223.832031 C 173.699219 218.386719 180.300781 205.597656 184.425781 196.613281 C 194.117188 201.316406 200.507812 201.273438 208.210938 201.660156 C 204.832031 202.886719 200.972656 204.773438 196.695312 208.007812 C 193.148438 210.691406 188.109375 215.894531 180.882812 218.777344 C 179.734375 218.429688 178.273438 218.054688 176.320312 217.640625 C 173.742188 217.097656 172.558594 221.972656 170.929688 232.238281 C 169.855469 239.042969 167.6875 245.816406 167.164062 247.617188 C 165.863281 252.101562 169.941406 253.960938 173.449219 248.105469 C 176.75 242.589844 178.476562 237.171875 182.410156 235.832031 C 183.691406 235.820312 186.0625 231.792969 186.246094 230.078125 C 186.351562 229.085938 186.46875 228.324219 186.546875 227.542969 C 191.796875 223.90625 200.839844 221.226562 214.460938 215.21875 C 217.90625 213.695312 221.421875 212.375 224.632812 210.402344 C 227.660156 208.542969 228.878906 206.15625 229.917969 204.246094 C 230.632812 203.707031 231.1875 202.855469 231.511719 201.886719 C 231.957031 200.546875 231.960938 198.988281 231.34375 197.730469 C 230.242188 195.492188 228.386719 192.644531 225.28125 189.167969 C 219.570312 182.777344 206.125 176.246094 197.046875 172.320312 C 205.167969 159.742188 212.875 158.59375 218.390625 152.894531 C 221.074219 156.816406 229.671875 168.851562 234.863281 169.855469 C 235.050781 169.792969 235.246094 169.722656 235.457031 169.628906 C 240.824219 167.300781 247.441406 157.1875 252.402344 149.886719 C 253.148438 148.792969 254.242188 147.605469 255.023438 146.824219 C 255.273438 146.648438 255.523438 146.472656 255.765625 146.300781 C 259.542969 143.234375 260.21875 143.125 261.160156 141.074219 C 261.410156 140.660156 261.375 140.230469 261.652344 139.535156 C 261.652344 139.535156 261.914062 135.28125 261.15625 132.324219 " fill-opacity="1" fill-rule="nonzero"/></g><g clip-path="url(#806df7e7d5)"><path fill="#00609e" d="M 334.695312 155.65625 C 334.574219 155.292969 334.457031 154.921875 334.34375 154.546875 L 319.6875 153.550781 L 334.050781 153.550781 C 333.984375 153.324219 333.917969 153.09375 333.855469 152.863281 L 301.859375 150.6875 L 333.28125 150.6875 C 332.058594 145.859375 331.0625 140.957031 329.148438 137.335938 C 329.09375 136.984375 329.023438 136.671875 328.921875 136.40625 C 328.625 135.613281 328.328125 134.886719 328.015625 134.199219 L 315.785156 133.367188 L 317.640625 132.421875 L 327.117188 132.421875 C 326.511719 131.351562 325.8125 130.351562 324.933594 129.332031 C 326.699219 124.605469 328.78125 124.269531 328.78125 124.269531 L 329.183594 124.140625 C 332.160156 124.8125 335.75 126.601562 335.523438 123.910156 C 335.332031 121.683594 336.410156 122.34375 336.582031 121.871094 C 336.742188 121.433594 336.402344 121.199219 336.207031 121.101562 C 336.464844 121.203125 337.035156 121.382812 337.164062 121.09375 C 337.292969 120.808594 336.960938 120.429688 337.164062 119.96875 C 337.378906 119.488281 337.792969 119.160156 338.632812 119.515625 C 339.589844 119.921875 340.09375 119.242188 339.84375 117.6875 C 339.496094 115.488281 338.9375 115.332031 339.792969 112.066406 C 340.175781 110.597656 341.429688 110.273438 342.113281 107.609375 C 342.242188 107.105469 342.378906 106.519531 342.382812 105.875 L 327.09375 104.835938 L 342.269531 104.835938 C 342.269531 104.832031 342.269531 104.828125 342.269531 104.824219 C 342.726562 104.195312 343.128906 103.289062 343.246094 101.988281 C 343.40625 100.246094 336.019531 94.71875 329.75 94.652344 L 329.75 94.648438 L 329.683594 94.652344 C 329.503906 94.648438 329.320312 94.652344 329.140625 94.664062 L 231.578125 96.664062 L 316.996094 99.414062 C 316.988281 99.453125 316.980469 99.488281 316.96875 99.527344 L 291.847656 100.042969 L 316.542969 100.839844 C 316.398438 101.121094 316.257812 101.410156 316.136719 101.714844 L 300.894531 102.027344 L 315.847656 102.511719 C 315.238281 104.425781 315.089844 106.761719 315.5625 109.554688 C 315.613281 110.292969 315.753906 110.933594 315.96875 111.480469 C 316.476562 113.492188 316.171875 115.296875 315.992188 116.683594 C 314.761719 118.082031 312.523438 118.332031 310.496094 118.210938 C 305.90625 116.296875 302.125 115.882812 299.371094 115.519531 C 297.535156 114.8125 295.898438 114.769531 294.515625 114.621094 C 292.53125 114.410156 290.589844 113.921875 288.742188 113.175781 C 284.238281 111.355469 275.757812 108.539062 270.238281 110.472656 C 270.226562 110.480469 270.214844 110.484375 270.214844 110.484375 C 264.175781 114.582031 260.378906 120.195312 254.347656 124.707031 L 221.980469 124.707031 L 248.730469 128.183594 C 248.21875 128.425781 247.707031 128.644531 247.207031 128.824219 C 244.109375 129.945312 238.113281 130.464844 234.964844 130.917969 C 234.167969 131.035156 233.96875 131.777344 234.882812 131.863281 C 236.058594 131.972656 238.792969 131.660156 240.066406 131.625 C 240.292969 131.621094 240.398438 131.769531 240.183594 131.832031 C 238.308594 132.355469 234.84375 133.128906 233.171875 133.792969 C 232.761719 133.957031 232.902344 134.503906 233.273438 134.523438 C 234.136719 134.570312 238.085938 133.816406 239.636719 133.753906 C 239.855469 133.746094 239.917969 134.046875 239.71875 134.128906 C 238.269531 134.714844 233.226562 136.226562 232.40625 136.589844 C 231.953125 136.792969 232.199219 137.351562 232.570312 137.355469 C 234.074219 137.367188 238.316406 136.324219 239.859375 136.097656 C 240.171875 136.054688 240.398438 136.207031 240.175781 136.429688 C 239.054688 137.554688 237.347656 137.820312 236.285156 139.421875 C 236.148438 139.628906 236.332031 139.894531 236.566406 139.804688 C 238.421875 139.105469 241.9375 137.566406 244.042969 137.171875 C 244.355469 137.113281 244.609375 137.425781 244.492188 137.722656 C 244.015625 138.953125 242.128906 141.367188 243.640625 141.472656 C 244.058594 141.5 244.457031 141.300781 244.726562 140.984375 C 245.949219 139.527344 247.15625 138.6875 248.0625 137.421875 C 248.792969 136.410156 249.246094 135.226562 249.757812 133.941406 C 250.265625 132.679688 253.332031 131.332031 254.125 130.875 C 260.457031 128.3125 268.640625 125.140625 273.597656 121.632812 C 274.054688 122.085938 274.570312 122.480469 275.15625 122.796875 C 278.644531 124.683594 283.402344 127.648438 287.910156 129.863281 C 287.816406 130.105469 287.714844 130.359375 287.613281 130.621094 L 264.007812 130.621094 L 286.464844 133.539062 C 285.011719 137.238281 283.34375 141.507812 282.710938 143.210938 C 281.246094 147.152344 278.488281 151.203125 275.976562 154.210938 L 249.175781 154.761719 L 274.480469 155.917969 C 274.464844 155.933594 274.449219 155.949219 274.433594 155.96875 L 236.898438 156.738281 L 271.953125 158.339844 C 271.792969 158.464844 271.648438 158.570312 271.515625 158.660156 C 271.3125 158.761719 271.113281 158.863281 270.910156 158.964844 C 270.882812 158.972656 270.851562 158.976562 270.828125 158.976562 C 270.769531 158.976562 270.714844 158.980469 270.660156 158.980469 C 270.675781 159.011719 270.691406 159.039062 270.707031 159.070312 C 267.632812 160.667969 265.230469 162.40625 263.351562 164.21875 L 194.863281 164.21875 L 259.8125 168.636719 C 255.9375 175.109375 256.835938 181.9375 256.832031 186.753906 C 256.832031 187.101562 256.84375 187.433594 256.863281 187.753906 C 254.742188 193.246094 254.199219 197.761719 253.855469 202.484375 L 235.359375 202.988281 L 253.761719 203.828125 C 253.695312 204.78125 253.632812 205.742188 253.566406 206.730469 L 233.722656 207.257812 L 253.457031 208.15625 C 253.21875 211.179688 252.855469 214.4375 252.082031 218.1875 C 248.660156 220.65625 241.726562 221.105469 232.976562 231.472656 C 231.335938 233.417969 229.398438 236.273438 226.84375 239.1875 L 243.859375 239.1875 C 246.226562 237.484375 248.800781 235.621094 251.59375 233.554688 C 254.617188 231.3125 258.859375 230.414062 261.8125 228.074219 C 262.773438 227.3125 263.835938 226.25 264.445312 224.910156 C 264.863281 224.566406 265.292969 224.210938 265.730469 223.832031 C 272.058594 218.386719 278.660156 205.597656 282.785156 196.613281 C 292.480469 201.316406 298.871094 201.273438 306.574219 201.660156 C 304.046875 202.578125 301.25 203.863281 298.214844 205.804688 L 280.828125 205.804688 L 296.613281 206.878906 C 296.101562 207.234375 295.585938 207.609375 295.058594 208.007812 C 291.511719 210.691406 286.472656 215.894531 279.246094 218.777344 C 278.097656 218.429688 276.632812 218.054688 274.679688 217.640625 C 272.105469 217.097656 270.917969 221.972656 269.292969 232.238281 C 268.214844 239.042969 266.046875 245.816406 265.523438 247.617188 C 264.222656 252.101562 268.304688 253.960938 271.808594 248.105469 C 275.113281 242.589844 277.539062 233.199219 281.476562 231.859375 C 283.34375 230.394531 284.332031 228.785156 284.90625 227.542969 C 288.277344 225.210938 293.207031 223.269531 299.90625 220.59375 L 278.628906 219.144531 L 303.503906 219.144531 C 303.875 218.996094 304.246094 218.84375 304.625 218.691406 L 289.957031 217.691406 L 307.042969 217.691406 C 307.625 217.449219 308.21875 217.199219 308.824219 216.945312 L 297.472656 216.171875 L 310.628906 216.171875 C 311.347656 215.863281 312.078125 215.546875 312.824219 215.21875 C 316.269531 213.695312 319.785156 212.375 322.992188 210.402344 C 326.023438 208.542969 327.242188 206.15625 328.277344 204.246094 C 328.996094 203.707031 329.550781 202.855469 329.875 201.886719 C 330.316406 200.546875 330.324219 198.988281 329.703125 197.730469 C 328.601562 195.492188 326.746094 192.644531 323.640625 189.167969 C 322.09375 187.4375 319.976562 185.691406 317.527344 183.992188 L 264.007812 180.355469 L 311.726562 180.355469 C 306.261719 177.214844 300.222656 174.402344 295.40625 172.320312 C 303.53125 159.742188 311.234375 158.59375 316.753906 152.894531 C 319.433594 156.816406 328.035156 168.851562 333.226562 169.855469 C 333.414062 169.792969 333.609375 169.722656 333.816406 169.628906 C 337.914062 167.851562 342.738281 161.542969 347 155.40625 L 335.976562 154.660156 C 335.550781 154.980469 335.125 155.3125 334.695312 155.65625 " fill-opacity="1" fill-rule="nonzero"/></g><g clip-path="url(#343fb1b742)"><path fill="#00609e" d="M 220.183594 245.285156 L 184.847656 246.222656 L 210.882812 247.414062 L 172.570312 248.199219 L 209.234375 249.875 L 210.984375 249.597656 C 209.859375 250.335938 208.425781 251.398438 206.421875 253.085938 C 204.40625 254.785156 207.515625 258.71875 214.601562 266.320312 C 219.296875 271.359375 223.296875 277.234375 224.394531 278.757812 C 227.125 282.542969 231.101562 280.46875 228.648438 274.101562 C 226.335938 268.101562 223.128906 263.40625 224.496094 259.476562 C 224.785156 259.097656 224.730469 258.253906 224.480469 257.285156 C 226.203125 252.304688 231.316406 248.253906 239.832031 242.089844 L 233.003906 241.484375 L 240.671875 241.484375 C 241.105469 241.171875 241.546875 240.851562 242 240.527344 L 226.585938 239.480469 C 224.792969 241.496094 222.691406 243.523438 220.183594 245.285156 " fill-opacity="1" fill-rule="nonzero"/></g><path fill="#00609e" d="M 337.480469 153.550781 L 343.976562 153.550781 L 338.042969 153.148438 C 337.855469 153.28125 337.667969 153.414062 337.480469 153.550781 " fill-opacity="1" fill-rule="nonzero"/><g clip-path="url(#56abab8f51)"><path fill="#00609e" d="M 359.515625 132.324219 C 359.195312 131.066406 359.308594 130.917969 358.570312 129.417969 C 357.609375 127.480469 355.722656 126.738281 356.523438 129.953125 C 357.042969 132.058594 356.394531 134.335938 355.886719 135.660156 C 355.570312 136.351562 355.238281 136.75 354.878906 136.546875 C 355.195312 134.390625 355.570312 131.90625 354.144531 131.871094 C 353.320312 131.847656 353.414062 133.882812 351.886719 136.21875 C 349.546875 139.792969 351.257812 140.15625 349.925781 143.164062 C 349.59375 143.734375 348.945312 144.578125 348.464844 145.21875 C 347.144531 146.984375 344.636719 148.675781 341.640625 150.6875 L 350.222656 150.6875 C 350.40625 150.417969 350.585938 150.152344 350.765625 149.886719 C 351.507812 148.792969 352.605469 147.605469 353.382812 146.824219 C 353.636719 146.648438 353.882812 146.472656 354.128906 146.300781 C 357.902344 143.234375 358.582031 143.125 359.519531 141.074219 C 359.769531 140.660156 359.738281 140.230469 360.015625 139.535156 C 360.015625 139.535156 360.273438 135.28125 359.515625 132.324219 " fill-opacity="1" fill-rule="nonzero"/></g></svg>