<svg xmlns="http://www.w3.org/2000/svg" xmlns:xlink="http://www.w3.org/1999/xlink" width="500" zoomAndPan="magnify" viewBox="0 0 375 374.999991" height="500" preserveAspectRatio="xMidYMid meet" version="1.0"><defs><clipPath id="cf7d6563f3"><path d="M 19.476562 39 L 355.476562 39 L 355.476562 337.5 L 19.476562 337.5 Z M 19.476562 39 " clip-rule="nonzero"/></clipPath><clipPath id="a30b62af75"><path d="M 20 129 L 355.476562 129 L 355.476562 256 L 20 256 Z M 20 129 " clip-rule="nonzero"/></clipPath><clipPath id="50fe8d6fa4"><path d="M 49 48 L 251 48 L 251 337.5 L 49 337.5 Z M 49 48 " clip-rule="nonzero"/></clipPath><clipPath id="5ddf85fe23"><path d="M 32 37.5 L 344 37.5 L 344 222 L 32 222 Z M 32 37.5 " clip-rule="nonzero"/></clipPath></defs><g clip-path="url(#cf7d6563f3)"><path fill="#eee3c5" d="M 186.574219 42.183594 L 185.558594 41.542969 L 186.851562 41.625 L 187.519531 39.84375 L 187.867188 41.398438 L 188.996094 41.597656 L 188.546875 41.773438 L 188.839844 43.839844 L 187.640625 42.492188 L 186.359375 44.167969 Z M 354.832031 228.640625 L 353.714844 228.640625 C 353.714844 228.640625 353.207031 236.582031 353.066406 238.691406 L 349.820312 238.707031 L 349.820312 234.699219 L 348.589844 234.207031 C 348.589844 234.207031 348.238281 211.886719 348.273438 212.097656 C 348.308594 212.308594 349.046875 210.9375 349.046875 210.9375 L 348.269531 210.9375 L 348.269531 208.859375 L 346.125 208.332031 L 346.125 201.605469 L 346.757812 200.445312 L 343.625 200.445312 L 344.1875 201.394531 L 344.257812 207.910156 L 343.238281 208.085938 L 343.238281 208.71875 L 342.746094 208.683594 L 342.746094 204.421875 C 342.746094 204.421875 343.238281 203.71875 343.132812 203.71875 C 343.027344 203.71875 340.351562 203.648438 340.351562 203.648438 L 340.703125 204.457031 L 340.984375 206.921875 L 340.351562 206.746094 L 340.351562 205.792969 L 340.027344 205.910156 L 339.921875 196.289062 C 339.921875 196.289062 341.476562 194.222656 341.375 194.222656 C 341.269531 194.222656 337.78125 194.222656 337.78125 194.222656 L 337.097656 193.707031 L 336.429688 193.339844 L 336.441406 191.652344 L 337.699219 188.511719 C 337.683594 188.34375 337.660156 188.066406 337.636719 187.804688 C 336.585938 187.894531 334.667969 187.925781 331.164062 187.972656 L 331.164062 188.445312 L 332.558594 191.863281 L 332.558594 193.796875 L 332.414062 193.976562 L 330.875 194.246094 L 329.546875 194.316406 L 327.890625 196.21875 L 329.472656 197.699219 L 329.582031 208.046875 L 328.875 207.976562 L 328.277344 207.027344 L 329.160156 207.132812 L 329.191406 206.148438 L 328.523438 206.183594 L 328.417969 201.289062 L 328.914062 200.511719 C 328.914062 200.511719 325.8125 200.511719 325.882812 200.511719 C 325.953125 200.511719 326.414062 201.253906 326.414062 201.253906 L 326.800781 206.109375 L 326.023438 206.109375 L 326.023438 206.992188 L 326.800781 206.957031 L 326.730469 207.871094 L 325.390625 207.871094 L 325.390625 204.597656 L 325.742188 203.683594 L 322.960938 203.824219 L 323.3125 204.738281 L 323.453125 209.492188 L 322.960938 209.070312 L 322.960938 210.019531 L 323.488281 210.089844 L 323.523438 211.039062 L 321.691406 211.953125 L 321.691406 213.855469 L 320.953125 213.855469 L 321.9375 214.945312 L 321.914062 234.203125 L 321.398438 234.695312 L 321.183594 239.789062 L 319.261719 241.207031 L 316.199219 241.320312 L 313.832031 227.117188 L 312.816406 227.117188 L 312.816406 231.886719 L 309.976562 231.683594 L 309.472656 224.679688 C 310.183594 224.277344 310.078125 222.550781 310.078125 222.550781 L 306.933594 222.550781 L 306.976562 220.042969 L 307.972656 219.636719 L 308.085938 217.171875 L 302.164062 217.171875 L 302.164062 219.808594 L 303.382812 220.113281 L 303.28125 222.449219 L 300.539062 222.550781 L 300.539062 225.492188 L 301.351562 225.492188 L 301.148438 227.625 L 298.589844 227.421875 L 298.589844 229.859375 L 296.785156 231.078125 L 296.785156 235.746094 L 295.363281 236.863281 L 295.363281 244.375 L 293.941406 244.375 L 293.941406 249.3125 C 284.550781 249.335938 266.21875 249.382812 252.460938 249.421875 L 252.460938 241.421875 L 252.90625 241.421875 L 252.90625 239.175781 L 249.570312 239.175781 L 249.570312 236.316406 L 248.980469 236.316406 L 248.980469 232.78125 L 247.019531 232.390625 L 247.019531 236.121094 L 245.742188 236.316406 L 245.253906 239.175781 L 243.585938 239.175781 L 242.996094 242.382812 L 241.816406 242.382812 L 241.816406 249.652344 L 242.488281 249.652344 L 242.488281 249.703125 C 241.292969 249.816406 240.210938 249.960938 239.242188 250.125 L 234.503906 250.136719 C 233.816406 250.136719 233.816406 250.136719 233.519531 243.828125 C 233.351562 240.332031 233.136719 235.511719 232.90625 230.210938 C 232.445312 219.613281 231.917969 207.101562 231.601562 199.421875 L 231.601562 197.234375 L 231.507812 197.234375 L 231.480469 196.589844 C 231.382812 194.207031 231.335938 193.136719 231.320312 192.640625 L 231.976562 192.335938 L 231.339844 184.785156 L 229.609375 184.785156 L 227.867188 192.664062 L 225.976562 192.507812 C 225.933594 192.066406 225.910156 191.828125 225.910156 191.828125 L 225.910156 186.941406 L 224.503906 186.828125 L 224.503906 186.105469 L 222.28125 185.496094 L 218.921875 181.324219 L 218.515625 177.355469 L 217.601562 177.355469 L 217.601562 173.589844 L 216.480469 173.589844 L 216.480469 171.65625 L 218.210938 171.65625 L 218.210938 170.636719 L 216.480469 170.636719 L 216.480469 168.601562 L 215.566406 168.601562 L 215.566406 170.636719 L 214.039062 170.636719 L 214.039062 171.65625 L 215.363281 171.65625 L 215.363281 173.28125 L 214.546875 173.28125 L 214.546875 177.355469 L 213.226562 177.355469 L 213.226562 181.222656 L 210.191406 185.671875 L 209.230469 185.59375 L 209.230469 138.574219 L 204.796875 138.574219 L 204.796875 131.757812 C 204.796875 131.757812 203.210938 130.414062 200.371094 129.074219 L 200.730469 128.945312 L 201.480469 111.535156 C 201.480469 111.535156 199.972656 109.757812 196.988281 108.25 L 196.988281 98.589844 C 196.988281 98.589844 194.945312 95.25 190.550781 94.015625 L 192.679688 85.054688 L 189.984375 83.757812 L 191.609375 78.0625 L 191.609375 77.125 L 189.699219 75.851562 L 188.523438 47.746094 L 189.140625 47.671875 C 191.292969 47.410156 193.792969 46.332031 193.75 44.148438 C 193.695312 41.527344 192.753906 40.332031 191.972656 39.789062 C 192.011719 39.984375 192.046875 40.191406 192.078125 40.414062 L 192.121094 40.398438 L 192.191406 42.167969 L 192.148438 42.160156 C 192.039062 43.714844 191.429688 44.867188 190.351562 45.535156 L 190.4375 45.636719 L 189.71875 45.863281 L 189.167969 46.128906 L 189.15625 46.03125 C 188.75 46.132812 188.316406 46.183594 187.851562 46.195312 L 187.71875 46.195312 C 187.160156 46.195312 186.636719 46.125 186.164062 45.984375 L 186.148438 46.128906 L 185.644531 45.820312 L 185.203125 45.683594 L 185.273438 45.59375 L 185.246094 45.578125 C 183.996094 44.820312 183.332031 43.375 183.324219 41.402344 L 183.300781 41.402344 L 183.324219 41.042969 L 183.328125 40.234375 C 182.566406 41.0625 181.875 42.523438 182.550781 44.910156 C 182.976562 46.421875 184.53125 47.101562 185.417969 47.375 L 185.890625 47.519531 L 185.890625 75.953125 L 184.234375 77.023438 L 184.234375 78.464844 L 186.050781 83.511719 L 182.71875 85.230469 C 183.210938 86.765625 184.632812 91.183594 185.378906 93.617188 L 185.402344 93.691406 C 180.535156 94.398438 179.222656 97.839844 179.222656 97.839844 L 178.683594 107.816406 L 178.691406 107.816406 C 176.414062 108.742188 175.367188 109.714844 175.367188 109.714844 C 175.367188 109.714844 175.476562 128.902344 175.367188 128.945312 C 173.054688 129.867188 171.742188 130.6875 171.742188 130.6875 C 171.742188 130.6875 171.207031 138.070312 171.3125 138.570312 L 171.316406 138.570312 L 165.921875 138.570312 L 164.746094 185.8125 L 161.613281 181.222656 L 161.613281 177.355469 L 160.292969 177.355469 L 160.292969 173.28125 L 159.476562 173.28125 L 159.476562 171.652344 L 160.800781 171.652344 L 160.800781 170.636719 L 159.273438 170.636719 L 159.273438 168.601562 L 158.359375 168.601562 L 158.359375 170.636719 L 156.628906 170.636719 L 156.628906 171.652344 L 158.359375 171.652344 L 158.359375 173.585938 L 157.238281 173.585938 L 157.238281 177.355469 L 156.324219 177.355469 L 155.917969 181.324219 L 152.558594 185.496094 L 150.332031 186.105469 L 150.332031 187.4375 L 150.253906 187.445312 L 150.253906 192.671875 L 147.054688 193.03125 L 145.230469 184.785156 L 143.5 184.785156 L 142.867188 193.503906 L 142.785156 193.511719 L 142.785156 249.746094 C 140.628906 249.746094 137.347656 249.636719 133.488281 249.476562 L 133.488281 242.382812 L 132.3125 242.382812 L 131.722656 239.175781 L 130.054688 239.175781 L 129.5625 236.316406 L 128.289062 236.117188 L 128.289062 232.386719 L 126.328125 232.78125 L 126.328125 236.316406 L 125.738281 236.316406 L 125.738281 239.175781 L 122.398438 239.175781 L 122.398438 241.417969 L 122.847656 241.417969 L 122.847656 249.003906 C 112.589844 248.535156 101.667969 248.0625 96.699219 248.300781 C 92.902344 248.488281 85.980469 248.675781 81.492188 248.789062 L 81.492188 244.375 L 80.070312 244.375 L 80.070312 236.863281 L 78.652344 235.746094 L 78.652344 231.078125 L 76.84375 229.859375 L 76.84375 227.421875 L 74.285156 227.625 L 74.082031 225.492188 L 74.894531 225.492188 L 74.894531 222.550781 L 72.15625 222.449219 L 72.054688 220.113281 L 73.269531 219.808594 L 73.269531 217.167969 L 67.351562 217.167969 L 67.460938 219.636719 L 68.460938 220.039062 L 68.5 222.550781 L 65.355469 222.550781 C 65.355469 222.550781 65.253906 224.273438 65.964844 224.679688 L 65.457031 231.6875 L 62.613281 231.890625 L 62.613281 227.117188 L 61.601562 227.117188 L 59.320312 240.800781 L 57.441406 240.722656 L 55.5 240.074219 L 55.273438 234.699219 L 54.753906 234.207031 L 54.730469 214.949219 L 55.71875 213.859375 L 54.976562 213.859375 L 54.976562 211.957031 L 53.148438 211.042969 L 53.183594 210.09375 L 53.710938 210.023438 L 53.710938 209.070312 L 53.21875 209.492188 L 53.359375 204.742188 L 53.710938 203.824219 L 50.929688 203.683594 L 51.28125 204.601562 L 51.28125 207.875 L 49.941406 207.875 L 49.871094 206.960938 L 50.648438 206.992188 L 50.648438 206.113281 L 49.871094 206.113281 L 50.261719 201.257812 C 50.261719 201.257812 50.71875 200.515625 50.789062 200.515625 C 50.859375 200.515625 47.757812 200.515625 47.757812 200.515625 L 48.253906 201.292969 L 48.148438 206.183594 L 47.476562 206.148438 L 47.515625 207.136719 L 48.394531 207.03125 L 47.796875 207.980469 L 47.09375 208.050781 L 47.199219 197.699219 L 48.78125 196.222656 L 47.125 194.320312 L 45.796875 194.25 L 44.253906 193.980469 L 44.113281 193.800781 L 44.113281 191.863281 L 45.507812 188.449219 L 45.507812 187.976562 C 42.003906 187.929688 40.085938 187.898438 39.03125 187.804688 C 39.011719 188.066406 38.988281 188.347656 38.972656 188.515625 L 40.226562 191.652344 L 40.242188 193.34375 L 39.574219 193.707031 L 38.890625 194.226562 C 38.890625 194.226562 35.402344 194.226562 35.296875 194.226562 C 35.191406 194.226562 36.75 196.292969 36.75 196.292969 L 36.644531 205.914062 L 36.320312 205.796875 L 36.320312 206.75 L 35.6875 206.925781 L 35.964844 204.460938 L 36.320312 203.652344 C 36.320312 203.652344 33.644531 203.722656 33.539062 203.722656 C 33.433594 203.722656 33.925781 204.425781 33.925781 204.425781 L 33.925781 208.683594 L 33.433594 208.722656 L 33.433594 208.085938 L 32.410156 207.910156 L 32.480469 201.398438 L 33.046875 200.449219 L 29.914062 200.449219 L 30.546875 201.609375 L 30.546875 208.335938 L 28.402344 208.863281 L 28.402344 210.941406 L 27.625 210.941406 C 27.625 210.941406 28.363281 212.3125 28.398438 212.101562 C 28.433594 211.890625 28.082031 234.210938 28.082031 234.210938 L 26.851562 234.703125 L 26.851562 238.140625 C 26.003906 238.195312 24.878906 238.289062 23.890625 238.378906 L 23.515625 228.640625 L 22.398438 228.640625 C 22.398438 228.640625 21.910156 236.296875 21.761719 238.570312 C 21.714844 238.578125 21.683594 238.578125 21.683594 238.578125 C 21.683594 238.578125 21.5 241.109375 21.441406 241.8125 C 21.339844 243.003906 21.207031 244.191406 21.074219 245.378906 C 20.824219 247.671875 20.550781 249.96875 20.433594 252.273438 C 20.273438 255.4375 20.378906 258.617188 20.222656 261.773438 C 19.984375 266.542969 19.714844 271.304688 19.714844 276.097656 C 19.714844 276.097656 19.714844 336.730469 19.714844 337.101562 C 19.714844 337.476562 355.15625 337.101562 355.15625 337.101562 L 355.15625 239.175781 L 355.238281 239.175781 Z M 354.832031 228.640625 " fill-opacity="1" fill-rule="nonzero"/></g><path fill="#403e2b" d="M 26.53125 252.507812 L 29.035156 252.507812 L 29.035156 258.691406 L 26.53125 258.691406 Z M 33.878906 258.691406 L 36.382812 258.691406 L 36.382812 252.507812 L 33.878906 252.507812 Z M 41.230469 258.691406 L 43.730469 258.691406 L 43.730469 252.507812 L 41.230469 252.507812 Z M 26.53125 270.3125 L 29.035156 270.3125 L 29.035156 264.128906 L 26.53125 264.128906 Z M 33.878906 270.3125 L 36.382812 270.3125 L 36.382812 264.128906 L 33.878906 264.128906 Z M 41.230469 270.3125 L 43.730469 270.3125 L 43.730469 264.128906 L 41.230469 264.128906 Z M 26.53125 281.9375 L 29.035156 281.9375 L 29.035156 275.753906 L 26.53125 275.753906 Z M 33.878906 281.9375 L 36.382812 281.9375 L 36.382812 275.753906 L 33.878906 275.753906 Z M 41.230469 281.9375 L 43.730469 281.9375 L 43.730469 275.753906 L 41.230469 275.753906 Z M 26.53125 293.558594 L 29.035156 293.558594 L 29.035156 287.375 L 26.53125 287.375 Z M 33.878906 293.558594 L 36.382812 293.558594 L 36.382812 287.375 L 33.878906 287.375 Z M 41.230469 293.558594 L 43.730469 293.558594 L 43.730469 287.375 L 41.230469 287.375 Z M 26.53125 305.179688 L 29.035156 305.179688 L 29.035156 298.996094 L 26.53125 298.996094 Z M 33.878906 305.179688 L 36.382812 305.179688 L 36.382812 298.996094 L 33.878906 298.996094 Z M 41.230469 305.179688 L 43.730469 305.179688 L 43.730469 298.996094 L 41.230469 298.996094 Z M 26.53125 316.800781 L 29.035156 316.800781 L 29.035156 310.617188 L 26.53125 310.617188 Z M 33.878906 316.800781 L 36.382812 316.800781 L 36.382812 310.617188 L 33.878906 310.617188 Z M 41.230469 316.800781 L 43.730469 316.800781 L 43.730469 310.617188 L 41.230469 310.617188 Z M 26.53125 328.425781 L 29.035156 328.425781 L 29.035156 322.242188 L 26.53125 322.242188 Z M 33.878906 328.425781 L 36.382812 328.425781 L 36.382812 322.242188 L 33.878906 322.242188 Z M 41.230469 328.425781 L 43.730469 328.425781 L 43.730469 322.242188 L 41.230469 322.242188 Z M 330.863281 258.691406 L 333.367188 258.691406 L 333.367188 252.507812 L 330.863281 252.507812 Z M 338.210938 258.691406 L 340.714844 258.691406 L 340.714844 252.507812 L 338.210938 252.507812 Z M 345.558594 252.507812 L 345.558594 258.691406 L 348.0625 258.691406 L 348.0625 252.507812 Z M 330.863281 270.3125 L 333.367188 270.3125 L 333.367188 264.128906 L 330.863281 264.128906 Z M 338.210938 270.3125 L 340.714844 270.3125 L 340.714844 264.128906 L 338.210938 264.128906 Z M 345.558594 270.3125 L 348.0625 270.3125 L 348.0625 264.128906 L 345.558594 264.128906 Z M 330.863281 281.9375 L 333.367188 281.9375 L 333.367188 275.753906 L 330.863281 275.753906 Z M 338.210938 281.9375 L 340.714844 281.9375 L 340.714844 275.753906 L 338.210938 275.753906 Z M 345.558594 281.9375 L 348.0625 281.9375 L 348.0625 275.753906 L 345.558594 275.753906 Z M 330.863281 293.558594 L 333.367188 293.558594 L 333.367188 287.375 L 330.863281 287.375 Z M 338.210938 293.558594 L 340.714844 293.558594 L 340.714844 287.375 L 338.210938 287.375 Z M 345.558594 293.558594 L 348.0625 293.558594 L 348.0625 287.375 L 345.558594 287.375 Z M 330.863281 305.179688 L 333.367188 305.179688 L 333.367188 298.996094 L 330.863281 298.996094 Z M 338.210938 305.179688 L 340.714844 305.179688 L 340.714844 298.996094 L 338.210938 298.996094 Z M 345.558594 305.179688 L 348.0625 305.179688 L 348.0625 298.996094 L 345.558594 298.996094 Z M 330.863281 316.800781 L 333.367188 316.800781 L 333.367188 310.617188 L 330.863281 310.617188 Z M 338.210938 316.800781 L 340.714844 316.800781 L 340.714844 310.617188 L 338.210938 310.617188 Z M 345.558594 316.800781 L 348.0625 316.800781 L 348.0625 310.617188 L 345.558594 310.617188 Z M 330.863281 328.425781 L 333.367188 328.425781 L 333.367188 322.242188 L 330.863281 322.242188 Z M 338.210938 328.425781 L 340.714844 328.425781 L 340.714844 322.242188 L 338.210938 322.242188 Z M 345.558594 328.425781 L 348.0625 328.425781 L 348.0625 322.242188 L 345.558594 322.242188 Z M 59.15625 260.183594 L 61.65625 260.183594 L 61.65625 254 L 59.15625 254 Z M 59.15625 271.808594 L 61.65625 271.808594 L 61.65625 265.621094 L 59.15625 265.621094 Z M 59.15625 283.429688 L 61.65625 283.429688 L 61.65625 277.246094 L 59.15625 277.246094 Z M 59.15625 295.050781 L 61.65625 295.050781 L 61.65625 288.867188 L 59.15625 288.867188 Z M 59.15625 306.671875 L 61.65625 306.671875 L 61.65625 300.488281 L 59.15625 300.488281 Z M 59.15625 318.292969 L 61.65625 318.292969 L 61.65625 312.113281 L 59.15625 312.113281 Z M 59.15625 329.917969 L 61.65625 329.917969 L 61.65625 323.734375 L 59.15625 323.734375 Z M 313.167969 260.183594 L 315.671875 260.183594 L 315.671875 254 L 313.167969 254 Z M 313.167969 271.808594 L 315.671875 271.808594 L 315.671875 265.621094 L 313.167969 265.621094 Z M 313.167969 283.429688 L 315.671875 283.429688 L 315.671875 277.246094 L 313.167969 277.246094 Z M 313.167969 295.050781 L 315.671875 295.050781 L 315.671875 288.867188 L 313.167969 288.867188 Z M 313.167969 306.671875 L 315.671875 306.671875 L 315.671875 300.488281 L 313.167969 300.488281 Z M 313.167969 318.292969 L 315.671875 318.292969 L 315.671875 312.113281 L 313.167969 312.113281 Z M 313.167969 329.917969 L 315.671875 329.917969 L 315.671875 323.734375 L 313.167969 323.734375 Z M 81.964844 267.863281 L 89.515625 267.863281 L 89.515625 262.363281 L 81.964844 262.363281 Z M 81.964844 278.207031 L 89.515625 278.207031 L 89.515625 272.707031 L 81.964844 272.707031 Z M 81.964844 288.550781 L 89.515625 288.550781 L 89.515625 283.046875 L 81.964844 283.046875 Z M 81.964844 298.890625 L 89.515625 298.890625 L 89.515625 293.386719 L 81.964844 293.386719 Z M 81.964844 309.234375 L 89.515625 309.234375 L 89.515625 303.730469 L 81.964844 303.730469 Z M 81.964844 319.574219 L 89.515625 319.574219 L 89.515625 314.074219 L 81.964844 314.074219 Z M 81.964844 329.917969 L 89.515625 329.917969 L 89.515625 324.414062 L 81.964844 324.414062 Z M 97.191406 262.363281 L 97.191406 267.863281 L 104.742188 267.863281 L 104.742188 262.363281 Z M 97.191406 278.207031 L 104.742188 278.207031 L 104.742188 272.707031 L 97.191406 272.707031 Z M 97.191406 288.550781 L 104.742188 288.550781 L 104.742188 283.046875 L 97.191406 283.046875 Z M 97.191406 298.890625 L 104.742188 298.890625 L 104.742188 293.386719 L 97.191406 293.386719 Z M 97.191406 309.234375 L 104.742188 309.234375 L 104.742188 303.730469 L 97.191406 303.730469 Z M 97.191406 319.574219 L 104.742188 319.574219 L 104.742188 314.074219 L 97.191406 314.074219 Z M 97.191406 329.917969 L 104.742188 329.917969 L 104.742188 324.414062 L 97.191406 324.414062 Z M 112.421875 267.074219 L 112.421875 267.867188 L 119.972656 267.867188 L 119.972656 262.363281 L 112.421875 262.363281 Z M 112.421875 278.207031 L 119.972656 278.207031 L 119.972656 272.707031 L 112.421875 272.707031 Z M 112.421875 288.550781 L 119.972656 288.550781 L 119.972656 283.046875 L 112.421875 283.046875 Z M 112.421875 298.890625 L 119.972656 298.890625 L 119.972656 293.386719 L 112.421875 293.386719 Z M 112.421875 309.234375 L 119.972656 309.234375 L 119.972656 303.730469 L 112.421875 303.730469 Z M 112.421875 319.574219 L 119.972656 319.574219 L 119.972656 314.074219 L 112.421875 314.074219 Z M 112.421875 329.917969 L 119.972656 329.917969 L 119.972656 324.414062 L 112.421875 324.414062 Z M 128.320312 267.863281 L 135.871094 267.863281 L 135.871094 262.363281 L 128.320312 262.363281 Z M 128.320312 275.472656 L 128.320312 278.207031 L 135.871094 278.207031 L 135.871094 272.703125 L 128.320312 272.703125 Z M 128.320312 288.550781 L 135.871094 288.550781 L 135.871094 283.046875 L 128.320312 283.046875 Z M 128.320312 298.890625 L 135.871094 298.890625 L 135.871094 293.386719 L 128.320312 293.386719 Z M 128.320312 309.234375 L 135.871094 309.234375 L 135.871094 303.730469 L 128.320312 303.730469 Z M 128.320312 319.574219 L 135.871094 319.574219 L 135.871094 314.074219 L 128.320312 314.074219 Z M 128.320312 329.917969 L 135.871094 329.917969 L 135.871094 324.414062 L 128.320312 324.414062 Z M 235.53125 267.863281 L 243.078125 267.863281 L 243.078125 262.363281 L 235.53125 262.363281 Z M 235.53125 278.207031 L 243.078125 278.207031 L 243.078125 272.707031 L 235.53125 272.707031 Z M 235.53125 288.550781 L 243.078125 288.550781 L 243.078125 283.046875 L 235.53125 283.046875 Z M 235.53125 298.890625 L 243.078125 298.890625 L 243.078125 293.386719 L 235.53125 293.386719 Z M 235.53125 309.234375 L 243.078125 309.234375 L 243.078125 303.730469 L 235.53125 303.730469 Z M 235.53125 319.574219 L 243.078125 319.574219 L 243.078125 314.074219 L 235.53125 314.074219 Z M 235.53125 329.917969 L 243.078125 329.917969 L 243.078125 324.414062 L 235.53125 324.414062 Z M 250.757812 267.863281 L 258.308594 267.863281 L 258.308594 262.363281 L 250.757812 262.363281 Z M 250.757812 278.207031 L 258.308594 278.207031 L 258.308594 272.707031 L 250.757812 272.707031 Z M 250.757812 288.550781 L 258.308594 288.550781 L 258.308594 283.046875 L 250.757812 283.046875 Z M 250.757812 298.890625 L 258.308594 298.890625 L 258.308594 293.386719 L 250.757812 293.386719 Z M 250.757812 309.234375 L 258.308594 309.234375 L 258.308594 303.730469 L 250.757812 303.730469 Z M 250.757812 319.574219 L 258.308594 319.574219 L 258.308594 314.074219 L 250.757812 314.074219 Z M 250.757812 329.917969 L 258.308594 329.917969 L 258.308594 324.414062 L 250.757812 324.414062 Z M 265.988281 267.863281 L 273.539062 267.863281 L 273.539062 262.363281 L 265.988281 262.363281 Z M 265.988281 278.207031 L 273.539062 278.207031 L 273.539062 272.707031 L 265.988281 272.707031 Z M 265.988281 288.550781 L 273.539062 288.550781 L 273.539062 283.046875 L 265.988281 283.046875 Z M 265.988281 298.890625 L 273.539062 298.890625 L 273.539062 293.386719 L 265.988281 293.386719 Z M 265.988281 309.234375 L 273.539062 309.234375 L 273.539062 303.730469 L 265.988281 303.730469 Z M 265.988281 319.574219 L 273.539062 319.574219 L 273.539062 314.074219 L 265.988281 314.074219 Z M 265.988281 329.917969 L 273.539062 329.917969 L 273.539062 324.414062 L 265.988281 324.414062 Z M 281.886719 267.863281 L 289.433594 267.863281 L 289.433594 262.363281 L 281.886719 262.363281 Z M 281.886719 278.207031 L 289.433594 278.207031 L 289.433594 272.707031 L 281.886719 272.707031 Z M 281.886719 288.550781 L 289.433594 288.550781 L 289.433594 283.046875 L 281.886719 283.046875 Z M 281.886719 298.890625 L 289.433594 298.890625 L 289.433594 293.386719 L 281.886719 293.386719 Z M 281.886719 309.234375 L 289.433594 309.234375 L 289.433594 303.730469 L 281.886719 303.730469 Z M 281.886719 319.574219 L 289.433594 319.574219 L 289.433594 314.074219 L 281.886719 314.074219 Z M 281.886719 329.917969 L 289.433594 329.917969 L 289.433594 324.414062 L 281.886719 324.414062 Z M 144.417969 209.625 L 146.921875 209.625 L 146.921875 205.273438 L 144.417969 205.273438 Z M 144.417969 217.804688 L 146.921875 217.804688 L 146.921875 213.453125 L 144.417969 213.453125 Z M 144.417969 225.988281 L 146.921875 225.988281 L 146.921875 221.636719 L 144.417969 221.636719 Z M 144.417969 234.171875 L 146.921875 234.171875 L 146.921875 229.816406 L 144.417969 229.816406 Z M 144.417969 242.351562 L 146.921875 242.351562 L 146.921875 238 L 144.417969 238 Z M 144.417969 250.535156 L 146.921875 250.535156 L 146.921875 246.179688 L 144.417969 246.179688 Z M 144.417969 258.714844 L 146.921875 258.714844 L 146.921875 254.363281 L 144.417969 254.363281 Z M 144.417969 266.898438 L 146.921875 266.898438 L 146.921875 262.546875 L 144.417969 262.546875 Z M 144.417969 275.082031 L 146.921875 275.082031 L 146.921875 270.726562 L 144.417969 270.726562 Z M 144.417969 283.261719 L 146.921875 283.261719 L 146.921875 278.910156 L 144.417969 278.910156 Z M 144.417969 291.445312 L 146.921875 291.445312 L 146.921875 287.089844 L 144.417969 287.089844 Z M 144.417969 299.625 L 146.921875 299.625 L 146.921875 295.273438 L 144.417969 295.273438 Z M 144.417969 307.808594 L 146.921875 307.808594 L 146.921875 303.453125 L 144.417969 303.453125 Z M 144.417969 315.988281 L 146.921875 315.988281 L 146.921875 311.636719 L 144.417969 311.636719 Z M 154.933594 205.269531 L 157.433594 205.269531 L 157.433594 200.917969 L 154.933594 200.917969 Z M 154.933594 213.453125 L 157.433594 213.453125 L 157.433594 209.097656 L 154.933594 209.097656 Z M 154.933594 221.632812 L 157.433594 221.632812 L 157.433594 217.28125 L 154.933594 217.28125 Z M 154.933594 229.816406 L 157.433594 229.816406 L 157.433594 225.460938 L 154.933594 225.460938 Z M 154.933594 237.996094 L 157.433594 237.996094 L 157.433594 233.644531 L 154.933594 233.644531 Z M 154.933594 246.179688 L 157.433594 246.179688 L 157.433594 241.824219 L 154.933594 241.824219 Z M 154.933594 254.359375 L 157.433594 254.359375 L 157.433594 250.007812 L 154.933594 250.007812 Z M 154.933594 262.542969 L 157.433594 262.542969 L 157.433594 258.191406 L 154.933594 258.191406 Z M 154.933594 270.726562 L 157.433594 270.726562 L 157.433594 266.371094 L 154.933594 266.371094 Z M 154.933594 278.90625 L 157.433594 278.90625 L 157.433594 274.554688 L 154.933594 274.554688 Z M 154.933594 287.089844 L 157.433594 287.089844 L 157.433594 282.734375 L 154.933594 282.734375 Z M 154.933594 295.269531 L 157.433594 295.269531 L 157.433594 290.917969 L 154.933594 290.917969 Z M 154.933594 303.453125 L 157.433594 303.453125 L 157.433594 299.097656 L 154.933594 299.097656 Z M 154.933594 311.632812 L 157.433594 311.632812 L 157.433594 307.28125 L 154.933594 307.28125 Z M 154.933594 319.816406 L 157.433594 319.816406 L 157.433594 315.464844 L 154.933594 315.464844 Z M 154.933594 327.996094 L 157.433594 327.996094 L 157.433594 323.644531 L 154.933594 323.644531 Z M 154.933594 336.179688 L 157.433594 336.179688 L 157.433594 331.824219 L 154.933594 331.824219 Z M 227.804688 209.625 L 230.304688 209.625 L 230.304688 205.273438 L 227.804688 205.273438 Z M 227.804688 217.804688 L 230.304688 217.804688 L 230.304688 213.453125 L 227.804688 213.453125 Z M 227.804688 225.988281 L 230.304688 225.988281 L 230.304688 221.636719 L 227.804688 221.636719 Z M 227.804688 234.171875 L 230.304688 234.171875 L 230.304688 229.816406 L 227.804688 229.816406 Z M 227.804688 242.351562 L 230.304688 242.351562 L 230.304688 238 L 227.804688 238 Z M 227.804688 250.535156 L 230.304688 250.535156 L 230.304688 246.179688 L 227.804688 246.179688 Z M 227.804688 258.714844 L 230.304688 258.714844 L 230.304688 254.363281 L 227.804688 254.363281 Z M 227.804688 266.898438 L 230.304688 266.898438 L 230.304688 262.546875 L 227.804688 262.546875 Z M 227.804688 275.082031 L 230.304688 275.082031 L 230.304688 270.726562 L 227.804688 270.726562 Z M 227.804688 283.261719 L 230.304688 283.261719 L 230.304688 278.910156 L 227.804688 278.910156 Z M 227.804688 291.445312 L 230.304688 291.445312 L 230.304688 287.089844 L 227.804688 287.089844 Z M 227.804688 299.625 L 230.304688 299.625 L 230.304688 295.273438 L 227.804688 295.273438 Z M 227.804688 307.808594 L 230.304688 307.808594 L 230.304688 303.453125 L 227.804688 303.453125 Z M 227.804688 315.988281 L 230.304688 315.988281 L 230.304688 311.636719 L 227.804688 311.636719 Z M 214.257812 205.269531 L 216.757812 205.269531 L 216.757812 200.917969 L 214.257812 200.917969 Z M 214.257812 213.453125 L 216.757812 213.453125 L 216.757812 209.097656 L 214.257812 209.097656 Z M 214.257812 221.632812 L 216.757812 221.632812 L 216.757812 217.28125 L 214.257812 217.28125 Z M 214.257812 229.816406 L 216.757812 229.816406 L 216.757812 225.460938 L 214.257812 225.460938 Z M 214.257812 237.996094 L 216.757812 237.996094 L 216.757812 233.644531 L 214.257812 233.644531 Z M 214.257812 246.179688 L 216.757812 246.179688 L 216.757812 241.824219 L 214.257812 241.824219 Z M 214.257812 254.359375 L 216.757812 254.359375 L 216.757812 250.007812 L 214.257812 250.007812 Z M 214.257812 262.542969 L 216.757812 262.542969 L 216.757812 258.191406 L 214.257812 258.191406 Z M 214.257812 270.726562 L 216.757812 270.726562 L 216.757812 266.371094 L 214.257812 266.371094 Z M 214.257812 278.90625 L 216.757812 278.90625 L 216.757812 274.554688 L 214.257812 274.554688 Z M 214.257812 287.089844 L 216.757812 287.089844 L 216.757812 282.734375 L 214.257812 282.734375 Z M 214.257812 295.269531 L 216.757812 295.269531 L 216.757812 290.917969 L 214.257812 290.917969 Z M 214.257812 303.453125 L 216.757812 303.453125 L 216.757812 299.097656 L 214.257812 299.097656 Z M 214.257812 311.632812 L 216.757812 311.632812 L 216.757812 307.28125 L 214.257812 307.28125 Z M 214.257812 319.816406 L 216.757812 319.816406 L 216.757812 315.464844 L 214.257812 315.464844 Z M 214.257812 327.996094 L 216.757812 327.996094 L 216.757812 323.644531 L 214.257812 323.644531 Z M 214.257812 336.179688 L 216.757812 336.179688 L 216.757812 331.824219 L 214.257812 331.824219 Z M 166.699219 213.582031 L 169.203125 213.582031 L 169.203125 209.230469 L 166.699219 209.230469 Z M 166.699219 221.765625 L 169.203125 221.765625 L 169.203125 217.414062 L 166.699219 217.414062 Z M 166.699219 229.945312 L 169.203125 229.945312 L 169.203125 225.59375 L 166.699219 225.59375 Z M 166.699219 238.128906 L 169.203125 238.128906 L 169.203125 233.777344 L 166.699219 233.777344 Z M 166.699219 246.3125 L 169.203125 246.3125 L 169.203125 241.957031 L 166.699219 241.957031 Z M 166.699219 250.140625 L 166.699219 254.492188 L 169.203125 254.492188 L 169.203125 250.140625 Z M 166.699219 258.320312 L 166.699219 262.675781 L 169.203125 262.675781 L 169.203125 258.320312 Z M 166.699219 266.503906 L 166.699219 270.855469 L 169.203125 270.855469 L 169.203125 266.503906 Z M 166.699219 274.6875 L 166.699219 279.039062 L 169.203125 279.039062 L 169.203125 274.6875 Z M 166.699219 282.867188 L 166.699219 287.21875 L 169.203125 287.21875 L 169.203125 282.867188 Z M 166.699219 291.050781 L 166.699219 295.402344 L 169.203125 295.402344 L 169.203125 291.050781 Z M 166.699219 303.585938 L 169.203125 303.585938 L 169.203125 299.230469 L 166.699219 299.230469 Z M 166.699219 311.765625 L 169.203125 311.765625 L 169.203125 307.414062 L 166.699219 307.414062 Z M 166.699219 319.945312 L 169.203125 319.945312 L 169.203125 315.59375 L 166.699219 315.59375 Z M 166.699219 328.128906 L 169.203125 328.128906 L 169.203125 323.777344 L 166.699219 323.777344 Z M 166.699219 336.3125 L 169.203125 336.3125 L 169.203125 331.957031 L 166.699219 331.957031 Z M 202.621094 205.402344 L 205.125 205.402344 L 205.125 201.050781 L 202.621094 201.050781 Z M 202.621094 213.582031 L 205.125 213.582031 L 205.125 209.230469 L 202.621094 209.230469 Z M 202.621094 221.765625 L 205.125 221.765625 L 205.125 217.414062 L 202.621094 217.414062 Z M 202.621094 229.945312 L 205.125 229.945312 L 205.125 225.59375 L 202.621094 225.59375 Z M 202.621094 238.128906 L 205.125 238.128906 L 205.125 233.777344 L 202.621094 233.777344 Z M 202.621094 246.3125 L 205.125 246.3125 L 205.125 241.957031 L 202.621094 241.957031 Z M 202.621094 254.492188 L 205.125 254.492188 L 205.125 250.140625 L 202.621094 250.140625 Z M 202.621094 262.675781 L 205.125 262.675781 L 205.125 258.320312 L 202.621094 258.320312 Z M 202.621094 270.855469 L 205.125 270.855469 L 205.125 266.503906 L 202.621094 266.503906 Z M 202.621094 279.039062 L 205.125 279.039062 L 205.125 274.6875 L 202.621094 274.6875 Z M 202.621094 287.21875 L 205.125 287.21875 L 205.125 282.867188 L 202.621094 282.867188 Z M 202.621094 295.402344 L 205.125 295.402344 L 205.125 291.050781 L 202.621094 291.050781 Z M 202.621094 303.585938 L 205.125 303.585938 L 205.125 299.230469 L 202.621094 299.230469 Z M 202.621094 311.765625 L 205.125 311.765625 L 205.125 307.414062 L 202.621094 307.414062 Z M 202.621094 319.945312 L 205.125 319.945312 L 205.125 315.59375 L 202.621094 315.59375 Z M 202.621094 328.128906 L 205.125 328.128906 L 205.125 323.777344 L 202.621094 323.777344 Z M 202.621094 336.3125 L 205.125 336.3125 L 205.125 331.957031 L 202.621094 331.957031 Z M 186.28125 284.382812 C 186.183594 278.007812 186.082031 271.648438 185.980469 265.34375 C 183.960938 265.339844 181.914062 265.359375 179.847656 265.402344 C 179.929688 271.847656 180.015625 278.253906 180.101562 284.632812 C 181.617188 284.605469 183.167969 284.570312 184.691406 284.496094 C 185.222656 284.46875 185.75 284.421875 186.28125 284.382812 Z M 193.398438 284.835938 C 191.441406 285.085938 189.464844 285.316406 187.476562 285.480469 C 187.574219 292.214844 187.667969 298.964844 187.738281 305.683594 C 189.777344 305.667969 191.824219 305.597656 193.875 305.472656 C 193.726562 298.558594 193.566406 291.675781 193.398438 284.835938 Z M 193.289062 225.429688 C 194.847656 225.347656 196.414062 225.246094 197.984375 225.128906 L 197.984375 213.082031 C 196.402344 213.246094 194.785156 213.355469 193.132812 213.417969 C 193.175781 217.421875 193.226562 221.425781 193.289062 225.429688 Z M 194.074219 264.089844 C 195.402344 264.054688 196.699219 264.011719 197.984375 263.957031 L 197.984375 243.03125 C 196.523438 243.15625 195.078125 243.285156 193.609375 243.402344 C 193.753906 250.328125 193.910156 257.230469 194.074219 264.089844 Z M 185.957031 263.855469 C 185.847656 257.269531 185.742188 250.621094 185.640625 243.957031 C 183.625 244.078125 181.613281 244.1875 179.597656 244.265625 C 179.667969 250.9375 179.746094 257.59375 179.832031 264.226562 C 181.898438 264.183594 183.945312 264.164062 185.960938 264.167969 C 185.960938 264.0625 185.957031 263.960938 185.957031 263.855469 Z M 183.707031 305.648438 C 184.65625 305.675781 185.609375 305.691406 186.5625 305.691406 C 186.488281 298.996094 186.398438 292.273438 186.296875 285.5625 C 185.78125 285.597656 185.265625 285.644531 184.75 285.671875 C 183.203125 285.746094 181.644531 285.78125 180.117188 285.808594 C 180.132812 286.914062 180.144531 288.023438 180.160156 289.125 C 180.234375 294.546875 180.308594 300.03125 180.382812 305.539062 C 180.695312 305.550781 181.011719 305.554688 181.320312 305.570312 C 182.121094 305.597656 182.917969 305.625 183.707031 305.648438 Z M 193.21875 277.503906 C 193.121094 273.457031 193.023438 269.382812 192.925781 265.296875 C 191.203125 265.332031 189.4375 265.347656 187.628906 265.34375 C 187.476562 265.34375 187.3125 265.34375 187.15625 265.34375 C 187.261719 271.621094 187.363281 277.953125 187.457031 284.300781 C 189.4375 284.132812 191.414062 283.90625 193.371094 283.652344 C 193.320312 281.601562 193.269531 279.546875 193.21875 277.503906 Z M 178.246094 225.855469 C 178.214844 221.664062 178.1875 217.472656 178.164062 213.285156 C 177.925781 213.277344 177.691406 213.273438 177.449219 213.269531 C 176.230469 213.242188 175.023438 213.21875 173.839844 213.207031 L 173.839844 225.875 C 175.152344 225.871094 176.460938 225.867188 177.785156 225.859375 C 177.9375 225.855469 178.089844 225.855469 178.246094 225.855469 Z M 178.921875 284.660156 C 178.875 281.039062 178.824219 277.410156 178.777344 273.773438 C 178.742188 270.996094 178.703125 268.214844 178.667969 265.425781 C 178.3125 265.4375 177.957031 265.433594 177.601562 265.445312 C 177.070312 265.464844 176.53125 265.503906 175.992188 265.539062 C 175.28125 265.585938 174.5625 265.628906 173.839844 265.640625 L 173.839844 284.828125 C 175.269531 284.75 176.695312 284.707031 178.109375 284.679688 C 178.378906 284.671875 178.652344 284.664062 178.921875 284.660156 Z M 192.128906 226.667969 C 190.269531 226.757812 188.421875 226.828125 186.582031 226.882812 C 186.644531 232.15625 186.71875 237.4375 186.800781 242.710938 C 188.671875 242.59375 190.542969 242.460938 192.410156 242.316406 C 192.304688 237.105469 192.210938 231.890625 192.128906 226.667969 Z M 178.371094 239.273438 C 178.332031 235.195312 178.289062 231.117188 178.257812 227.03125 C 178.109375 227.035156 177.96875 227.035156 177.820312 227.035156 C 176.488281 227.046875 175.164062 227.050781 173.839844 227.050781 L 173.839844 243.242188 C 175.359375 243.21875 176.882812 243.183594 178.40625 243.132812 C 178.394531 241.847656 178.382812 240.558594 178.371094 239.273438 Z M 179.203125 305.5 C 179.132812 300.011719 179.058594 294.546875 178.984375 289.140625 C 178.96875 288.042969 178.957031 286.9375 178.941406 285.835938 C 178.636719 285.84375 178.328125 285.851562 178.023438 285.859375 C 176.636719 285.890625 175.238281 285.929688 173.839844 286.007812 L 173.839844 305.472656 C 175.632812 305.421875 177.425781 305.445312 179.203125 305.5 Z M 177.558594 264.269531 C 177.925781 264.257812 178.285156 264.257812 178.652344 264.246094 C 178.570312 257.621094 178.492188 250.96875 178.421875 244.300781 C 176.890625 244.351562 175.367188 244.386719 173.839844 244.410156 L 173.839844 264.464844 C 174.53125 264.453125 175.226562 264.410156 175.910156 264.363281 C 176.464844 264.324219 177.015625 264.289062 177.558594 264.269531 Z M 186.445312 213.472656 C 186.480469 217.535156 186.519531 221.613281 186.570312 225.707031 C 188.40625 225.652344 190.253906 225.578125 192.109375 225.488281 C 192.050781 221.476562 192 217.464844 191.957031 213.457031 C 190.929688 213.484375 189.902344 213.5 188.863281 213.5 C 188.058594 213.5 187.253906 213.480469 186.445312 213.472656 Z M 197.984375 241.851562 L 197.984375 226.308594 C 196.421875 226.425781 194.859375 226.527344 193.304688 226.609375 C 193.386719 231.820312 193.484375 237.027344 193.585938 242.222656 C 195.0625 242.105469 196.515625 241.972656 197.984375 241.851562 Z M 194.574219 284.683594 C 194.738281 291.550781 194.902344 298.460938 195.050781 305.402344 C 196.027344 305.332031 197.007812 305.25 197.984375 305.15625 L 197.984375 284.214844 C 197.8125 284.242188 197.640625 284.261719 197.46875 284.285156 C 196.511719 284.417969 195.542969 284.554688 194.574219 284.683594 Z M 194.398438 277.476562 C 194.445312 279.476562 194.496094 281.492188 194.542969 283.5 C 195.46875 283.375 196.394531 283.25 197.308594 283.121094 C 197.53125 283.089844 197.761719 283.058594 197.984375 283.027344 L 197.984375 265.136719 C 196.710938 265.191406 195.417969 265.238281 194.101562 265.269531 C 194.199219 269.355469 194.296875 273.429688 194.398438 277.476562 Z M 193.125 212.242188 C 194.78125 212.179688 196.402344 212.066406 197.984375 211.898438 L 197.984375 201.050781 L 193.050781 201.050781 C 193.066406 204.773438 193.085938 208.503906 193.125 212.242188 Z M 178.160156 212.105469 C 178.140625 208.414062 178.140625 204.734375 178.132812 201.046875 L 173.839844 201.046875 L 173.839844 212.027344 C 175.015625 212.039062 176.214844 212.0625 177.429688 212.089844 C 177.671875 212.097656 177.914062 212.101562 178.160156 212.105469 Z M 195.53125 331.824219 L 197.984375 331.824219 L 197.984375 306.335938 C 197.015625 306.429688 196.042969 306.511719 195.078125 306.578125 C 195.257812 314.964844 195.410156 323.394531 195.53125 331.824219 Z M 173.839844 306.652344 L 173.839844 331.824219 L 179.523438 331.824219 C 179.429688 323.429688 179.328125 315.027344 179.21875 306.679688 C 177.429688 306.625 175.632812 306.597656 173.839844 306.652344 Z M 180.464844 212.164062 C 182.054688 212.210938 183.65625 212.253906 185.257812 212.285156 C 185.226562 208.519531 185.207031 204.773438 185.191406 201.046875 L 179.308594 201.046875 C 179.316406 204.746094 179.320312 208.433594 179.339844 212.136719 C 179.71875 212.148438 180.082031 212.15625 180.464844 212.164062 Z M 192.894531 264.121094 C 192.734375 257.28125 192.574219 250.402344 192.433594 243.496094 C 190.566406 243.640625 188.691406 243.769531 186.816406 243.886719 C 186.917969 250.570312 187.023438 257.234375 187.132812 263.839844 C 187.136719 263.945312 187.136719 264.058594 187.140625 264.167969 C 187.300781 264.167969 187.472656 264.167969 187.632812 264.167969 C 189.433594 264.167969 191.183594 264.152344 192.894531 264.121094 Z M 191.945312 212.285156 C 191.90625 208.53125 191.890625 204.789062 191.871094 201.046875 L 186.367188 201.046875 C 186.382812 204.78125 186.40625 208.53125 186.4375 212.300781 C 188.285156 212.324219 190.132812 212.328125 191.945312 212.285156 Z M 179.34375 213.316406 C 179.367188 217.492188 179.394531 221.667969 179.425781 225.847656 C 181.398438 225.824219 183.386719 225.792969 185.390625 225.742188 C 185.34375 221.632812 185.300781 217.539062 185.269531 213.457031 C 183.652344 213.425781 182.035156 213.386719 180.433594 213.34375 C 180.0625 213.332031 179.710938 213.324219 179.34375 213.316406 Z M 185.402344 226.917969 C 183.398438 226.96875 181.410156 227.003906 179.433594 227.023438 C 179.476562 232.382812 179.527344 237.734375 179.585938 243.085938 C 181.597656 243.007812 183.609375 242.902344 185.621094 242.78125 C 185.542969 237.496094 185.46875 232.203125 185.402344 226.917969 Z M 183.671875 306.828125 C 182.878906 306.804688 182.082031 306.773438 181.28125 306.746094 C 180.988281 306.734375 180.691406 306.726562 180.398438 306.71875 C 180.507812 315.054688 180.609375 323.441406 180.699219 331.828125 L 186.734375 331.828125 C 186.722656 323.617188 186.664062 315.273438 186.574219 306.871094 C 185.605469 306.871094 184.636719 306.855469 183.671875 306.828125 Z M 187.753906 306.859375 C 187.839844 315.265625 187.898438 323.613281 187.914062 331.824219 L 194.355469 331.824219 C 194.230469 323.417969 194.082031 315.015625 193.902344 306.652344 C 191.84375 306.777344 189.792969 306.847656 187.753906 306.859375 Z M 187.753906 306.859375 " fill-opacity="1" fill-rule="nonzero"/><g clip-path="url(#a30b62af75)"><path fill="#ce5818" d="M 75.5 238.128906 L 59.761719 238.128906 L 60.011719 236.628906 L 60.148438 235.820312 L 75.855469 235.953125 L 80.070312 239.175781 L 80.070312 241.957031 Z M 69.167969 223.8125 L 67.671875 223.8125 L 67.671875 231.210938 L 69.167969 231.210938 Z M 72.335938 231.210938 L 72.335938 223.8125 L 70.324219 223.8125 L 71.015625 231.210938 Z M 250.039062 241.824219 L 245.648438 241.824219 L 245.148438 249.074219 L 250.039062 249.074219 Z M 299.929688 238.128906 L 315.671875 238.128906 L 315.304688 235.933594 L 315.285156 235.820312 L 299.578125 235.953125 L 295.363281 239.175781 L 295.363281 241.957031 Z M 307.761719 223.8125 L 306.265625 223.8125 L 306.265625 231.210938 L 307.761719 231.210938 Z M 305.109375 223.8125 L 303.097656 223.8125 L 303.097656 231.210938 L 304.417969 231.210938 Z M 132.722656 253.285156 C 132.644531 253.601562 103.554688 253.398438 87.953125 253.265625 C 82.238281 253.214844 78.332031 253.175781 78.332031 253.175781 L 65.054688 245.296875 L 57.394531 244.648438 L 54.046875 242.382812 L 20.914062 242.382812 C 21.023438 242.707031 20.914062 245.082031 20.914062 245.082031 L 53.507812 245.082031 L 57.066406 247.457031 L 65.703125 246.808594 L 76.925781 255.765625 L 132.722656 255.765625 C 132.722656 255.765625 132.832031 252.851562 132.722656 253.285156 Z M 355.15625 241.628906 L 323.203125 242.707031 L 319.101562 244.972656 L 310.898438 244.757812 L 299.980469 253.175781 L 248.371094 253.277344 L 244.851562 253.285156 C 244.746094 253.5 244.851562 255.335938 244.851562 255.335938 L 248.433594 255.378906 L 299.570312 255.984375 L 310.792969 247.238281 L 319.101562 247.238281 L 323.09375 244.648438 L 355.15625 245.296875 Z M 226.074219 196.5625 L 225.9375 191.828125 L 225.910156 190.894531 L 209.238281 190.894531 L 209.238281 193.160156 C 209.238281 193.160156 178.042969 193.65625 170.285156 193.5625 C 169.179688 193.550781 168.550781 193.527344 168.550781 193.484375 C 168.550781 193.300781 168.375 192.480469 168.222656 191.8125 C 168.109375 191.3125 168.011719 190.894531 168.011719 190.894531 L 150.25 190.894531 L 150.417969 196.402344 L 142.785156 196.078125 L 142.785156 199.421875 C 142.785156 199.316406 151.070312 199.421875 151.070312 199.421875 C 151.070312 199.421875 151.390625 194.460938 151.714844 194.351562 C 152.039062 194.242188 167.042969 194.351562 167.042969 194.351562 L 167.042969 195.945312 L 171.921875 195.945312 L 171.921875 196.351562 L 173.535156 196.335938 L 208.808594 195.96875 L 209.453125 193.703125 L 224.886719 194.460938 L 225.644531 199.421875 L 232.273438 199.421875 L 232.273438 196.5625 Z M 129.65625 241.824219 L 125.265625 241.824219 L 125.265625 249.074219 L 130.15625 249.074219 Z M 33.242188 217.195312 C 32.984375 216.46875 32.839844 215.707031 32.796875 214.949219 L 28.351562 214.949219 L 28.3125 217.195312 Z M 54.730469 217.195312 L 54.757812 217.195312 L 54.863281 214.949219 L 45.0625 214.949219 C 45.171875 215.699219 45.140625 216.460938 44.949219 217.195312 Z M 36.808594 221.191406 C 35.578125 220.707031 34.574219 219.75 33.878906 218.558594 L 33.878906 233.90625 L 36.808594 233.90625 Z M 40.742188 221.144531 C 39.867188 221.441406 38.96875 221.578125 38.171875 221.519531 L 38.171875 233.320312 L 41.113281 233.320312 Z M 44.390625 233.910156 C 44.390625 233.742188 44.390625 223.65625 44.390625 218.550781 C 43.953125 219.230469 43.277344 219.835938 42.496094 220.320312 C 42.515625 225.714844 42.535156 234.324219 42.480469 234.277344 C 42.402344 234.203125 44.390625 234.132812 44.390625 233.910156 Z M 321.9375 217.195312 L 331.707031 217.195312 C 331.515625 216.460938 331.488281 215.699219 331.597656 214.949219 L 321.792969 214.949219 L 321.898438 217.195312 Z M 348.300781 214.949219 L 343.859375 214.949219 C 343.820312 215.707031 343.671875 216.472656 343.417969 217.199219 L 348.300781 217.199219 Z M 342.777344 218.558594 C 342.082031 219.75 341.082031 220.710938 339.851562 221.191406 L 339.851562 233.910156 L 342.777344 233.910156 Z M 338.484375 221.519531 C 337.6875 221.578125 336.792969 221.441406 335.914062 221.144531 L 335.546875 233.320312 L 338.484375 233.320312 Z M 334.175781 234.277344 C 334.121094 234.328125 334.144531 225.714844 334.160156 220.320312 C 333.378906 219.835938 332.707031 219.230469 332.269531 218.546875 C 332.269531 223.65625 332.269531 233.742188 332.269531 233.910156 C 332.269531 234.132812 334.257812 234.203125 334.175781 234.277344 Z M 177.25 140.808594 L 165.878906 140.34375 L 165.878906 144.320312 L 177.25 144.320312 Z M 181.929688 144.316406 L 209.230469 144.316406 L 209.230469 142.109375 L 178.46875 140.855469 Z M 177.25 155.359375 L 177.25 147.058594 L 167.953125 147.058594 L 167.953125 154.476562 Z M 182.695312 155.875 L 206.761719 158.15625 L 206.023438 147.058594 L 182.253906 147.058594 Z M 185.5 132.003906 C 189.949219 132.132812 202.855469 134.992188 202.855469 134.992188 L 202.855469 132.472656 C 202.855469 132.472656 194.25 129.503906 187.679688 129.058594 C 181.109375 128.613281 173.488281 131.730469 173.488281 131.730469 L 173.488281 134.003906 C 173.488281 134.003906 181.050781 131.878906 185.5 132.003906 Z M 185.5 132.003906 " fill-opacity="1" fill-rule="nonzero"/></g><g clip-path="url(#50fe8d6fa4)"><path fill="#937745" d="M 226.074219 196.5625 L 225.9375 191.828125 L 228.011719 192.003906 L 231.976562 192.335938 C 231.976562 192.335938 232.042969 193.925781 232.152344 196.5625 Z M 250.617188 337.199219 C 243.652344 337.203125 225.910156 337.214844 225.910156 337.214844 L 225.910156 199.421875 L 232.269531 199.421875 C 232.910156 214.71875 234.371094 249.464844 234.503906 249.464844 C 234.539062 249.464844 237.367188 249.457031 241.816406 249.445312 C 243.703125 249.441406 245.875 249.433594 248.257812 249.429688 C 248.289062 250.710938 248.332031 251.992188 248.371094 253.277344 L 244.851562 253.285156 C 244.746094 253.5 244.851562 255.335938 244.851562 255.335938 L 248.433594 255.378906 C 248.910156 269.757812 249.75 284.121094 249.691406 298.527344 C 249.632812 311.449219 249.59375 324.359375 250.617188 337.199219 Z M 230.304688 311.636719 L 227.800781 311.636719 L 227.800781 315.988281 L 230.304688 315.988281 Z M 230.304688 303.453125 L 227.800781 303.453125 L 227.800781 307.808594 L 230.304688 307.808594 Z M 230.304688 295.273438 L 227.800781 295.273438 L 227.800781 299.625 L 230.304688 299.625 Z M 230.304688 287.089844 L 227.800781 287.089844 L 227.800781 291.445312 L 230.304688 291.445312 Z M 230.304688 278.910156 L 227.800781 278.910156 L 227.800781 283.261719 L 230.304688 283.261719 Z M 230.304688 270.726562 L 227.800781 270.726562 L 227.800781 275.082031 L 230.304688 275.082031 Z M 230.304688 262.546875 L 227.800781 262.546875 L 227.800781 266.898438 L 230.304688 266.898438 Z M 230.304688 254.363281 L 227.800781 254.363281 L 227.800781 258.714844 L 230.304688 258.714844 Z M 230.304688 246.179688 L 227.800781 246.179688 L 227.800781 250.535156 L 230.304688 250.535156 Z M 230.304688 238 L 227.800781 238 L 227.800781 242.351562 L 230.304688 242.351562 Z M 230.304688 229.816406 L 227.800781 229.816406 L 227.800781 234.171875 L 230.304688 234.171875 Z M 230.304688 221.636719 L 227.800781 221.636719 L 227.800781 225.988281 L 230.304688 225.988281 Z M 230.304688 213.453125 L 227.800781 213.453125 L 227.800781 217.804688 L 230.304688 217.804688 Z M 230.304688 205.273438 L 227.800781 205.273438 L 227.800781 209.625 L 230.304688 209.625 Z M 243.078125 324.414062 L 235.53125 324.414062 L 235.53125 329.917969 L 243.078125 329.917969 Z M 243.078125 314.074219 L 235.53125 314.074219 L 235.53125 319.574219 L 243.078125 319.574219 Z M 243.078125 303.730469 L 235.53125 303.730469 L 235.53125 309.234375 L 243.078125 309.234375 Z M 243.078125 293.386719 L 235.53125 293.386719 L 235.53125 298.890625 L 243.078125 298.890625 Z M 243.078125 283.046875 L 235.53125 283.046875 L 235.53125 288.550781 L 243.078125 288.550781 Z M 243.078125 272.703125 L 235.53125 272.703125 L 235.53125 278.207031 L 243.078125 278.207031 Z M 243.078125 262.363281 L 235.53125 262.363281 L 235.53125 267.863281 L 243.078125 267.863281 Z M 146.3125 323.011719 C 146.3125 323.011719 146.425781 336.0625 146.402344 337.257812 C 108.464844 337.273438 73.507812 337.269531 49.972656 337.238281 C 50.21875 321.761719 50.558594 306.292969 51.542969 290.835938 C 52.515625 275.601562 52.1875 260.332031 52.621094 245.082031 L 53.507812 245.082031 L 57.066406 247.453125 L 65.703125 246.808594 L 76.925781 255.765625 L 92.054688 255.765625 C 95.945312 258.097656 99.789062 260.269531 103.621094 262.363281 L 97.191406 262.363281 L 97.191406 267.863281 L 104.742188 267.863281 L 104.742188 262.972656 C 107.304688 264.363281 109.859375 265.726562 112.421875 267.074219 L 112.421875 267.863281 L 113.925781 267.863281 C 118.679688 270.363281 123.457031 272.851562 128.316406 275.472656 L 128.316406 278.207031 L 133.324219 278.207031 C 135.929688 279.648438 138.5625 281.144531 141.238281 282.714844 C 141.144531 289.175781 140.710938 308.429688 140.710938 308.429688 Z M 61.65625 323.734375 L 59.15625 323.734375 L 59.15625 329.917969 L 61.65625 329.917969 Z M 61.65625 312.113281 L 59.15625 312.113281 L 59.15625 318.292969 L 61.65625 318.292969 Z M 61.65625 300.488281 L 59.15625 300.488281 L 59.15625 306.671875 L 61.65625 306.671875 Z M 61.65625 288.867188 L 59.15625 288.867188 L 59.15625 295.050781 L 61.65625 295.050781 Z M 61.65625 277.246094 L 59.15625 277.246094 L 59.15625 283.429688 L 61.65625 283.429688 Z M 61.65625 265.625 L 59.15625 265.625 L 59.15625 271.808594 L 61.65625 271.808594 Z M 61.65625 254 L 59.15625 254 L 59.15625 260.183594 L 61.65625 260.183594 Z M 89.515625 324.414062 L 81.964844 324.414062 L 81.964844 329.917969 L 89.515625 329.917969 Z M 89.515625 314.074219 L 81.964844 314.074219 L 81.964844 319.574219 L 89.515625 319.574219 Z M 89.515625 303.730469 L 81.964844 303.730469 L 81.964844 309.234375 L 89.515625 309.234375 Z M 89.515625 293.386719 L 81.964844 293.386719 L 81.964844 298.890625 L 89.515625 298.890625 Z M 89.515625 283.046875 L 81.964844 283.046875 L 81.964844 288.550781 L 89.515625 288.550781 Z M 89.515625 272.703125 L 81.964844 272.703125 L 81.964844 278.207031 L 89.515625 278.207031 Z M 89.515625 262.363281 L 81.964844 262.363281 L 81.964844 267.863281 L 89.515625 267.863281 Z M 104.742188 324.414062 L 97.191406 324.414062 L 97.191406 329.917969 L 104.742188 329.917969 Z M 104.742188 314.074219 L 97.191406 314.074219 L 97.191406 319.574219 L 104.742188 319.574219 Z M 104.742188 303.730469 L 97.191406 303.730469 L 97.191406 309.234375 L 104.742188 309.234375 Z M 104.742188 293.386719 L 97.191406 293.386719 L 97.191406 298.890625 L 104.742188 298.890625 Z M 104.742188 283.046875 L 97.191406 283.046875 L 97.191406 288.550781 L 104.742188 288.550781 Z M 104.742188 272.703125 L 97.191406 272.703125 L 97.191406 278.207031 L 104.742188 278.207031 Z M 119.972656 324.414062 L 112.421875 324.414062 L 112.421875 329.917969 L 119.972656 329.917969 Z M 119.972656 314.074219 L 112.421875 314.074219 L 112.421875 319.574219 L 119.972656 319.574219 Z M 119.972656 303.730469 L 112.421875 303.730469 L 112.421875 309.234375 L 119.972656 309.234375 Z M 119.972656 293.386719 L 112.421875 293.386719 L 112.421875 298.890625 L 119.972656 298.890625 Z M 119.972656 283.046875 L 112.421875 283.046875 L 112.421875 288.550781 L 119.972656 288.550781 Z M 119.972656 272.703125 L 112.421875 272.703125 L 112.421875 278.207031 L 119.972656 278.207031 Z M 135.871094 324.414062 L 128.320312 324.414062 L 128.320312 329.917969 L 135.871094 329.917969 Z M 135.871094 314.074219 L 128.320312 314.074219 L 128.320312 319.574219 L 135.871094 319.574219 Z M 135.871094 303.730469 L 128.320312 303.730469 L 128.320312 309.234375 L 135.871094 309.234375 Z M 135.871094 293.386719 L 128.320312 293.386719 L 128.320312 298.890625 L 135.871094 298.890625 Z M 135.871094 283.046875 L 128.320312 283.046875 L 128.320312 288.550781 L 135.871094 288.550781 Z M 57.390625 244.648438 L 65.054688 245.296875 L 78.328125 253.175781 C 78.328125 253.175781 82.238281 253.214844 87.953125 253.265625 C 86.660156 252.457031 85.363281 251.636719 84.058594 250.785156 C 83.21875 250.242188 81.515625 248.890625 81.515625 248.890625 C 81.515625 248.890625 79.410156 247.566406 77.570312 246.410156 C 75.179688 244.910156 70.324219 241.085938 70.324219 241.085938 L 59.320312 240.773438 L 57.4375 240.722656 L 55.5 240.070312 L 52.828125 239.175781 C 52.785156 240.246094 52.742188 241.3125 52.703125 242.382812 L 54.046875 242.382812 Z M 192.28125 78.15625 L 192.28125 76.765625 L 190.355469 75.480469 L 189.21875 48.335938 C 187.871094 48.5 186.453125 48.394531 185.21875 48.015625 L 185.21875 75.589844 L 183.5625 76.660156 L 183.5625 78.585938 L 185.21875 83.183594 L 181.902344 84.898438 C 181.902344 84.898438 183.816406 90.824219 184.738281 93.8125 C 185.53125 93.648438 186.417969 93.546875 187.433594 93.5625 C 188.855469 93.585938 190.101562 93.84375 191.191406 94.21875 L 193.457031 84.683594 L 190.78125 83.398438 Z M 170.285156 193.5625 L 168.222656 191.8125 C 168.375 192.480469 168.550781 193.300781 168.550781 193.484375 C 168.550781 193.527344 169.179688 193.550781 170.285156 193.5625 Z M 178.371094 239.273438 C 178.75 246.96875 179.121094 254.585938 179.121094 262.363281 C 179.121094 265.671875 178.988281 269.621094 178.777344 273.773438 C 178.742188 270.996094 178.703125 268.214844 178.667969 265.425781 C 178.3125 265.4375 177.957031 265.433594 177.601562 265.445312 C 177.070312 265.464844 176.53125 265.503906 175.992188 265.539062 C 175.28125 265.585938 174.5625 265.628906 173.839844 265.640625 L 173.839844 284.828125 C 175.269531 284.75 176.695312 284.707031 178.109375 284.679688 C 178.082031 285.074219 178.050781 285.464844 178.023438 285.859375 C 176.636719 285.890625 175.238281 285.929688 173.839844 286.007812 L 173.839844 296.738281 C 171.574219 296.546875 169.277344 296.476562 166.984375 296.351562 C 166.96875 296.074219 166.957031 295.746094 166.949219 295.402344 L 169.203125 295.402344 L 169.203125 291.050781 L 166.917969 291.050781 C 166.925781 289.816406 166.9375 288.511719 166.960938 287.222656 L 169.203125 287.222656 L 169.203125 282.867188 L 167.050781 282.867188 C 167.082031 281.5625 167.117188 280.414062 167.148438 279.589844 C 167.15625 279.40625 167.15625 279.222656 167.164062 279.039062 L 169.203125 279.039062 L 169.203125 274.6875 L 167.214844 274.6875 C 167.203125 273.414062 167.183594 272.136719 167.148438 270.859375 L 169.203125 270.859375 L 169.203125 266.503906 L 167.003906 266.503906 C 166.957031 265.230469 166.910156 263.953125 166.867188 262.675781 L 169.203125 262.675781 L 169.203125 258.324219 L 166.773438 258.324219 C 166.769531 257.769531 166.757812 257.214844 166.757812 256.660156 C 166.757812 255.9375 166.753906 255.214844 166.75 254.492188 L 169.203125 254.492188 L 169.203125 250.140625 L 166.722656 250.140625 C 166.628906 239.421875 166.355469 228.699219 166.363281 217.988281 C 166.367188 214.871094 166.53125 211.777344 166.683594 208.679688 L 165.363281 208.679688 L 165.363281 195.949219 L 167.015625 195.949219 C 167.027344 195.597656 167.03125 195.253906 167.042969 194.917969 L 167.042969 195.949219 L 171.921875 195.949219 L 171.921875 196.351562 L 173.535156 196.335938 L 177.328125 199.566406 C 177.328125 199.566406 177.34375 200.355469 177.351562 201.050781 L 173.84375 201.050781 L 173.84375 212.03125 C 175.019531 212.042969 176.214844 212.066406 177.429688 212.09375 C 177.433594 212.484375 177.445312 212.878906 177.453125 213.273438 C 176.230469 213.242188 175.023438 213.21875 173.84375 213.210938 L 173.84375 225.875 C 175.152344 225.871094 176.460938 225.867188 177.785156 225.859375 C 177.796875 226.253906 177.808594 226.644531 177.824219 227.035156 C 176.488281 227.046875 175.164062 227.050781 173.84375 227.054688 L 173.84375 243.242188 C 175.359375 243.222656 176.882812 243.1875 178.410156 243.132812 C 178.394531 241.847656 178.382812 240.558594 178.371094 239.273438 Z M 169.203125 241.957031 L 166.699219 241.957031 L 166.699219 246.3125 L 169.203125 246.3125 Z M 169.203125 233.777344 L 166.699219 233.777344 L 166.699219 238.128906 L 169.203125 238.128906 Z M 169.203125 225.59375 L 166.699219 225.59375 L 166.699219 229.945312 L 169.203125 229.945312 Z M 169.203125 217.414062 L 166.699219 217.414062 L 166.699219 221.765625 L 169.203125 221.765625 Z M 169.203125 209.230469 L 166.699219 209.230469 L 166.699219 213.582031 L 169.203125 213.582031 Z M 178.421875 244.300781 C 176.890625 244.351562 175.367188 244.386719 173.839844 244.410156 L 173.839844 264.464844 C 174.53125 264.453125 175.226562 264.410156 175.910156 264.363281 C 176.464844 264.324219 177.015625 264.289062 177.558594 264.269531 C 177.925781 264.257812 178.285156 264.257812 178.652344 264.246094 C 178.570312 257.621094 178.492188 250.96875 178.421875 244.300781 Z M 182.253906 147.058594 L 182.125 144.515625 L 181.929688 144.316406 L 177.25 139.636719 L 177.25 179.546875 L 183.917969 180.144531 L 182.699219 155.875 Z M 182.253906 147.058594 " fill-opacity="1" fill-rule="nonzero"/></g><g clip-path="url(#5ddf85fe23)"><path fill="#cfa719" d="M 337.78125 194.222656 L 330.875 194.25 L 330.875 193.789062 L 331.886719 193.707031 L 331.886719 191.996094 L 330.496094 188.578125 L 330.496094 187.3125 C 330.496094 187.3125 338.242188 187.207031 338.242188 187.066406 C 338.242188 186.925781 338.382812 188.613281 338.382812 188.613281 L 337.113281 191.78125 L 337.097656 193.707031 Z M 38.289062 188.613281 L 39.558594 191.785156 L 39.574219 193.707031 L 38.890625 194.222656 L 45.796875 194.25 L 45.796875 193.789062 L 44.78125 193.707031 L 44.78125 191.996094 L 46.175781 188.578125 L 46.175781 187.3125 C 46.175781 187.3125 38.429688 187.207031 38.429688 187.066406 C 38.429688 186.925781 38.289062 188.613281 38.289062 188.613281 Z M 194.417969 44.132812 C 194.46875 46.554688 191.996094 48.003906 189.21875 48.335938 C 187.871094 48.5 186.453125 48.394531 185.21875 48.015625 C 183.613281 47.523438 182.320312 46.5625 181.902344 45.09375 C 180.511719 40.171875 184.363281 38.675781 184.363281 38.675781 C 184.363281 38.675781 184.09375 39.601562 184.015625 40.773438 L 186.398438 40.921875 L 187.679688 37.5 L 188.421875 40.816406 L 191.488281 41.359375 C 191.429688 39.925781 190.996094 38.675781 190.996094 38.675781 C 190.996094 38.675781 194.3125 38.996094 194.417969 44.132812 Z M 185.863281 42.527344 L 183.996094 41.351562 C 183.992188 42.710938 184.316406 44.230469 185.59375 45.007812 Z M 189.25 45.308594 L 187.679688 43.546875 L 186.320312 45.328125 C 186.746094 45.460938 187.246094 45.535156 187.835938 45.523438 C 188.382812 45.515625 188.847656 45.4375 189.25 45.308594 Z M 191.488281 41.359375 L 189.285156 42.207031 L 189.703125 45.128906 C 191.21875 44.398438 191.542969 42.789062 191.488281 41.359375 Z M 40.097656 209.007812 C 39.675781 208.875 39.234375 208.792969 38.789062 208.765625 C 37.300781 208.671875 34.976562 209.667969 34.015625 210.816406 C 33.078125 211.933594 32.714844 213.429688 32.796875 214.949219 C 32.839844 215.707031 32.984375 216.472656 33.242188 217.199219 C 33.410156 217.671875 33.628906 218.128906 33.878906 218.558594 C 34.574219 219.75 35.578125 220.707031 36.808594 221.191406 C 37.183594 221.339844 37.570312 221.457031 37.988281 221.507812 C 38.046875 221.511719 38.113281 221.515625 38.171875 221.519531 C 38.96875 221.578125 39.867188 221.441406 40.742188 221.144531 C 41.355469 220.941406 41.949219 220.660156 42.496094 220.320312 C 43.277344 219.835938 43.953125 219.230469 44.390625 218.550781 C 44.476562 218.410156 44.558594 218.269531 44.625 218.125 C 44.769531 217.824219 44.871094 217.511719 44.949219 217.195312 C 45.140625 216.460938 45.167969 215.699219 45.0625 214.949219 C 44.679688 212.304688 42.632812 209.792969 40.097656 209.007812 Z M 342.644531 210.816406 C 341.679688 209.667969 339.359375 208.671875 337.871094 208.765625 C 337.421875 208.792969 336.984375 208.875 336.558594 209.007812 C 334.023438 209.792969 331.976562 212.304688 331.597656 214.949219 C 331.488281 215.699219 331.515625 216.460938 331.707031 217.195312 C 331.789062 217.511719 331.890625 217.824219 332.03125 218.125 C 332.101562 218.269531 332.179688 218.410156 332.269531 218.546875 C 332.707031 219.230469 333.378906 219.835938 334.160156 220.320312 C 334.707031 220.660156 335.304688 220.941406 335.914062 221.144531 C 336.792969 221.441406 337.6875 221.578125 338.484375 221.519531 C 338.546875 221.511719 338.609375 221.511719 338.667969 221.503906 C 339.085938 221.457031 339.472656 221.339844 339.847656 221.191406 C 341.082031 220.707031 342.082031 219.75 342.777344 218.558594 C 343.027344 218.128906 343.246094 217.675781 343.417969 217.195312 C 343.671875 216.46875 343.820312 215.707031 343.859375 214.949219 C 343.941406 213.429688 343.578125 211.933594 342.644531 210.816406 Z M 342.644531 210.816406 " fill-opacity="1" fill-rule="nonzero"/></g></svg>