<svg xmlns="http://www.w3.org/2000/svg" xmlns:xlink="http://www.w3.org/1999/xlink" width="1080" zoomAndPan="magnify" viewBox="0 0 810 809.999993" height="1080" preserveAspectRatio="xMidYMid meet" version="1.0"><defs><clipPath id="3cbb9772f8"><path d="M 81 189 L 729 189 L 729 625.679688 L 81 625.679688 Z M 81 189 " clip-rule="nonzero"/></clipPath></defs><path fill="#f5faff" d="M 677.9375 270.480469 L 677.9375 570.621094 C 677.9375 577.234375 672.496094 582.683594 665.753906 582.683594 L 144.375 582.683594 C 137.636719 582.683594 132.191406 577.234375 132.191406 570.621094 L 132.191406 270.480469 C 132.191406 263.863281 137.636719 258.417969 144.375 258.417969 L 665.753906 258.417969 C 672.496094 258.417969 677.9375 263.863281 677.9375 270.480469 Z M 131.027344 599.933594 C 131.027344 602.011719 132.710938 603.695312 134.785156 603.695312 C 136.859375 603.695312 138.542969 602.011719 138.542969 599.933594 L 138.542969 595.007812 L 131.15625 595.007812 L 131.15625 599.933594 Z M 131.027344 599.933594 " fill-opacity="1" fill-rule="nonzero"/><path fill="#f2a600" d="M 665.886719 481.902344 C 661.738281 444.933594 624.414062 382.027344 579.832031 351.027344 C 579.570312 350.769531 579.183594 350.507812 578.792969 350.378906 C 570.757812 345.710938 538.617188 340.390625 535.117188 339.742188 C 534.859375 339.742188 534.859375 339.742188 534.859375 339.742188 C 534.859375 339.742188 498.183594 356.34375 496.367188 356.34375 C 494.554688 356.34375 465.523438 339.222656 465.523438 339.222656 C 465.394531 339.09375 465.132812 338.964844 464.746094 338.964844 C 458.914062 337.925781 428.199219 348.042969 420.421875 351.546875 C 395.019531 377.617188 369.878906 425.867188 358.863281 448.179688 C 358.863281 448.308594 358.734375 448.4375 358.734375 448.566406 C 357.046875 452.070312 355.621094 454.921875 354.585938 456.867188 C 354.195312 457.777344 352.511719 457.128906 349.53125 456.609375 C 349.53125 456.609375 349.402344 456.609375 349.402344 456.609375 C 327.757812 453.238281 251.425781 437.542969 251.425781 437.542969 L 235.222656 478.527344 C 235.222656 478.527344 322.316406 521.59375 367.933594 521.59375 C 391.523438 521.59375 410.574219 488.90625 421.460938 463.222656 C 421.460938 463.613281 421.460938 464.132812 421.460938 464.519531 C 421.460938 465.300781 421.460938 465.949219 421.460938 466.726562 C 421.460938 469.578125 421.328125 472.5625 421.328125 475.417969 C 421.328125 476.195312 421.328125 477.101562 421.328125 477.878906 C 421.199219 481.125 421.199219 484.496094 421.070312 487.738281 C 420.941406 490.980469 420.8125 494.351562 420.679688 497.726562 C 420.679688 499.410156 420.550781 501.097656 420.421875 502.65625 C 419.125 531.058594 416.664062 559.207031 411.867188 582.683594 L 580.996094 582.683594 C 581.125 581.90625 581.125 581.128906 581.257812 580.21875 C 609.769531 563.226562 670.421875 522.242188 665.886719 481.902344 Z M 604.324219 485.273438 C 601.472656 490.980469 594.085938 500.96875 585.53125 511.34375 C 585.53125 511.214844 585.53125 511.085938 585.53125 511.085938 C 585.664062 505.117188 585.792969 499.152344 585.921875 493.1875 C 586.050781 481.253906 586.179688 469.320312 586.050781 457.777344 C 586.050781 453.367188 585.921875 448.957031 585.921875 444.546875 C 594.085938 458.035156 603.804688 474.378906 605.230469 480.214844 C 605.363281 480.605469 605.363281 480.992188 605.363281 481.253906 C 605.621094 482.289062 605.230469 483.585938 604.324219 485.273438 Z M 615.988281 281.765625 L 603.804688 281.765625 L 603.804688 269.832031 L 615.988281 269.832031 Z M 639.445312 281.765625 L 627.265625 281.765625 L 627.265625 269.832031 L 639.445312 269.832031 Z M 663.035156 281.765625 L 650.851562 281.765625 L 650.851562 269.832031 L 663.035156 269.832031 Z M 259.589844 280.46875 L 172.628906 280.46875 C 169.386719 280.46875 166.796875 277.871094 166.796875 274.628906 C 166.796875 271.386719 169.386719 268.792969 172.628906 268.792969 L 259.589844 268.792969 C 262.828125 268.792969 265.421875 271.386719 265.421875 274.628906 C 265.550781 277.871094 262.828125 280.46875 259.589844 280.46875 Z M 113.53125 594.875 L 120.917969 594.875 L 120.917969 599.804688 C 120.917969 601.878906 119.230469 603.566406 117.160156 603.566406 C 115.085938 603.566406 113.398438 601.878906 113.398438 599.804688 L 113.398438 594.875 Z M 113.53125 594.875 " fill-opacity="1" fill-rule="nonzero"/><path fill="#465c75" d="M 496.496094 356.214844 C 496.496094 356.214844 479.261719 366.722656 478.09375 365.8125 C 477.058594 365.035156 466.691406 342.726562 464.875 338.835938 C 465.132812 338.835938 465.394531 338.964844 465.652344 339.09375 C 465.652344 339.222656 494.683594 356.214844 496.496094 356.214844 Z M 534.859375 339.742188 C 534.859375 339.742188 498.183594 356.34375 496.367188 356.34375 C 496.367188 356.34375 513.734375 367.757812 514.511719 367.628906 C 515.160156 367.371094 531.488281 344.929688 535.117188 339.871094 C 534.988281 339.742188 534.859375 339.742188 534.859375 339.742188 Z M 497.015625 372.949219 C 495.203125 372.949219 493.644531 374.503906 493.644531 376.320312 C 493.644531 378.136719 495.203125 379.691406 497.015625 379.691406 C 498.832031 379.691406 500.386719 378.136719 500.386719 376.320312 C 500.386719 374.503906 498.832031 372.949219 497.015625 372.949219 Z M 497.015625 391.367188 C 495.203125 391.367188 493.644531 392.921875 493.644531 394.738281 C 493.644531 396.554688 495.203125 398.109375 497.015625 398.109375 C 498.832031 398.109375 500.386719 396.554688 500.386719 394.738281 C 500.386719 392.921875 498.832031 391.367188 497.015625 391.367188 Z M 497.015625 409.914062 C 495.203125 409.914062 493.644531 411.472656 493.644531 413.285156 C 493.644531 415.101562 495.203125 416.660156 497.015625 416.660156 C 498.832031 416.660156 500.386719 415.101562 500.386719 413.285156 C 500.386719 411.472656 498.832031 409.914062 497.015625 409.914062 Z M 693.101562 263.605469 L 693.101562 594.875 L 117.160156 594.875 L 117.160156 263.605469 C 117.160156 251.28125 127.136719 241.296875 139.449219 241.296875 L 670.9375 241.296875 C 683.25 241.425781 693.101562 251.414062 693.101562 263.605469 Z M 677.9375 270.480469 C 677.9375 263.863281 672.496094 258.417969 665.753906 258.417969 L 144.375 258.417969 C 137.636719 258.417969 132.191406 263.863281 132.191406 270.480469 L 132.191406 570.621094 C 132.191406 577.234375 137.636719 582.683594 144.375 582.683594 L 665.753906 582.683594 C 672.496094 582.683594 677.9375 577.234375 677.9375 570.621094 Z M 463.320312 606.808594 L 346.808594 606.808594 C 344.347656 606.808594 342.273438 608.367188 342.273438 610.183594 C 342.273438 612.128906 344.347656 613.554688 346.808594 613.554688 L 463.320312 613.554688 C 465.78125 613.554688 467.855469 611.996094 467.855469 610.183594 C 467.855469 608.367188 465.78125 606.808594 463.320312 606.808594 Z M 463.320312 606.808594 " fill-opacity="1" fill-rule="nonzero"/><path fill="#ffbe9c" d="M 563.242188 580.867188 C 563.113281 580.996094 562.980469 581.128906 562.851562 581.257812 L 562.722656 581.386719 C 562.335938 581.777344 561.945312 582.164062 561.558594 582.683594 L 518.269531 582.683594 C 524.878906 577.496094 530.453125 573.476562 530.324219 573.085938 C 529.933594 572.046875 504.792969 585.148438 514.125 575.160156 C 528.121094 560.246094 535.246094 559.726562 540.5625 558.167969 C 543.28125 557.390625 546.910156 555.316406 549.894531 553.371094 L 550.671875 554.925781 Z M 201.65625 410.691406 C 201.398438 418.863281 213.582031 428.074219 213.453125 429.5 C 213.320312 430.925781 172.628906 426.644531 163.296875 424.441406 C 153.964844 422.238281 161.09375 443.636719 185.585938 456.738281 C 205.804688 467.503906 225.894531 461.148438 234.964844 465.167969 C 236.648438 465.949219 238.203125 466.597656 239.628906 467.113281 L 250.644531 439.097656 C 244.8125 437.023438 237.816406 434.429688 235.09375 432.355469 C 230.945312 429.242188 201.789062 403.949219 201.65625 410.691406 Z M 534.859375 339.742188 C 534.859375 339.742188 498.183594 356.34375 496.367188 356.34375 C 494.554688 356.34375 465.523438 339.222656 465.523438 339.222656 C 467.335938 337.277344 469.671875 334.683594 471.875 331.050781 C 473.429688 328.457031 474.855469 325.214844 476.019531 321.453125 C 462.414062 317.824219 453.988281 307.058594 452.433594 295.511719 C 450.359375 281.375 452.042969 228.066406 452.433594 224.042969 C 454.507812 205.886719 535.894531 213.019531 535.894531 221.0625 C 535.894531 224.953125 534.730469 237.792969 533.175781 251.929688 C 535.378906 249.46875 538.617188 247.652344 543.023438 249.207031 C 551.1875 252.191406 544.0625 267.367188 541.988281 271.386719 C 540.042969 275.148438 537.191406 280.726562 530.0625 280.597656 C 529.546875 284.875 529.15625 288.769531 528.769531 291.621094 C 528.378906 295.125 526.953125 298.496094 525.007812 301.609375 C 523.066406 315.226562 525.007812 324.046875 528.769531 331.050781 C 530.453125 334.164062 532.527344 337.019531 534.859375 339.742188 Z M 475.113281 280.335938 C 475.113281 287.859375 481.203125 290.84375 486.390625 290.84375 C 497.273438 290.84375 498.570312 280.078125 497.535156 280.335938 C 485.351562 283.710938 475.113281 279.300781 475.113281 280.335938 Z M 497.40625 321.066406 C 497.535156 321.066406 497.664062 320.933594 497.921875 320.933594 C 497.664062 320.933594 497.535156 320.933594 497.40625 321.066406 Z M 494.292969 321.714844 C 494.425781 321.714844 494.683594 321.714844 494.8125 321.582031 C 494.683594 321.714844 494.554688 321.714844 494.292969 321.714844 Z M 491.703125 322.234375 C 491.832031 322.234375 491.960938 322.234375 492.089844 322.234375 C 491.960938 322.101562 491.832031 322.234375 491.703125 322.234375 Z M 488.59375 322.492188 C 488.722656 322.492188 488.980469 322.492188 489.109375 322.492188 C 488.980469 322.492188 488.722656 322.492188 488.59375 322.492188 Z M 478.613281 321.972656 C 478.484375 321.972656 478.355469 321.972656 478.222656 321.84375 C 478.355469 321.84375 478.484375 321.84375 478.613281 321.972656 Z M 480.945312 322.234375 C 480.816406 322.234375 480.816406 322.234375 480.945312 322.234375 C 480.816406 322.234375 480.816406 322.234375 480.945312 322.234375 Z M 483.667969 322.492188 C 483.539062 322.492188 483.277344 322.492188 483.148438 322.492188 C 483.277344 322.492188 483.539062 322.492188 483.667969 322.492188 Z M 500.386719 320.027344 C 500.257812 320.027344 500.257812 320.027344 500.125 320.15625 C 500.257812 320.15625 500.386719 320.15625 500.386719 320.027344 Z M 503.367188 318.988281 C 503.238281 319.121094 503.105469 319.121094 502.847656 319.25 C 503.105469 319.121094 503.238281 318.988281 503.367188 318.988281 Z M 508.679688 316.394531 C 508.550781 316.523438 508.421875 316.523438 508.292969 316.65625 C 508.421875 316.523438 508.550781 316.394531 508.679688 316.394531 Z M 511.140625 314.96875 C 511.140625 314.96875 511.011719 314.96875 511.140625 314.96875 C 511.011719 314.96875 511.140625 314.96875 511.140625 314.96875 Z M 513.605469 313.28125 C 513.476562 313.28125 513.476562 313.414062 513.34375 313.414062 C 513.476562 313.414062 513.476562 313.414062 513.605469 313.28125 Z M 515.9375 311.46875 C 515.9375 311.46875 515.808594 311.597656 515.808594 311.597656 C 515.808594 311.597656 515.808594 311.597656 515.9375 311.46875 Z M 520.085938 307.707031 C 520.085938 307.707031 519.957031 307.835938 519.957031 307.835938 C 519.957031 307.835938 520.085938 307.835938 520.085938 307.707031 Z M 523.453125 303.8125 C 523.453125 303.8125 523.585938 303.683594 523.585938 303.683594 C 523.585938 303.683594 523.585938 303.683594 523.453125 303.8125 Z M 523.453125 303.8125 " fill-opacity="1" fill-rule="nonzero"/><g clip-path="url(#3cbb9772f8)"><path fill="#232b36" d="M 503.886719 247.78125 C 499.738281 247.261719 495.332031 247.78125 496.367188 246.222656 C 497.40625 244.796875 500.386719 243.890625 505.828125 245.058594 C 511.140625 246.222656 512.566406 248.039062 512.4375 248.949219 C 512.179688 250.117188 510.625 248.6875 503.886719 247.78125 Z M 477.058594 245.964844 C 476.019531 244.539062 472.910156 243.761719 467.597656 245.058594 C 462.28125 246.355469 460.988281 248.300781 461.117188 249.207031 C 461.375 250.375 462.800781 248.949219 469.539062 247.78125 C 473.6875 247.003906 478.222656 247.390625 477.058594 245.964844 Z M 500.257812 256.859375 C 500.257812 259.195312 501.8125 261.011719 503.753906 261.011719 C 505.699219 261.011719 507.253906 259.195312 507.253906 256.859375 C 507.253906 254.527344 505.699219 252.710938 503.753906 252.710938 C 501.8125 252.710938 500.257812 254.65625 500.257812 256.859375 Z M 468.894531 260.75 C 470.835938 260.75 472.390625 258.933594 472.390625 256.601562 C 472.390625 254.265625 470.835938 252.449219 468.894531 252.449219 C 466.949219 252.449219 465.394531 254.265625 465.394531 256.601562 C 465.394531 258.933594 466.949219 260.75 468.894531 260.75 Z M 481.851562 265.941406 C 481.980469 265.808594 482.242188 265.679688 482.371094 265.550781 C 484.964844 263.214844 486.648438 254.394531 487.683594 249.726562 C 487.945312 248.558594 488.203125 247.390625 488.203125 247.261719 C 488.332031 246.871094 488.203125 246.484375 487.8125 246.355469 C 487.425781 246.222656 487.035156 246.355469 486.90625 246.742188 C 486.777344 247.003906 486.648438 247.78125 486.257812 249.46875 C 485.351562 253.746094 483.667969 262.566406 481.464844 264.511719 C 481.335938 264.644531 481.074219 264.773438 480.945312 264.902344 C 479.132812 266.589844 476.539062 268.921875 477.964844 271.777344 C 478.613281 273.074219 480.558594 273.722656 481.980469 273.980469 C 482.890625 274.109375 484.054688 274.242188 485.09375 274.242188 C 487.167969 274.242188 489.109375 273.851562 489.886719 273.203125 C 490.148438 272.945312 490.148438 272.554688 489.886719 272.164062 C 489.628906 271.90625 489.238281 271.90625 488.851562 272.164062 C 488.332031 272.683594 484.964844 273.074219 482.113281 272.554688 C 480.558594 272.296875 479.390625 271.777344 479.132812 271.128906 C 478.222656 269.3125 479.648438 267.753906 481.851562 265.941406 Z M 524.878906 301.738281 C 517.492188 313.414062 501.164062 322.621094 486 322.621094 C 482.371094 322.621094 479.132812 322.234375 476.019531 321.324219 C 474.984375 325.085938 473.429688 328.328125 471.875 330.921875 C 511.660156 339.484375 524.878906 301.867188 524.878906 301.738281 Z M 445.433594 229.101562 C 445.175781 237.792969 449.0625 257.636719 451.527344 263.863281 C 451.527344 251.800781 451.914062 239.480469 452.175781 231.695312 C 453.601562 232.214844 455.027344 232.605469 456.582031 232.996094 C 467.726562 235.976562 477.964844 225.988281 494.292969 232.996094 C 501.941406 236.367188 511.789062 228.84375 515.679688 231.957031 C 520.734375 235.976562 517.753906 248.039062 522.804688 253.097656 C 529.933594 260.101562 525.917969 274.242188 527.859375 274.242188 C 529.933594 274.242188 531.101562 255.691406 532.914062 253.097656 C 535.636719 249.46875 541.078125 247.78125 543.152344 249.078125 C 545.097656 250.375 547.171875 213.925781 540.042969 205.886719 C 536.285156 201.605469 530.839844 197.84375 522.675781 199.789062 C 514.511719 201.863281 500.257812 184.742188 476.796875 190.710938 C 453.339844 196.804688 457.488281 206.535156 439.085938 207.832031 C 427.03125 208.738281 427.421875 220.800781 445.433594 229.101562 Z M 452.042969 292.140625 L 132.191406 292.140625 L 132.191406 294.734375 L 452.304688 294.734375 C 452.304688 293.957031 452.175781 293.179688 452.042969 292.140625 Z M 677.9375 292.140625 L 528.636719 292.140625 C 528.507812 293.046875 528.25 293.828125 527.992188 294.734375 L 677.808594 294.734375 L 677.808594 292.140625 Z M 585.921875 444.675781 C 580.609375 435.855469 575.941406 428.203125 574.644531 425.480469 L 586.050781 457.90625 C 586.050781 453.367188 586.050781 448.957031 585.921875 444.675781 Z M 574.386719 424.441406 Z M 585.664062 502.65625 L 549.632812 552.59375 C 550.152344 552.074219 569.59375 530.800781 585.53125 511.476562 C 585.53125 509.140625 585.664062 506.675781 585.664062 502.65625 Z M 550.671875 554.539062 L 550.023438 553.242188 Z M 420.421875 502.65625 L 431.4375 434.949219 C 430.402344 439.359375 426.902344 450.382812 421.460938 463.222656 C 421.328125 476.066406 420.941406 489.425781 420.421875 502.65625 Z M 729 597.730469 C 729 613.164062 716.558594 625.617188 701.136719 625.617188 L 108.863281 625.617188 C 93.441406 625.617188 81 613.164062 81 597.730469 C 81 596.171875 82.296875 594.875 83.851562 594.875 L 113.398438 594.875 L 113.398438 599.804688 C 113.398438 601.878906 115.085938 603.566406 117.160156 603.566406 C 119.230469 603.566406 120.917969 601.878906 120.917969 599.804688 L 120.917969 594.875 L 131.027344 594.875 L 131.027344 599.804688 C 131.027344 601.878906 132.710938 603.566406 134.785156 603.566406 C 136.859375 603.566406 138.542969 601.878906 138.542969 599.804688 L 138.542969 594.875 L 726.148438 594.875 C 727.703125 594.875 729 596.171875 729 597.730469 Z M 467.855469 610.3125 C 467.855469 608.367188 465.78125 606.9375 463.320312 606.9375 L 346.808594 606.9375 C 344.347656 606.9375 342.273438 608.496094 342.273438 610.3125 C 342.273438 612.257812 344.347656 613.683594 346.808594 613.683594 L 463.320312 613.683594 C 465.78125 613.683594 467.855469 612.128906 467.855469 610.3125 Z M 467.855469 610.3125 " fill-opacity="1" fill-rule="nonzero"/></g></svg>