<svg xmlns="http://www.w3.org/2000/svg" xmlns:xlink="http://www.w3.org/1999/xlink" width="500" zoomAndPan="magnify" viewBox="0 0 375 374.999991" height="500" preserveAspectRatio="xMidYMid meet" version="1.0"><defs><clipPath id="6204380ec2"><path d="M 37.5 65.625 L 337.5 65.625 L 337.5 309.375 L 37.5 309.375 Z M 37.5 65.625 " clip-rule="nonzero"/></clipPath><clipPath id="579c81ee1e"><path d="M 301.269531 199.855469 C 301.269531 189.832031 309.382812 181.765625 319.410156 181.765625 C 329.433594 181.765625 337.5 189.878906 337.5 199.855469 C 337.5 209.882812 329.386719 217.949219 319.410156 217.949219 C 316.285156 217.949219 313.300781 217.15625 310.734375 215.757812 L 297.679688 234.964844 C 300.757812 237.671875 302.714844 241.632812 302.714844 246.109375 C 302.714844 254.269531 296.09375 260.890625 287.933594 260.890625 C 279.777344 260.890625 273.15625 254.269531 273.15625 246.109375 C 273.15625 240.515625 276.277344 235.621094 280.894531 233.148438 L 277.210938 223.824219 C 276.371094 224.007812 275.484375 224.101562 274.601562 224.101562 C 268.117188 224.101562 262.894531 218.832031 262.894531 212.398438 C 262.894531 205.917969 268.164062 200.648438 274.601562 200.648438 C 275.671875 200.648438 276.746094 200.789062 277.722656 201.070312 L 285.324219 184.1875 C 283.457031 182.742188 282.246094 180.507812 282.246094 177.988281 C 282.246094 173.652344 285.742188 170.15625 290.078125 170.15625 C 291.992188 170.15625 293.71875 170.808594 295.070312 171.972656 L 308.683594 161.621094 C 307.707031 159.851562 307.144531 157.75 307.144531 155.558594 C 307.144531 151.921875 308.730469 148.613281 311.203125 146.328125 L 302.808594 133.972656 C 301.222656 134.71875 299.453125 135.136719 297.585938 135.136719 C 293.203125 135.136719 289.378906 132.804688 287.28125 129.355469 L 274.507812 134.71875 C 274.507812 134.90625 274.554688 135.089844 274.554688 135.230469 C 274.554688 138.167969 272.410156 140.59375 269.609375 141.058594 L 267.886719 153.460938 C 272.175781 154.8125 275.253906 158.824219 275.253906 163.535156 C 275.253906 169.363281 270.496094 174.117188 264.667969 174.117188 C 260.75 174.117188 257.347656 171.972656 255.484375 168.800781 L 240.328125 174.398438 C 240.328125 174.445312 240.328125 174.492188 240.328125 174.585938 C 240.328125 177.707031 237.8125 180.226562 234.6875 180.226562 C 234.359375 180.226562 233.988281 180.179688 233.660156 180.132812 L 225.96875 194.121094 C 226.898438 194.960938 227.691406 195.984375 228.207031 197.152344 L 249.46875 192.675781 C 249.792969 189.878906 252.171875 187.6875 255.0625 187.6875 C 258.1875 187.6875 260.703125 190.203125 260.703125 193.328125 C 260.703125 196.21875 258.511719 198.597656 255.714844 198.921875 L 249.46875 228.765625 C 256.089844 230.910156 260.84375 237.113281 260.84375 244.433594 C 260.84375 253.523438 253.476562 260.9375 244.339844 260.9375 C 244.058594 260.9375 243.777344 260.9375 243.5 260.9375 L 241.027344 276.230469 C 243.265625 277.257812 244.851562 279.542969 244.851562 282.199219 C 244.851562 285.183594 242.894531 287.65625 240.1875 288.496094 L 240.421875 300.058594 C 242.148438 300.710938 243.40625 302.4375 243.40625 304.394531 C 243.40625 306.960938 241.308594 309.058594 238.742188 309.058594 C 236.179688 309.058594 234.082031 306.960938 234.082031 304.394531 C 234.082031 303.929688 234.175781 303.460938 234.3125 302.996094 L 226.152344 296.1875 C 225.128906 296.886719 223.871094 297.308594 222.46875 297.308594 C 218.878906 297.308594 215.988281 294.417969 215.988281 290.824219 C 215.988281 288.261719 217.480469 286.070312 219.625 284.996094 L 218.226562 277.257812 C 218.132812 277.257812 217.996094 277.257812 217.902344 277.257812 C 211.375 277.257812 206.058594 271.941406 206.058594 265.414062 C 206.058594 258.886719 211.375 253.570312 217.902344 253.570312 C 221.023438 253.570312 223.824219 254.78125 225.921875 256.742188 L 230.445312 253.152344 C 228.8125 250.585938 227.878906 247.601562 227.878906 244.339844 C 227.878906 241.214844 228.765625 238.277344 230.304688 235.757812 L 218.738281 226.898438 C 217.855469 227.507812 216.78125 227.878906 215.617188 227.878906 C 214.355469 227.878906 213.191406 227.460938 212.257812 226.761719 L 204.9375 231.84375 C 206.242188 234.21875 206.945312 236.925781 206.945312 239.816406 C 206.945312 249.046875 199.484375 256.507812 190.25 256.507812 C 182.417969 256.507812 175.890625 251.144531 174.070312 243.871094 L 161.574219 245.597656 C 161.433594 251.519531 156.585938 256.273438 150.617188 256.273438 C 144.554688 256.273438 139.660156 251.378906 139.660156 245.316406 C 139.660156 239.257812 144.554688 234.359375 150.617188 234.359375 C 151.738281 234.359375 152.808594 234.546875 153.789062 234.828125 L 167.125 207.828125 C 163.71875 205.542969 161.386719 201.816406 160.96875 197.523438 L 149.964844 197.152344 C 149.171875 199.203125 147.214844 200.648438 144.882812 200.648438 C 144.277344 200.648438 143.71875 200.554688 143.15625 200.367188 L 134.34375 211.792969 C 137.097656 214.496094 138.773438 218.226562 138.773438 222.378906 C 138.773438 230.582031 132.105469 237.25 123.898438 237.25 C 117 237.25 111.171875 232.496094 109.492188 226.105469 L 99.28125 227.460938 C 99.09375 233.289062 94.292969 237.996094 88.417969 237.996094 C 82.402344 237.996094 77.554688 233.148438 77.554688 227.132812 C 77.554688 221.445312 81.9375 216.78125 87.53125 216.316406 L 88.511719 204.378906 C 86.550781 203.539062 85.199219 201.582031 85.199219 199.296875 C 85.199219 196.265625 87.671875 193.746094 90.75 193.746094 C 91.449219 193.746094 92.054688 193.886719 92.660156 194.074219 L 113.503906 168.429688 C 112.988281 167.589844 112.664062 166.5625 112.664062 165.492188 C 112.664062 164 113.269531 162.648438 114.203125 161.667969 L 110.984375 155.421875 C 109.351562 156.027344 107.628906 156.351562 105.808594 156.351562 C 103.199219 156.351562 100.726562 155.652344 98.628906 154.488281 L 86.085938 171.878906 C 87.390625 173.324219 88.183594 175.285156 88.183594 177.429688 C 88.183594 181.996094 84.453125 185.726562 79.882812 185.726562 C 78.953125 185.726562 78.019531 185.589844 77.179688 185.261719 L 64.078125 206.617188 C 67.0625 209.042969 68.925781 212.726562 68.925781 216.875 C 68.925781 224.195312 63.003906 230.117188 55.683594 230.117188 C 48.363281 230.117188 42.441406 224.195312 42.441406 216.875 C 42.441406 210.90625 46.40625 205.871094 51.816406 204.191406 L 50.789062 197.898438 C 50.695312 197.898438 50.648438 197.898438 50.554688 197.898438 C 43.746094 197.898438 38.246094 192.394531 38.246094 185.589844 C 38.246094 178.828125 43.703125 173.324219 50.460938 173.277344 L 51.207031 167.824219 C 43.328125 165.910156 37.453125 158.777344 37.453125 150.292969 C 37.453125 140.359375 45.519531 132.292969 55.453125 132.292969 C 63.703125 132.292969 70.699219 137.84375 72.796875 145.441406 L 90.933594 142.226562 C 90.933594 141.945312 90.933594 141.710938 90.933594 141.433594 C 90.933594 138.914062 91.585938 136.535156 92.660156 134.4375 L 79.277344 125.066406 C 77.785156 126.464844 75.78125 127.304688 73.589844 127.304688 C 68.972656 127.304688 65.195312 123.527344 65.195312 118.910156 C 65.195312 114.296875 68.972656 110.519531 73.589844 110.519531 C 78.207031 110.519531 81.980469 114.296875 81.980469 118.910156 C 81.980469 120.078125 81.75 121.148438 81.328125 122.128906 L 94.710938 131.5 C 96.625 129.355469 99.1875 127.769531 102.03125 127.023438 L 101.984375 113.457031 C 96.949219 112.617188 93.125 108.28125 93.125 103.011719 C 93.125 97.183594 97.882812 92.425781 103.710938 92.425781 C 107.160156 92.425781 110.191406 94.058594 112.105469 96.578125 L 129.03125 87.71875 C 128.609375 86.457031 128.375 85.152344 128.375 83.753906 C 128.375 77.085938 133.785156 71.632812 140.5 71.632812 C 147.167969 71.632812 152.621094 77.039062 152.621094 83.753906 C 152.621094 88.183594 150.246094 92.101562 146.65625 94.199219 L 152.25 108 C 153.136719 107.8125 154.023438 107.675781 155 107.675781 C 157.191406 107.675781 159.289062 108.28125 161.0625 109.351562 L 173.746094 93.964844 C 170.855469 90.980469 169.035156 86.925781 169.035156 82.449219 C 169.035156 73.355469 176.402344 65.941406 185.542969 65.941406 C 194.632812 65.941406 202.046875 73.308594 202.046875 82.449219 C 202.046875 86.503906 200.554688 90.234375 198.132812 93.078125 L 210.71875 106.320312 C 211.464844 105.949219 212.304688 105.761719 213.191406 105.761719 C 213.425781 105.761719 213.65625 105.761719 213.84375 105.808594 L 220.558594 91.308594 C 217.808594 89.394531 215.988281 86.226562 215.988281 82.589844 C 215.988281 76.761719 220.746094 72.003906 226.574219 72.003906 C 232.402344 72.003906 237.15625 76.761719 237.15625 82.589844 C 237.15625 83.894531 236.925781 85.152344 236.503906 86.273438 L 247.183594 92.472656 C 249.839844 88.976562 254.082031 86.691406 258.792969 86.691406 C 266.859375 86.691406 273.386719 93.21875 273.386719 101.285156 C 273.386719 103.246094 273.015625 105.109375 272.316406 106.789062 L 288.074219 115.601562 C 290.265625 112.757812 293.71875 110.890625 297.632812 110.890625 C 304.300781 110.890625 309.710938 116.300781 309.710938 122.96875 C 309.710938 126.464844 308.21875 129.636719 305.839844 131.828125 L 314.234375 144.183594 C 315.863281 143.390625 317.730469 142.925781 319.6875 142.925781 C 326.589844 142.925781 332.183594 148.519531 332.183594 155.421875 C 332.183594 162.320312 326.589844 167.917969 319.6875 167.917969 C 316.285156 167.917969 313.160156 166.5625 310.921875 164.328125 L 297.308594 174.675781 C 297.726562 175.65625 297.960938 176.730469 297.960938 177.847656 C 297.960938 182.183594 294.464844 185.679688 290.125 185.679688 C 289.613281 185.679688 289.101562 185.636719 288.632812 185.542969 L 281.035156 202.421875 C 284.25 204.519531 286.394531 208.15625 286.394531 212.257812 C 286.394531 216.546875 284.066406 220.324219 280.613281 222.378906 L 284.296875 231.703125 C 285.511719 231.375 286.722656 231.238281 288.027344 231.238281 C 290.453125 231.238281 292.785156 231.84375 294.789062 232.867188 L 307.84375 213.65625 C 303.882812 210.347656 301.363281 205.359375 301.363281 199.761719 Z M 105.621094 126.652344 L 105.574219 113.503906 C 110.566406 112.664062 114.339844 108.28125 114.339844 103.058594 C 114.339844 101.9375 114.15625 100.820312 113.828125 99.792969 L 130.753906 90.933594 C 132.945312 93.964844 136.535156 95.925781 140.546875 95.925781 C 141.527344 95.925781 142.457031 95.832031 143.390625 95.597656 L 148.984375 109.398438 C 145.535156 111.449219 143.203125 115.226562 143.203125 119.5625 C 143.203125 124.785156 146.609375 129.214844 151.316406 130.800781 L 148.800781 145.722656 C 148.472656 145.722656 148.148438 145.675781 147.773438 145.675781 C 138.542969 145.675781 131.082031 153.136719 131.082031 162.367188 C 131.082031 171.601562 138.542969 179.058594 147.773438 179.058594 C 156.539062 179.058594 163.71875 172.300781 164.417969 163.71875 L 174.070312 163.441406 C 174.863281 165.539062 176.867188 167.03125 179.246094 167.03125 C 180.925781 167.03125 182.417969 166.285156 183.445312 165.070312 L 196.078125 170.109375 C 195.941406 170.855469 195.847656 171.601562 195.847656 172.347656 C 195.847656 178.222656 200.648438 183.023438 206.523438 183.023438 C 212.398438 183.023438 217.203125 178.222656 217.203125 172.347656 C 217.203125 169.78125 216.269531 167.402344 214.777344 165.539062 L 228.160156 150.058594 C 230.492188 151.597656 233.289062 152.53125 236.273438 152.53125 C 244.339844 152.53125 250.867188 146 250.867188 137.933594 C 250.867188 129.867188 244.339844 123.339844 236.273438 123.339844 C 233.242188 123.339844 230.398438 124.273438 228.066406 125.859375 L 218.085938 114.433594 C 218.601562 113.597656 218.878906 112.570312 218.878906 111.496094 C 218.878906 109.867188 218.179688 108.375 217.0625 107.300781 L 223.730469 92.800781 C 224.617188 93.03125 225.546875 93.171875 226.480469 93.171875 C 229.746094 93.171875 232.683594 91.679688 234.59375 89.347656 L 245.269531 95.550781 C 244.523438 97.324219 244.105469 99.234375 244.105469 101.285156 C 244.105469 109.351562 250.632812 115.878906 258.699219 115.878906 C 259.492188 115.878906 260.285156 115.832031 261.03125 115.695312 L 265.226562 130.195312 C 263.640625 131.265625 262.617188 133.039062 262.617188 135.089844 C 262.617188 137.46875 264.015625 139.472656 265.972656 140.453125 L 264.25 152.855469 C 258.558594 153.042969 253.992188 157.707031 253.992188 163.441406 C 253.992188 164.09375 254.039062 164.746094 254.175781 165.398438 L 239.023438 170.992188 C 237.996094 169.6875 236.410156 168.894531 234.640625 168.894531 C 231.515625 168.894531 229 171.414062 229 174.539062 C 229 176.03125 229.558594 177.335938 230.492188 178.359375 L 222.796875 192.347656 C 222.003906 192.117188 221.164062 191.976562 220.324219 191.976562 C 215.570312 191.976562 211.746094 195.800781 211.746094 200.554688 C 211.746094 205.3125 215.570312 209.136719 220.324219 209.136719 C 225.082031 209.136719 228.90625 205.3125 228.90625 200.554688 L 250.167969 196.03125 C 250.679688 196.871094 251.332031 197.570312 252.171875 198.039062 L 245.925781 227.878906 C 245.410156 227.832031 244.851562 227.785156 244.292969 227.785156 C 239.628906 227.785156 235.386719 229.746094 232.355469 232.867188 L 220.792969 224.007812 C 220.976562 223.449219 221.117188 222.796875 221.117188 222.191406 C 221.117188 219.066406 218.601562 216.546875 215.476562 216.546875 C 212.351562 216.546875 209.835938 219.066406 209.835938 222.191406 C 209.835938 222.75 209.929688 223.261719 210.066406 223.777344 L 202.746094 228.859375 C 199.667969 225.316406 195.148438 223.078125 190.109375 223.078125 C 180.878906 223.078125 173.417969 230.535156 173.417969 239.769531 C 173.417969 239.957031 173.417969 240.140625 173.417969 240.28125 L 160.921875 242.007812 C 160.222656 239.722656 158.730469 237.71875 156.820312 236.367188 L 170.15625 209.367188 C 171.554688 209.835938 173.09375 210.113281 174.675781 210.113281 C 182.371094 210.113281 188.621094 203.867188 188.621094 196.171875 C 188.621094 188.480469 182.371094 182.277344 174.675781 182.277344 C 167.777344 182.277344 162.042969 187.3125 160.921875 193.933594 L 149.917969 193.5625 C 149.21875 191.324219 147.167969 189.738281 144.742188 189.738281 C 141.757812 189.738281 139.289062 192.164062 139.289062 195.195312 C 139.289062 196.3125 139.613281 197.292969 140.171875 198.175781 L 131.359375 209.601562 C 129.121094 208.25 126.511719 207.503906 123.761719 207.503906 C 115.554688 207.503906 108.886719 214.171875 108.886719 222.378906 C 108.886719 222.421875 108.886719 222.515625 108.886719 222.5625 L 98.675781 223.914062 C 97.554688 220.324219 94.617188 217.480469 90.933594 216.546875 L 91.914062 204.613281 C 94.339844 204.007812 96.109375 201.816406 96.109375 199.25 C 96.109375 198.175781 95.785156 197.152344 95.269531 196.3125 L 116.113281 170.667969 C 116.71875 170.902344 117.371094 170.992188 118.027344 170.992188 C 121.101562 170.992188 123.574219 168.523438 123.574219 165.445312 C 123.574219 162.414062 121.101562 159.898438 118.027344 159.898438 C 117.746094 159.898438 117.464844 159.898438 117.234375 159.941406 L 114.015625 153.695312 C 117.933594 151.039062 120.542969 146.515625 120.542969 141.386719 C 120.542969 133.179688 113.875 126.511719 105.667969 126.511719 C 105.574219 126.511719 105.53125 126.511719 105.484375 126.511719 Z M 152.296875 146.328125 L 154.8125 131.40625 C 154.859375 131.40625 154.953125 131.40625 155 131.40625 C 159.289062 131.40625 163.019531 129.121094 165.117188 125.71875 L 182.371094 132.851562 C 182.136719 133.832031 181.996094 134.8125 181.996094 135.882812 C 181.996094 142.691406 187.5 148.191406 194.308594 148.191406 C 201.113281 148.191406 206.617188 142.691406 206.617188 135.882812 C 206.617188 132.574219 205.3125 129.589844 203.214844 127.351562 L 211.28125 116.953125 C 211.886719 117.1875 212.539062 117.277344 213.191406 117.277344 C 213.984375 117.277344 214.730469 117.140625 215.429688 116.8125 L 225.40625 128.238281 C 223.078125 130.800781 221.679688 134.25 221.679688 137.980469 C 221.679688 141.757812 223.125 145.164062 225.453125 147.773438 L 212.074219 163.253906 C 210.441406 162.273438 208.574219 161.714844 206.523438 161.714844 C 202.652344 161.714844 199.296875 163.765625 197.386719 166.84375 L 184.75 161.808594 C 184.75 161.714844 184.75 161.621094 184.75 161.527344 C 184.75 158.453125 182.277344 155.980469 179.199219 155.980469 C 176.730469 155.980469 174.632812 157.613281 173.929688 159.898438 L 164.28125 160.175781 C 163.394531 153.507812 158.589844 148.148438 152.25 146.328125 Z M 195.519531 95.597656 L 208.109375 108.839844 C 207.691406 109.632812 207.410156 110.566406 207.410156 111.542969 C 207.410156 112.710938 207.78125 113.828125 208.390625 114.761719 L 200.324219 125.160156 C 198.550781 124.132812 196.453125 123.574219 194.261719 123.574219 C 189.785156 123.574219 185.867188 126 183.722656 129.542969 L 166.472656 122.363281 C 166.703125 121.476562 166.796875 120.496094 166.796875 119.515625 C 166.796875 116.488281 165.632812 113.734375 163.765625 111.636719 L 176.449219 96.25 C 179.058594 97.976562 182.136719 98.953125 185.496094 98.953125 C 189.273438 98.953125 192.722656 97.695312 195.519531 95.550781 Z M 268.679688 129.308594 L 264.480469 114.761719 C 266.90625 113.734375 268.957031 112.058594 270.496094 109.957031 L 286.257812 118.769531 C 285.742188 120.078125 285.464844 121.523438 285.464844 123.015625 C 285.464844 124.039062 285.605469 125.019531 285.835938 126 L 273.0625 131.359375 C 271.988281 130.101562 270.449219 129.308594 268.679688 129.261719 Z M 240.050781 260.285156 L 237.578125 275.578125 C 234.3125 275.953125 231.75 278.75 231.75 282.105469 C 231.75 285.183594 233.847656 287.75 236.691406 288.496094 L 236.925781 300.058594 C 236.832031 300.105469 236.691406 300.152344 236.597656 300.199219 L 228.4375 293.390625 C 228.8125 292.597656 229 291.710938 229 290.78125 C 229 287.421875 226.433594 284.671875 223.167969 284.34375 L 221.769531 276.605469 C 226.433594 275.019531 229.789062 270.589844 229.789062 265.414062 C 229.789062 263.269531 229.230469 261.265625 228.207031 259.539062 L 232.726562 255.949219 C 234.734375 257.953125 237.25 259.492188 240.09375 260.238281 Z M 95.738281 152.4375 L 83.195312 169.828125 C 82.167969 169.410156 81.050781 169.128906 79.882812 169.128906 C 75.316406 169.128906 71.585938 172.859375 71.585938 177.429688 C 71.585938 179.761719 72.5625 181.90625 74.148438 183.398438 L 61.046875 204.753906 C 59.414062 204.007812 57.597656 203.632812 55.683594 203.632812 C 55.542969 203.632812 55.453125 203.632812 55.3125 203.632812 L 54.285156 197.339844 C 59.273438 195.753906 62.867188 191.089844 62.867188 185.636719 C 62.867188 180.039062 59.136719 175.332031 54.007812 173.839844 L 54.753906 168.382812 C 54.984375 168.382812 55.21875 168.382812 55.5 168.382812 C 65.429688 168.382812 73.496094 160.316406 73.496094 150.382812 C 73.496094 149.917969 73.496094 149.5 73.449219 149.03125 L 91.585938 145.863281 C 92.378906 148.425781 93.824219 150.710938 95.738281 152.484375 Z M 109.351562 188.710938 C 109.351562 182.882812 114.109375 178.128906 119.9375 178.128906 C 125.765625 178.128906 130.519531 182.882812 130.519531 188.710938 C 130.519531 194.539062 125.765625 199.296875 119.9375 199.296875 C 114.109375 199.296875 109.351562 194.539062 109.351562 188.710938 Z M 120.683594 117.699219 C 120.683594 114.621094 123.15625 112.148438 126.230469 112.148438 C 129.308594 112.148438 131.78125 114.621094 131.78125 117.699219 C 131.78125 120.730469 129.308594 123.246094 126.230469 123.246094 C 123.199219 123.246094 120.683594 120.777344 120.683594 117.699219 Z M 120.683594 117.699219 " clip-rule="evenodd"/></clipPath><linearGradient x1="39.985145" gradientTransform="matrix(4.662729, 0, 0, 4.662729, 37.500004, 65.989258)" y1="-0.154474" x2="39.673595" gradientUnits="userSpaceOnUse" y2="52.365346" id="f139a05c03"><stop stop-opacity="1" stop-color="rgb(28.199768%, 79.199219%, 48.999023%)" offset="0"/><stop stop-opacity="1" stop-color="rgb(28.199768%, 79.199219%, 48.999023%)" offset="0.00726688"/><stop stop-opacity="1" stop-color="rgb(28.199768%, 79.199219%, 48.999023%)" offset="0.0625"/><stop stop-opacity="1" stop-color="rgb(28.199768%, 79.199219%, 48.999023%)" offset="0.09375"/><stop stop-opacity="1" stop-color="rgb(28.199768%, 79.199219%, 48.999023%)" offset="0.109375"/><stop stop-opacity="1" stop-color="rgb(28.125%, 79.171753%, 49.116516%)" offset="0.117188"/><stop stop-opacity="1" stop-color="rgb(27.919006%, 79.093933%, 49.443054%)" offset="0.121094"/><stop stop-opacity="1" stop-color="rgb(27.787781%, 79.043579%, 49.6521%)" offset="0.125"/><stop stop-opacity="1" stop-color="rgb(27.655029%, 78.993225%, 49.861145%)" offset="0.128906"/><stop stop-opacity="1" stop-color="rgb(27.523804%, 78.944397%, 50.07019%)" offset="0.132812"/><stop stop-opacity="1" stop-color="rgb(27.391052%, 78.894043%, 50.279236%)" offset="0.136719"/><stop stop-opacity="1" stop-color="rgb(27.259827%, 78.845215%, 50.489807%)" offset="0.140625"/><stop stop-opacity="1" stop-color="rgb(27.127075%, 78.794861%, 50.698853%)" offset="0.144531"/><stop stop-opacity="1" stop-color="rgb(26.99585%, 78.746033%, 50.907898%)" offset="0.148438"/><stop stop-opacity="1" stop-color="rgb(26.863098%, 78.695679%, 51.116943%)" offset="0.152344"/><stop stop-opacity="1" stop-color="rgb(26.731873%, 78.646851%, 51.325989%)" offset="0.15625"/><stop stop-opacity="1" stop-color="rgb(26.599121%, 78.596497%, 51.535034%)" offset="0.160156"/><stop stop-opacity="1" stop-color="rgb(26.467896%, 78.547668%, 51.74408%)" offset="0.164063"/><stop stop-opacity="1" stop-color="rgb(26.335144%, 78.497314%, 51.953125%)" offset="0.167969"/><stop stop-opacity="1" stop-color="rgb(26.203918%, 78.448486%, 52.163696%)" offset="0.171875"/><stop stop-opacity="1" stop-color="rgb(26.071167%, 78.398132%, 52.372742%)" offset="0.175781"/><stop stop-opacity="1" stop-color="rgb(25.939941%, 78.349304%, 52.581787%)" offset="0.179688"/><stop stop-opacity="1" stop-color="rgb(25.80719%, 78.29895%, 52.790833%)" offset="0.183594"/><stop stop-opacity="1" stop-color="rgb(25.675964%, 78.250122%, 52.999878%)" offset="0.1875"/><stop stop-opacity="1" stop-color="rgb(25.543213%, 78.199768%, 53.208923%)" offset="0.191406"/><stop stop-opacity="1" stop-color="rgb(25.410461%, 78.15094%, 53.417969%)" offset="0.195313"/><stop stop-opacity="1" stop-color="rgb(25.27771%, 78.100586%, 53.627014%)" offset="0.199219"/><stop stop-opacity="1" stop-color="rgb(25.146484%, 78.051758%, 53.837585%)" offset="0.203125"/><stop stop-opacity="1" stop-color="rgb(25.013733%, 78.001404%, 54.046631%)" offset="0.207031"/><stop stop-opacity="1" stop-color="rgb(24.882507%, 77.952576%, 54.255676%)" offset="0.210938"/><stop stop-opacity="1" stop-color="rgb(24.749756%, 77.902222%, 54.464722%)" offset="0.214844"/><stop stop-opacity="1" stop-color="rgb(24.61853%, 77.853394%, 54.673767%)" offset="0.21875"/><stop stop-opacity="1" stop-color="rgb(24.485779%, 77.80304%, 54.882812%)" offset="0.222656"/><stop stop-opacity="1" stop-color="rgb(24.354553%, 77.754211%, 55.091858%)" offset="0.226563"/><stop stop-opacity="1" stop-color="rgb(24.221802%, 77.703857%, 55.300903%)" offset="0.230469"/><stop stop-opacity="1" stop-color="rgb(24.090576%, 77.655029%, 55.511475%)" offset="0.234375"/><stop stop-opacity="1" stop-color="rgb(23.957825%, 77.604675%, 55.72052%)" offset="0.238281"/><stop stop-opacity="1" stop-color="rgb(23.826599%, 77.555847%, 55.929565%)" offset="0.242188"/><stop stop-opacity="1" stop-color="rgb(23.693848%, 77.505493%, 56.138611%)" offset="0.246094"/><stop stop-opacity="1" stop-color="rgb(23.562622%, 77.456665%, 56.347656%)" offset="0.25"/><stop stop-opacity="1" stop-color="rgb(23.429871%, 77.406311%, 56.556702%)" offset="0.253906"/><stop stop-opacity="1" stop-color="rgb(23.298645%, 77.357483%, 56.765747%)" offset="0.257812"/><stop stop-opacity="1" stop-color="rgb(23.165894%, 77.307129%, 56.974792%)" offset="0.261719"/><stop stop-opacity="1" stop-color="rgb(23.034668%, 77.258301%, 57.185364%)" offset="0.265625"/><stop stop-opacity="1" stop-color="rgb(22.901917%, 77.207947%, 57.394409%)" offset="0.269531"/><stop stop-opacity="1" stop-color="rgb(22.770691%, 77.159119%, 57.603455%)" offset="0.273438"/><stop stop-opacity="1" stop-color="rgb(22.637939%, 77.108765%, 57.8125%)" offset="0.277344"/><stop stop-opacity="1" stop-color="rgb(22.506714%, 77.059937%, 58.021545%)" offset="0.28125"/><stop stop-opacity="1" stop-color="rgb(22.373962%, 77.009583%, 58.230591%)" offset="0.285156"/><stop stop-opacity="1" stop-color="rgb(22.242737%, 76.960754%, 58.439636%)" offset="0.289063"/><stop stop-opacity="1" stop-color="rgb(22.109985%, 76.9104%, 58.648682%)" offset="0.292969"/><stop stop-opacity="1" stop-color="rgb(21.97876%, 76.861572%, 58.857727%)" offset="0.296875"/><stop stop-opacity="1" stop-color="rgb(21.846008%, 76.811218%, 59.066772%)" offset="0.300781"/><stop stop-opacity="1" stop-color="rgb(21.714783%, 76.76239%, 59.277344%)" offset="0.304688"/><stop stop-opacity="1" stop-color="rgb(21.582031%, 76.712036%, 59.486389%)" offset="0.308594"/><stop stop-opacity="1" stop-color="rgb(21.450806%, 76.663208%, 59.695435%)" offset="0.3125"/><stop stop-opacity="1" stop-color="rgb(21.318054%, 76.612854%, 59.90448%)" offset="0.316406"/><stop stop-opacity="1" stop-color="rgb(21.186829%, 76.564026%, 60.113525%)" offset="0.320312"/><stop stop-opacity="1" stop-color="rgb(21.054077%, 76.513672%, 60.322571%)" offset="0.324219"/><stop stop-opacity="1" stop-color="rgb(20.922852%, 76.464844%, 60.531616%)" offset="0.328125"/><stop stop-opacity="1" stop-color="rgb(20.7901%, 76.41449%, 60.740662%)" offset="0.332031"/><stop stop-opacity="1" stop-color="rgb(20.658875%, 76.365662%, 60.951233%)" offset="0.335938"/><stop stop-opacity="1" stop-color="rgb(20.526123%, 76.315308%, 61.160278%)" offset="0.339844"/><stop stop-opacity="1" stop-color="rgb(20.394897%, 76.266479%, 61.369324%)" offset="0.34375"/><stop stop-opacity="1" stop-color="rgb(20.262146%, 76.216125%, 61.578369%)" offset="0.347656"/><stop stop-opacity="1" stop-color="rgb(20.13092%, 76.167297%, 61.787415%)" offset="0.351562"/><stop stop-opacity="1" stop-color="rgb(19.998169%, 76.116943%, 61.99646%)" offset="0.355469"/><stop stop-opacity="1" stop-color="rgb(19.866943%, 76.068115%, 62.205505%)" offset="0.359375"/><stop stop-opacity="1" stop-color="rgb(19.734192%, 76.017761%, 62.414551%)" offset="0.363281"/><stop stop-opacity="1" stop-color="rgb(19.602966%, 75.968933%, 62.625122%)" offset="0.367188"/><stop stop-opacity="1" stop-color="rgb(19.470215%, 75.918579%, 62.834167%)" offset="0.371094"/><stop stop-opacity="1" stop-color="rgb(19.338989%, 75.868225%, 63.043213%)" offset="0.375"/><stop stop-opacity="1" stop-color="rgb(19.206238%, 75.817871%, 63.252258%)" offset="0.378906"/><stop stop-opacity="1" stop-color="rgb(19.075012%, 75.769043%, 63.461304%)" offset="0.382812"/><stop stop-opacity="1" stop-color="rgb(18.942261%, 75.718689%, 63.670349%)" offset="0.386719"/><stop stop-opacity="1" stop-color="rgb(18.811035%, 75.669861%, 63.879395%)" offset="0.390625"/><stop stop-opacity="1" stop-color="rgb(18.678284%, 75.619507%, 64.08844%)" offset="0.394531"/><stop stop-opacity="1" stop-color="rgb(18.547058%, 75.570679%, 64.299011%)" offset="0.398438"/><stop stop-opacity="1" stop-color="rgb(18.414307%, 75.520325%, 64.508057%)" offset="0.402344"/><stop stop-opacity="1" stop-color="rgb(18.283081%, 75.471497%, 64.717102%)" offset="0.40625"/><stop stop-opacity="1" stop-color="rgb(18.15033%, 75.421143%, 64.926147%)" offset="0.410156"/><stop stop-opacity="1" stop-color="rgb(18.019104%, 75.372314%, 65.135193%)" offset="0.414062"/><stop stop-opacity="1" stop-color="rgb(17.886353%, 75.32196%, 65.344238%)" offset="0.417969"/><stop stop-opacity="1" stop-color="rgb(17.755127%, 75.273132%, 65.553284%)" offset="0.421875"/><stop stop-opacity="1" stop-color="rgb(17.622375%, 75.222778%, 65.762329%)" offset="0.425781"/><stop stop-opacity="1" stop-color="rgb(17.49115%, 75.17395%, 65.9729%)" offset="0.429688"/><stop stop-opacity="1" stop-color="rgb(17.358398%, 75.123596%, 66.181946%)" offset="0.433594"/><stop stop-opacity="1" stop-color="rgb(17.227173%, 75.074768%, 66.390991%)" offset="0.4375"/><stop stop-opacity="1" stop-color="rgb(17.094421%, 75.024414%, 66.600037%)" offset="0.441406"/><stop stop-opacity="1" stop-color="rgb(16.963196%, 74.975586%, 66.809082%)" offset="0.445313"/><stop stop-opacity="1" stop-color="rgb(16.830444%, 74.925232%, 67.018127%)" offset="0.449219"/><stop stop-opacity="1" stop-color="rgb(16.699219%, 74.876404%, 67.227173%)" offset="0.453125"/><stop stop-opacity="1" stop-color="rgb(16.566467%, 74.82605%, 67.436218%)" offset="0.457031"/><stop stop-opacity="1" stop-color="rgb(16.435242%, 74.777222%, 67.64679%)" offset="0.460938"/><stop stop-opacity="1" stop-color="rgb(16.30249%, 74.726868%, 67.855835%)" offset="0.464844"/><stop stop-opacity="1" stop-color="rgb(16.171265%, 74.67804%, 68.06488%)" offset="0.46875"/><stop stop-opacity="1" stop-color="rgb(16.038513%, 74.627686%, 68.273926%)" offset="0.472656"/><stop stop-opacity="1" stop-color="rgb(15.907288%, 74.578857%, 68.482971%)" offset="0.476562"/><stop stop-opacity="1" stop-color="rgb(15.774536%, 74.528503%, 68.692017%)" offset="0.480469"/><stop stop-opacity="1" stop-color="rgb(15.643311%, 74.479675%, 68.901062%)" offset="0.484375"/><stop stop-opacity="1" stop-color="rgb(15.510559%, 74.429321%, 69.110107%)" offset="0.488281"/><stop stop-opacity="1" stop-color="rgb(15.379333%, 74.380493%, 69.319153%)" offset="0.492188"/><stop stop-opacity="1" stop-color="rgb(15.246582%, 74.330139%, 69.528198%)" offset="0.496094"/><stop stop-opacity="1" stop-color="rgb(15.115356%, 74.281311%, 69.73877%)" offset="0.5"/><stop stop-opacity="1" stop-color="rgb(14.982605%, 74.230957%, 69.947815%)" offset="0.503906"/><stop stop-opacity="1" stop-color="rgb(14.851379%, 74.182129%, 70.15686%)" offset="0.507812"/><stop stop-opacity="1" stop-color="rgb(14.718628%, 74.131775%, 70.365906%)" offset="0.511719"/><stop stop-opacity="1" stop-color="rgb(14.587402%, 74.082947%, 70.574951%)" offset="0.515625"/><stop stop-opacity="1" stop-color="rgb(14.454651%, 74.032593%, 70.783997%)" offset="0.519531"/><stop stop-opacity="1" stop-color="rgb(14.323425%, 73.983765%, 70.993042%)" offset="0.523438"/><stop stop-opacity="1" stop-color="rgb(14.190674%, 73.933411%, 71.202087%)" offset="0.527344"/><stop stop-opacity="1" stop-color="rgb(14.059448%, 73.884583%, 71.412659%)" offset="0.53125"/><stop stop-opacity="1" stop-color="rgb(13.926697%, 73.834229%, 71.621704%)" offset="0.535156"/><stop stop-opacity="1" stop-color="rgb(13.795471%, 73.7854%, 71.83075%)" offset="0.539062"/><stop stop-opacity="1" stop-color="rgb(13.66272%, 73.735046%, 72.039795%)" offset="0.542969"/><stop stop-opacity="1" stop-color="rgb(13.531494%, 73.686218%, 72.24884%)" offset="0.546875"/><stop stop-opacity="1" stop-color="rgb(13.398743%, 73.635864%, 72.457886%)" offset="0.550781"/><stop stop-opacity="1" stop-color="rgb(13.267517%, 73.587036%, 72.666931%)" offset="0.554688"/><stop stop-opacity="1" stop-color="rgb(13.134766%, 73.536682%, 72.875977%)" offset="0.558594"/><stop stop-opacity="1" stop-color="rgb(13.00354%, 73.487854%, 73.086548%)" offset="0.5625"/><stop stop-opacity="1" stop-color="rgb(12.870789%, 73.4375%, 73.295593%)" offset="0.566406"/><stop stop-opacity="1" stop-color="rgb(12.739563%, 73.388672%, 73.504639%)" offset="0.570312"/><stop stop-opacity="1" stop-color="rgb(12.606812%, 73.338318%, 73.713684%)" offset="0.574219"/><stop stop-opacity="1" stop-color="rgb(12.475586%, 73.28949%, 73.922729%)" offset="0.578125"/><stop stop-opacity="1" stop-color="rgb(12.342834%, 73.239136%, 74.131775%)" offset="0.582031"/><stop stop-opacity="1" stop-color="rgb(12.211609%, 73.190308%, 74.34082%)" offset="0.585937"/><stop stop-opacity="1" stop-color="rgb(12.078857%, 73.139954%, 74.549866%)" offset="0.589844"/><stop stop-opacity="1" stop-color="rgb(11.947632%, 73.091125%, 74.760437%)" offset="0.59375"/><stop stop-opacity="1" stop-color="rgb(11.81488%, 73.040771%, 74.969482%)" offset="0.597656"/><stop stop-opacity="1" stop-color="rgb(11.683655%, 72.991943%, 75.178528%)" offset="0.601562"/><stop stop-opacity="1" stop-color="rgb(11.550903%, 72.941589%, 75.387573%)" offset="0.605469"/><stop stop-opacity="1" stop-color="rgb(11.419678%, 72.892761%, 75.596619%)" offset="0.609375"/><stop stop-opacity="1" stop-color="rgb(11.286926%, 72.842407%, 75.805664%)" offset="0.613281"/><stop stop-opacity="1" stop-color="rgb(11.155701%, 72.792053%, 76.014709%)" offset="0.617188"/><stop stop-opacity="1" stop-color="rgb(11.022949%, 72.741699%, 76.223755%)" offset="0.621094"/><stop stop-opacity="1" stop-color="rgb(10.891724%, 72.692871%, 76.434326%)" offset="0.625"/><stop stop-opacity="1" stop-color="rgb(10.758972%, 72.642517%, 76.643372%)" offset="0.628906"/><stop stop-opacity="1" stop-color="rgb(10.627747%, 72.593689%, 76.852417%)" offset="0.632812"/><stop stop-opacity="1" stop-color="rgb(10.494995%, 72.543335%, 77.061462%)" offset="0.636719"/><stop stop-opacity="1" stop-color="rgb(10.36377%, 72.494507%, 77.270508%)" offset="0.640625"/><stop stop-opacity="1" stop-color="rgb(10.231018%, 72.444153%, 77.479553%)" offset="0.644531"/><stop stop-opacity="1" stop-color="rgb(10.099792%, 72.395325%, 77.688599%)" offset="0.648438"/><stop stop-opacity="1" stop-color="rgb(9.967041%, 72.344971%, 77.897644%)" offset="0.652344"/><stop stop-opacity="1" stop-color="rgb(9.835815%, 72.296143%, 78.106689%)" offset="0.65625"/><stop stop-opacity="1" stop-color="rgb(9.703064%, 72.245789%, 78.315735%)" offset="0.660156"/><stop stop-opacity="1" stop-color="rgb(9.571838%, 72.19696%, 78.526306%)" offset="0.664062"/><stop stop-opacity="1" stop-color="rgb(9.439087%, 72.146606%, 78.735352%)" offset="0.667969"/><stop stop-opacity="1" stop-color="rgb(9.307861%, 72.097778%, 78.944397%)" offset="0.671875"/><stop stop-opacity="1" stop-color="rgb(9.17511%, 72.047424%, 79.153442%)" offset="0.675781"/><stop stop-opacity="1" stop-color="rgb(9.043884%, 71.998596%, 79.362488%)" offset="0.679688"/><stop stop-opacity="1" stop-color="rgb(8.911133%, 71.948242%, 79.571533%)" offset="0.683594"/><stop stop-opacity="1" stop-color="rgb(8.779907%, 71.899414%, 79.780579%)" offset="0.6875"/><stop stop-opacity="1" stop-color="rgb(8.647156%, 71.84906%, 79.989624%)" offset="0.691406"/><stop stop-opacity="1" stop-color="rgb(8.51593%, 71.800232%, 80.200195%)" offset="0.695312"/><stop stop-opacity="1" stop-color="rgb(8.383179%, 71.749878%, 80.409241%)" offset="0.699219"/><stop stop-opacity="1" stop-color="rgb(8.251953%, 71.70105%, 80.618286%)" offset="0.703125"/><stop stop-opacity="1" stop-color="rgb(8.119202%, 71.650696%, 80.827332%)" offset="0.707031"/><stop stop-opacity="1" stop-color="rgb(7.987976%, 71.601868%, 81.036377%)" offset="0.710938"/><stop stop-opacity="1" stop-color="rgb(7.855225%, 71.551514%, 81.245422%)" offset="0.714844"/><stop stop-opacity="1" stop-color="rgb(7.723999%, 71.502686%, 81.454468%)" offset="0.71875"/><stop stop-opacity="1" stop-color="rgb(7.591248%, 71.452332%, 81.663513%)" offset="0.722656"/><stop stop-opacity="1" stop-color="rgb(7.460022%, 71.403503%, 81.874084%)" offset="0.726563"/><stop stop-opacity="1" stop-color="rgb(7.327271%, 71.353149%, 82.08313%)" offset="0.730469"/><stop stop-opacity="1" stop-color="rgb(7.196045%, 71.304321%, 82.292175%)" offset="0.734375"/><stop stop-opacity="1" stop-color="rgb(7.063293%, 71.253967%, 82.501221%)" offset="0.738281"/><stop stop-opacity="1" stop-color="rgb(6.932068%, 71.205139%, 82.710266%)" offset="0.742188"/><stop stop-opacity="1" stop-color="rgb(6.799316%, 71.154785%, 82.919312%)" offset="0.746094"/><stop stop-opacity="1" stop-color="rgb(6.668091%, 71.105957%, 83.128357%)" offset="0.75"/><stop stop-opacity="1" stop-color="rgb(6.535339%, 71.055603%, 83.337402%)" offset="0.753906"/><stop stop-opacity="1" stop-color="rgb(6.404114%, 71.006775%, 83.547974%)" offset="0.757812"/><stop stop-opacity="1" stop-color="rgb(6.271362%, 70.956421%, 83.757019%)" offset="0.761719"/><stop stop-opacity="1" stop-color="rgb(6.140137%, 70.907593%, 83.966064%)" offset="0.765625"/><stop stop-opacity="1" stop-color="rgb(6.007385%, 70.857239%, 84.17511%)" offset="0.769531"/><stop stop-opacity="1" stop-color="rgb(5.87616%, 70.808411%, 84.384155%)" offset="0.773437"/><stop stop-opacity="1" stop-color="rgb(5.743408%, 70.758057%, 84.593201%)" offset="0.777344"/><stop stop-opacity="1" stop-color="rgb(5.612183%, 70.709229%, 84.802246%)" offset="0.78125"/><stop stop-opacity="1" stop-color="rgb(5.479431%, 70.658875%, 85.011292%)" offset="0.785156"/><stop stop-opacity="1" stop-color="rgb(5.348206%, 70.610046%, 85.221863%)" offset="0.789062"/><stop stop-opacity="1" stop-color="rgb(5.215454%, 70.559692%, 85.430908%)" offset="0.792969"/><stop stop-opacity="1" stop-color="rgb(5.084229%, 70.510864%, 85.639954%)" offset="0.796875"/><stop stop-opacity="1" stop-color="rgb(4.951477%, 70.46051%, 85.848999%)" offset="0.800781"/><stop stop-opacity="1" stop-color="rgb(4.820251%, 70.411682%, 86.058044%)" offset="0.804688"/><stop stop-opacity="1" stop-color="rgb(4.6875%, 70.361328%, 86.26709%)" offset="0.808594"/><stop stop-opacity="1" stop-color="rgb(4.556274%, 70.3125%, 86.476135%)" offset="0.8125"/><stop stop-opacity="1" stop-color="rgb(4.423523%, 70.262146%, 86.685181%)" offset="0.816406"/><stop stop-opacity="1" stop-color="rgb(4.292297%, 70.213318%, 86.895752%)" offset="0.820312"/><stop stop-opacity="1" stop-color="rgb(4.159546%, 70.162964%, 87.104797%)" offset="0.824219"/><stop stop-opacity="1" stop-color="rgb(4.02832%, 70.114136%, 87.313843%)" offset="0.828125"/><stop stop-opacity="1" stop-color="rgb(3.895569%, 70.063782%, 87.522888%)" offset="0.832031"/><stop stop-opacity="1" stop-color="rgb(3.764343%, 70.014954%, 87.731934%)" offset="0.835938"/><stop stop-opacity="1" stop-color="rgb(3.631592%, 69.9646%, 87.940979%)" offset="0.839844"/><stop stop-opacity="1" stop-color="rgb(3.500366%, 69.915771%, 88.150024%)" offset="0.84375"/><stop stop-opacity="1" stop-color="rgb(3.367615%, 69.865417%, 88.35907%)" offset="0.847656"/><stop stop-opacity="1" stop-color="rgb(3.236389%, 69.816589%, 88.568115%)" offset="0.851563"/><stop stop-opacity="1" stop-color="rgb(3.103638%, 69.766235%, 88.777161%)" offset="0.855469"/><stop stop-opacity="1" stop-color="rgb(2.972412%, 69.715881%, 88.987732%)" offset="0.859375"/><stop stop-opacity="1" stop-color="rgb(2.839661%, 69.665527%, 89.196777%)" offset="0.863281"/><stop stop-opacity="1" stop-color="rgb(2.708435%, 69.616699%, 89.405823%)" offset="0.867188"/><stop stop-opacity="1" stop-color="rgb(2.575684%, 69.566345%, 89.614868%)" offset="0.871094"/><stop stop-opacity="1" stop-color="rgb(2.444458%, 69.517517%, 89.823914%)" offset="0.875"/><stop stop-opacity="1" stop-color="rgb(2.311707%, 69.467163%, 90.032959%)" offset="0.878906"/><stop stop-opacity="1" stop-color="rgb(2.180481%, 69.418335%, 90.242004%)" offset="0.882813"/><stop stop-opacity="1" stop-color="rgb(2.047729%, 69.367981%, 90.45105%)" offset="0.886719"/><stop stop-opacity="1" stop-color="rgb(1.916504%, 69.319153%, 90.661621%)" offset="0.890625"/><stop stop-opacity="1" stop-color="rgb(1.783752%, 69.268799%, 90.870667%)" offset="0.894531"/><stop stop-opacity="1" stop-color="rgb(1.652527%, 69.219971%, 91.079712%)" offset="0.898438"/><stop stop-opacity="1" stop-color="rgb(1.519775%, 69.169617%, 91.288757%)" offset="0.902344"/><stop stop-opacity="1" stop-color="rgb(1.38855%, 69.120789%, 91.497803%)" offset="0.90625"/><stop stop-opacity="1" stop-color="rgb(1.255798%, 69.070435%, 91.706848%)" offset="0.910156"/><stop stop-opacity="1" stop-color="rgb(1.124573%, 69.021606%, 91.915894%)" offset="0.914063"/><stop stop-opacity="1" stop-color="rgb(0.991821%, 68.971252%, 92.124939%)" offset="0.917969"/><stop stop-opacity="1" stop-color="rgb(0.860596%, 68.922424%, 92.33551%)" offset="0.921875"/><stop stop-opacity="1" stop-color="rgb(0.727844%, 68.87207%, 92.544556%)" offset="0.925781"/><stop stop-opacity="1" stop-color="rgb(0.596619%, 68.823242%, 92.753601%)" offset="0.929688"/><stop stop-opacity="1" stop-color="rgb(0.463867%, 68.772888%, 92.962646%)" offset="0.933594"/><stop stop-opacity="1" stop-color="rgb(0.332642%, 68.72406%, 93.171692%)" offset="0.9375"/><stop stop-opacity="1" stop-color="rgb(0.19989%, 68.673706%, 93.380737%)" offset="0.941406"/><stop stop-opacity="1" stop-color="rgb(0.0686646%, 68.624878%, 93.589783%)" offset="0.945312"/><stop stop-opacity="1" stop-color="rgb(0.0335693%, 68.611145%, 93.644714%)" offset="0.953125"/><stop stop-opacity="1" stop-color="rgb(0%, 68.598938%, 93.699646%)" offset="0.96875"/><stop stop-opacity="1" stop-color="rgb(0%, 68.598938%, 93.699646%)" offset="0.992733"/><stop stop-opacity="1" stop-color="rgb(0%, 68.598938%, 93.699646%)" offset="1"/></linearGradient></defs><g clip-path="url(#6204380ec2)"><g clip-path="url(#579c81ee1e)"><path fill="url(#f139a05c03)" d="M 37.5 65.941406 L 37.5 309.058594 L 337.5 309.058594 L 337.5 65.941406 Z M 37.5 65.941406 " fill-rule="nonzero"/></g></g></svg>