<svg xmlns="http://www.w3.org/2000/svg" xmlns:xlink="http://www.w3.org/1999/xlink" width="500" zoomAndPan="magnify" viewBox="0 0 375 374.999991" height="500" preserveAspectRatio="xMidYMid meet" version="1.0"><defs><clipPath id="bc3567fa37"><path d="M 198 55.078125 L 237 55.078125 L 237 248 L 198 248 Z M 198 55.078125 " clip-rule="nonzero"/></clipPath><clipPath id="94caafccd1"><path d="M 0 245 L 375 245 L 375 319.828125 L 0 319.828125 Z M 0 245 " clip-rule="nonzero"/></clipPath></defs><path fill="#38b6ff" d="M 156.347656 95.570312 L 156.347656 85.820312 L 165.335938 80.988281 L 165.335938 90.738281 Z M 174.320312 95.714844 L 174.320312 85.910156 L 183.308594 81.082031 L 183.308594 90.886719 Z M 156.347656 115.125 L 156.347656 105.375 L 165.335938 100.546875 L 165.335938 110.296875 Z M 174.320312 115.269531 L 174.320312 105.464844 L 183.308594 100.636719 L 183.308594 110.441406 Z M 156.347656 134.679688 L 156.347656 124.929688 L 165.335938 120.097656 L 165.335938 129.851562 Z M 174.320312 134.824219 L 174.320312 125.019531 L 183.308594 120.191406 L 183.308594 129.996094 Z M 156.347656 154.234375 L 156.347656 144.484375 L 165.335938 139.65625 L 165.335938 149.40625 Z M 174.320312 154.378906 L 174.320312 144.574219 L 183.308594 139.746094 L 183.308594 149.550781 Z M 156.347656 173.789062 L 156.347656 164.039062 L 165.335938 159.210938 L 165.335938 168.960938 Z M 174.320312 173.933594 L 174.320312 164.128906 L 183.308594 159.300781 L 183.308594 169.105469 Z M 156.347656 193.34375 L 156.347656 183.59375 L 165.335938 178.765625 L 165.335938 188.515625 Z M 174.320312 193.488281 L 174.320312 183.683594 L 183.308594 178.855469 L 183.308594 188.660156 Z M 156.347656 212.898438 L 156.347656 203.148438 L 165.335938 198.320312 L 165.335938 208.070312 Z M 174.320312 213.042969 L 174.320312 203.238281 L 183.308594 198.410156 L 183.308594 208.214844 Z M 156.347656 232.453125 L 156.347656 222.703125 L 165.335938 217.875 L 165.335938 227.625 Z M 174.320312 232.597656 L 174.320312 222.792969 L 183.308594 217.964844 L 183.308594 227.769531 Z M 156.347656 250.859375 L 156.347656 242.257812 L 165.335938 237.429688 L 165.335938 245.808594 L 187.5 233.355469 L 192.296875 236.050781 L 192.296875 56.695312 C 172.871094 67.136719 177.324219 64.742188 165.335938 71.1875 L 147.359375 80.84375 L 147.359375 255.90625 Z M 156.347656 250.859375 " fill-opacity="1" fill-rule="evenodd"/><g clip-path="url(#bc3567fa37)"><path fill="#004aad" d="M 230.433594 121.929688 L 236.152344 120.398438 L 236.152344 83.753906 L 198.765625 55.078125 L 198.765625 239.683594 L 212.101562 247.179688 L 212.101562 137.925781 L 230.433594 133.011719 Z M 230.433594 121.929688 " fill-opacity="1" fill-rule="evenodd"/></g><path fill="#004aad" d="M 300.796875 147.257812 L 300.796875 297.007812 L 305.109375 299.429688 L 305.109375 150.363281 Z M 270.597656 280.042969 L 270.597656 125.539062 L 266.285156 122.4375 L 266.285156 277.617188 Z M 274.910156 128.644531 L 274.910156 282.464844 L 279.226562 284.890625 L 279.226562 131.746094 Z M 283.539062 134.847656 L 283.539062 287.3125 L 287.851562 289.734375 L 287.851562 137.953125 Z M 292.167969 141.054688 L 292.167969 292.160156 L 296.480469 294.582031 L 296.480469 144.15625 Z M 292.167969 141.054688 " fill-opacity="1" fill-rule="evenodd"/><path fill="#38b6ff" d="M 262.039062 275.230469 L 262.039062 119.382812 L 236.152344 126.316406 L 236.152344 137.402344 L 217.820312 142.3125 L 217.820312 250.390625 L 225.035156 254.445312 L 225.035156 245.328125 L 254.820312 245.328125 L 254.820312 271.179688 Z M 262.039062 275.230469 " fill-opacity="1" fill-rule="evenodd"/><path fill="#004aad" d="M 101.347656 130.929688 L 101.34375 281.757812 L 110.199219 276.785156 L 110.199219 270.933594 L 116.664062 273.152344 L 124.191406 268.921875 L 110.199219 264.125 L 110.199219 256.75 L 132.34375 264.34375 L 139.089844 260.550781 L 139.089844 259.847656 L 110.199219 249.941406 L 110.199219 242.566406 L 139.089844 252.472656 L 139.089844 245.660156 L 110.199219 235.753906 L 110.199219 228.382812 L 139.089844 238.289062 L 139.089844 231.476562 L 110.199219 221.570312 L 110.199219 214.195312 L 139.089844 224.101562 L 139.089844 217.292969 L 110.199219 207.386719 L 110.199219 200.011719 L 139.089844 209.917969 L 139.089844 203.105469 L 110.199219 193.199219 L 110.199219 185.828125 L 139.089844 195.734375 L 139.089844 188.921875 L 110.199219 179.015625 L 110.199219 171.640625 L 139.089844 181.546875 L 139.089844 174.738281 L 110.199219 164.832031 L 110.199219 157.457031 L 139.089844 167.363281 L 139.089844 160.550781 L 110.199219 150.644531 L 110.199219 143.273438 L 139.089844 153.179688 L 139.089844 143.871094 Z M 101.347656 130.929688 " fill-opacity="1" fill-rule="evenodd"/><path fill="#38b6ff" d="M 94.695312 285.492188 L 94.695312 130.75 L 69.890625 149.402344 L 69.890625 299.429688 Z M 94.695312 285.492188 " fill-opacity="1" fill-rule="evenodd"/><g clip-path="url(#94caafccd1)"><path fill="#38b6ff" d="M 187.5 245.347656 L 228.9375 268.628906 L 228.9375 249.085938 L 250.917969 249.085938 L 250.917969 280.976562 L 304.28125 310.957031 L 374.925781 310.957031 L 374.925781 319.921875 L 281.476562 319.921875 L 187.5 267.121094 L 93.519531 319.921875 L 0.0742188 319.921875 L 0.0742188 310.957031 L 70.71875 310.957031 Z M 187.5 245.347656 " fill-opacity="1" fill-rule="evenodd"/></g><path fill="#004aad" d="M 173.277344 288.730469 L 184.351562 288.730469 L 184.351562 299.804688 L 173.277344 299.804688 Z M 184.351562 306.101562 L 184.351562 317.175781 L 173.277344 317.175781 L 173.277344 306.101562 Z M 190.648438 288.730469 L 201.722656 288.730469 L 201.722656 299.804688 L 190.648438 299.804688 Z M 201.722656 306.101562 L 201.722656 317.175781 L 190.648438 317.175781 L 190.648438 306.101562 Z M 201.722656 306.101562 " fill-opacity="1" fill-rule="evenodd"/></svg>