<svg xmlns="http://www.w3.org/2000/svg" xmlns:xlink="http://www.w3.org/1999/xlink" width="500" zoomAndPan="magnify" viewBox="0 0 375 374.999991" height="500" preserveAspectRatio="xMidYMid meet" version="1.0"><defs><clipPath id="328ae3fc53"><path d="M 31 190 L 366.382812 190 L 366.382812 306.605469 L 31 306.605469 Z M 31 190 " clip-rule="nonzero"/></clipPath><clipPath id="59192be591"><path d="M 12 68.105469 L 342 68.105469 L 342 302 L 12 302 Z M 12 68.105469 " clip-rule="nonzero"/></clipPath></defs><g clip-path="url(#328ae3fc53)"><path fill="#748d92" d="M 141.726562 190.296875 L 149.847656 190.296875 L 149.847656 198.417969 L 141.726562 198.417969 Z M 141.726562 210.242188 L 149.847656 210.242188 L 149.847656 202.121094 L 141.726562 202.121094 Z M 154.972656 198.417969 L 163.09375 198.417969 L 163.09375 190.296875 L 154.972656 190.296875 Z M 154.972656 210.242188 L 163.09375 210.242188 L 163.09375 202.121094 L 154.972656 202.121094 Z M 261.808594 236.816406 L 271.035156 236.816406 L 271.035156 227.589844 L 261.808594 227.589844 Z M 261.808594 250.296875 L 271.035156 250.296875 L 271.035156 241.074219 L 261.808594 241.074219 Z M 276.867188 236.816406 L 286.171875 236.816406 L 286.171875 227.589844 L 276.949219 227.589844 L 276.949219 236.816406 Z M 276.867188 250.296875 L 286.171875 250.296875 L 286.171875 241.074219 L 276.949219 241.074219 L 276.949219 250.296875 Z M 85.351562 270.71875 L 92.839844 270.71875 L 92.839844 263.230469 L 85.351562 263.230469 Z M 85.351562 281.679688 L 92.839844 281.679688 L 92.839844 274.1875 L 85.351562 274.1875 Z M 97.570312 270.71875 L 105.0625 270.71875 L 105.0625 263.230469 L 97.570312 263.230469 Z M 97.570312 281.679688 L 105.0625 281.679688 L 105.0625 274.1875 L 97.570312 274.1875 Z M 61.066406 276.238281 L 31.339844 276.554688 L 31.183594 304.542969 L 39.539062 284.359375 L 62.167969 284.203125 L 113.261719 237.128906 Z M 366.359375 303.441406 L 194.710938 297.054688 L 194.710938 276.476562 L 278.761719 209.535156 L 330.328125 255.1875 L 278.601562 198.417969 L 190.53125 269.0625 L 123.511719 271.351562 L 123.277344 277.65625 L 140.621094 277.578125 L 140.621094 304.859375 L 157.730469 304.859375 L 157.730469 277.5 L 182.09375 277.34375 L 182.09375 306.671875 L 194.710938 306.671875 L 194.710938 306.59375 Z M 366.359375 303.441406 " fill-opacity="1" fill-rule="evenodd"/></g><g clip-path="url(#59192be591)"><path fill="#1577bd" d="M 276.949219 177.839844 L 275.371094 178.3125 C 264.726562 115.863281 210.402344 68.320312 144.957031 68.320312 C 71.867188 68.320312 12.574219 127.613281 12.574219 200.703125 C 12.574219 223.964844 18.566406 245.804688 29.132812 264.804688 C 8.632812 204.726562 28.503906 130.609375 80.933594 97.019531 C 99.386719 85.195312 121.304688 78.332031 144.878906 78.332031 C 200.625 78.332031 257.316406 123.90625 275.371094 178.230469 L 244.226562 186.90625 L 244.226562 177.601562 L 223.804688 177.601562 L 223.804688 192.582031 L 196.050781 200.308594 L 196.050781 181.621094 L 204.566406 185.09375 L 206.773438 177.839844 C 189.507812 166.484375 172.160156 155.050781 154.894531 143.777344 C 138.175781 154.734375 120.121094 166.640625 103.011719 177.839844 L 105.21875 185.09375 C 121.066406 178.546875 137.625 171.6875 154.5 164.75 L 190.296875 179.335938 L 190.296875 190.375 L 153.867188 175.867188 L 136.679688 181.78125 L 136.679688 181.070312 L 113.183594 190.136719 L 113.183594 216.078125 L 101.039062 216.078125 L 76.28125 234.84375 L 76.28125 231.058594 L 55.941406 231.058594 L 55.941406 250.296875 L 32.207031 268.273438 L 61.695312 267.644531 L 113.339844 232.164062 L 113.339844 301.390625 L 124.222656 301.234375 L 124.773438 258.8125 L 188.640625 255.265625 L 276.710938 184.304688 L 341.363281 251.636719 Z M 137.625 246.511719 L 136.757812 186.90625 L 153.238281 181.386719 L 190.214844 196.917969 L 190.214844 201.808594 L 189.820312 201.886719 Z M 137.625 246.511719 " fill-opacity="1" fill-rule="evenodd"/></g></svg>