<svg xmlns="http://www.w3.org/2000/svg" xmlns:xlink="http://www.w3.org/1999/xlink" width="500" zoomAndPan="magnify" viewBox="0 0 375 374.999991" height="500" preserveAspectRatio="xMidYMid meet" version="1.0"><defs><clipPath id="bb2c6a04d2"><path d="M 37.5 74.625 L 208 74.625 L 208 245 L 37.5 245 Z M 37.5 74.625 " clip-rule="nonzero"/></clipPath><clipPath id="ab8ab21bd6"><path d="M 315.363281 166 L 337.246094 166 L 337.246094 216.695312 L 315.363281 216.695312 Z M 315.363281 166 " clip-rule="nonzero"/></clipPath><clipPath id="1de25fc9b3"><path d="M 37.738281 296.203125 L 332.960938 296.203125 L 332.960938 300.355469 L 37.738281 300.355469 Z M 37.738281 296.203125 " clip-rule="nonzero"/></clipPath></defs><g clip-path="url(#bb2c6a04d2)"><path fill="#f4f4f4" d="M 146.703125 237.308594 C 156.925781 231.214844 165.710938 221.378906 172.167969 209.054688 C 184.492188 202.597656 194.328125 193.8125 200.421875 183.59375 C 192.472656 209.152344 172.265625 229.359375 146.703125 237.308594 Z M 44.628906 183.59375 C 50.722656 193.8125 60.5625 202.597656 72.882812 209.054688 C 79.339844 221.378906 88.125 231.214844 98.34375 237.308594 C 72.785156 229.359375 52.578125 209.152344 44.628906 183.59375 Z M 98.347656 81.515625 C 88.125 87.609375 79.339844 97.449219 72.882812 109.769531 C 60.5625 116.230469 50.722656 125.011719 44.628906 135.234375 C 52.578125 109.675781 72.789062 89.464844 98.347656 81.515625 Z M 182.921875 173.761719 C 183.5 169.09375 183.816406 164.304688 183.816406 159.414062 C 183.816406 154.519531 183.5 149.730469 182.921875 145.0625 C 196.382812 149.117188 204.082031 154.351562 204.082031 159.414062 C 204.082031 164.476562 196.382812 169.707031 182.921875 173.761719 Z M 182.457031 177.160156 C 191.746094 174.511719 199.097656 171.179688 203.320312 167.234375 C 200.519531 181.976562 189.9375 194.980469 174.597656 204.058594 C 178.265625 195.90625 180.960938 186.839844 182.457031 177.160156 Z M 141.191406 215.921875 C 143.621094 206.390625 145.382812 195.148438 146.394531 183.285156 C 158.261719 182.269531 169.503906 180.507812 179.035156 178.082031 C 177.285156 188.53125 174.105469 198.203125 169.796875 206.683594 C 161.316406 210.992188 151.640625 214.171875 141.191406 215.921875 Z M 140.273438 219.34375 C 149.953125 217.847656 159.019531 215.152344 167.171875 211.484375 C 158.09375 226.824219 145.085938 237.410156 130.347656 240.207031 C 134.289062 235.984375 137.625 228.636719 140.273438 219.34375 Z M 108.171875 219.808594 C 112.84375 220.386719 117.632812 220.707031 122.523438 220.707031 C 127.417969 220.707031 132.207031 220.386719 136.875 219.808594 C 132.820312 233.269531 127.585938 240.96875 122.523438 240.96875 C 117.460938 240.96875 112.230469 233.269531 108.171875 219.808594 Z M 104.777344 219.34375 C 107.425781 228.636719 110.761719 235.984375 114.703125 240.207031 C 99.964844 237.410156 86.960938 226.824219 77.875 211.488281 C 86.03125 215.152344 95.097656 217.847656 104.777344 219.34375 Z M 66.015625 178.082031 C 75.546875 180.507812 86.789062 182.269531 98.65625 183.285156 C 99.667969 195.148438 101.425781 206.390625 103.855469 215.921875 C 93.410156 214.171875 83.730469 210.992188 75.253906 206.683594 C 70.945312 198.203125 67.765625 188.53125 66.015625 178.082031 Z M 62.59375 177.160156 C 64.089844 186.839844 66.785156 195.90625 70.449219 204.058594 C 55.113281 194.980469 44.53125 181.976562 41.730469 167.234375 C 45.953125 171.179688 53.304688 174.515625 62.59375 177.160156 Z M 62.128906 145.0625 C 61.550781 149.730469 61.234375 154.519531 61.234375 159.414062 C 61.234375 164.304688 61.550781 169.09375 62.128906 173.761719 C 48.667969 169.707031 40.96875 164.476562 40.96875 159.414062 C 40.96875 154.351562 48.667969 149.117188 62.128906 145.0625 Z M 62.59375 141.667969 C 53.304688 144.3125 45.953125 147.648438 41.730469 151.59375 C 44.53125 136.851562 55.113281 123.847656 70.449219 114.765625 C 66.785156 122.917969 64.089844 131.988281 62.59375 141.667969 Z M 103.855469 102.902344 C 101.425781 112.4375 99.667969 123.679688 98.65625 135.542969 C 86.789062 136.554688 75.546875 138.316406 66.015625 140.746094 C 67.765625 130.296875 70.945312 120.621094 75.253906 112.144531 C 83.730469 107.832031 93.410156 104.652344 103.855469 102.902344 Z M 104.777344 99.480469 C 95.097656 100.976562 86.027344 103.671875 77.875 107.339844 C 86.957031 92.003906 99.964844 81.417969 114.703125 78.617188 C 110.761719 82.839844 107.425781 90.191406 104.777344 99.480469 Z M 136.875 99.019531 C 132.207031 98.4375 127.417969 98.121094 122.523438 98.121094 C 117.632812 98.121094 112.84375 98.4375 108.171875 99.019531 C 112.230469 85.554688 117.460938 77.855469 122.523438 77.855469 C 127.585938 77.855469 132.820312 85.554688 136.875 99.019531 Z M 140.273438 99.480469 C 137.625 90.191406 134.289062 82.839844 130.347656 78.617188 C 145.085938 81.417969 158.09375 92.003906 167.171875 107.339844 C 159.023438 103.671875 149.953125 100.976562 140.273438 99.480469 Z M 101.847656 135.292969 C 102.921875 122.453125 104.816406 111.335938 107.214844 102.390625 C 112.175781 101.714844 117.289062 101.351562 122.523438 101.351562 C 127.761719 101.351562 132.875 101.714844 137.835938 102.390625 C 140.234375 111.335938 142.128906 122.453125 143.199219 135.292969 C 136.40625 134.789062 129.445312 134.527344 122.523438 134.527344 C 115.601562 134.527344 108.644531 134.789062 101.847656 135.292969 Z M 64.464844 159.414062 C 64.464844 154.179688 64.832031 149.0625 65.503906 144.101562 C 74.449219 141.703125 85.566406 139.8125 98.402344 138.734375 C 97.902344 145.535156 97.640625 152.492188 97.640625 159.414062 C 97.640625 166.335938 97.902344 173.292969 98.402344 180.089844 C 85.566406 179.015625 74.449219 177.121094 65.503906 174.726562 C 64.832031 169.761719 64.464844 164.648438 64.464844 159.414062 Z M 143.199219 183.535156 C 142.128906 196.371094 140.230469 207.492188 137.835938 216.433594 C 132.871094 217.109375 127.761719 217.476562 122.523438 217.476562 C 117.289062 217.476562 112.175781 217.109375 107.214844 216.433594 C 104.816406 207.492188 102.921875 196.371094 101.847656 183.535156 C 108.644531 184.035156 115.601562 184.296875 122.523438 184.296875 C 129.445312 184.296875 136.402344 184.035156 143.199219 183.535156 Z M 122.523438 181.066406 C 115.164062 181.066406 108.171875 180.808594 101.597656 180.339844 C 101.128906 173.761719 100.871094 166.773438 100.871094 159.414062 C 100.871094 152.050781 101.128906 145.058594 101.597656 138.488281 C 108.171875 138.019531 115.164062 137.757812 122.523438 137.757812 C 129.886719 137.757812 136.875 138.019531 143.453125 138.488281 C 143.921875 145.058594 144.179688 152.050781 144.179688 159.414062 C 144.179688 166.773438 143.921875 173.761719 143.453125 180.339844 C 136.875 180.808594 129.886719 181.066406 122.523438 181.066406 Z M 180.589844 159.414062 C 180.589844 164.648438 180.222656 169.761719 179.546875 174.726562 C 170.601562 177.121094 159.484375 179.015625 146.648438 180.089844 C 147.144531 173.292969 147.40625 166.335938 147.40625 159.414062 C 147.40625 152.492188 147.144531 145.535156 146.648438 138.734375 C 159.484375 139.8125 170.601562 141.703125 179.546875 144.101562 C 180.222656 149.0625 180.589844 154.179688 180.589844 159.414062 Z M 174.597656 114.765625 C 189.9375 123.847656 200.519531 136.851562 203.320312 151.59375 C 199.097656 147.648438 191.746094 144.3125 182.457031 141.667969 C 180.960938 131.988281 178.265625 122.917969 174.597656 114.765625 Z M 179.035156 140.746094 C 169.503906 138.316406 158.261719 136.554688 146.394531 135.542969 C 145.382812 123.679688 143.621094 112.4375 141.191406 102.902344 C 151.640625 104.652344 161.316406 107.832031 169.796875 112.144531 C 174.105469 120.621094 177.285156 130.296875 179.035156 140.746094 Z M 200.421875 135.234375 C 194.328125 125.011719 184.492188 116.230469 172.167969 109.769531 C 165.710938 97.449219 156.925781 87.609375 146.703125 81.515625 C 172.265625 89.464844 192.472656 109.675781 200.421875 135.234375 Z M 122.523438 74.625 C 75.773438 74.625 37.738281 112.660156 37.738281 159.414062 C 37.738281 206.164062 75.773438 244.199219 122.523438 244.199219 C 169.277344 244.199219 207.3125 206.164062 207.3125 159.414062 C 207.3125 112.660156 169.277344 74.625 122.523438 74.625 " fill-opacity="1" fill-rule="nonzero"/></g><path fill="#9dc7f9" d="M 282.558594 245.222656 L 125.621094 245.222656 C 123.914062 245.222656 122.535156 243.839844 122.535156 242.136719 L 122.535156 132.007812 C 122.535156 130.300781 123.914062 128.921875 125.621094 128.921875 L 282.558594 128.921875 C 284.261719 128.921875 285.644531 130.300781 285.644531 132.007812 L 285.644531 242.136719 C 285.644531 243.839844 284.261719 245.222656 282.558594 245.222656 " fill-opacity="1" fill-rule="nonzero"/><path fill="#9dc7f9" d="M 282.558594 128.921875 L 125.496094 128.921875 C 123.792969 128.921875 122.410156 130.277344 122.410156 131.945312 L 122.410156 140.121094 L 285.644531 140.121094 L 285.644531 131.945312 C 285.644531 130.277344 284.261719 128.921875 282.558594 128.921875 " fill-opacity="1" fill-rule="nonzero"/><path fill="#ffffff" d="M 131.035156 134.597656 C 131.035156 136.089844 129.828125 137.300781 128.332031 137.300781 C 126.839844 137.300781 125.632812 136.089844 125.632812 134.597656 C 125.632812 133.105469 126.839844 131.894531 128.332031 131.894531 C 129.828125 131.894531 131.035156 133.105469 131.035156 134.597656 " fill-opacity="1" fill-rule="nonzero"/><path fill="#ffcc4d" d="M 139.320312 134.597656 C 139.320312 136.089844 138.109375 137.300781 136.621094 137.300781 C 135.125 137.300781 133.914062 136.089844 133.914062 134.597656 C 133.914062 133.105469 135.125 131.894531 136.621094 131.894531 C 138.109375 131.894531 139.320312 133.105469 139.320312 134.597656 " fill-opacity="1" fill-rule="nonzero"/><path fill="#f54553" d="M 147.816406 134.597656 C 147.816406 136.089844 146.609375 137.300781 145.117188 137.300781 C 143.625 137.300781 142.414062 136.089844 142.414062 134.597656 C 142.414062 133.105469 143.625 131.894531 145.117188 131.894531 C 146.609375 131.894531 147.816406 133.105469 147.816406 134.597656 " fill-opacity="1" fill-rule="nonzero"/><path fill="#254799" d="M 285.644531 163.25 L 122.535156 163.25 L 122.535156 140.121094 L 285.644531 140.121094 L 285.644531 163.25 " fill-opacity="1" fill-rule="nonzero"/><path fill="#ffcc4d" d="M 236.410156 155.738281 L 171.769531 155.738281 C 170.847656 155.738281 170.101562 154.988281 170.101562 154.066406 L 170.101562 149.304688 C 170.101562 148.382812 170.847656 147.632812 171.769531 147.632812 L 236.410156 147.632812 C 237.332031 147.632812 238.078125 148.382812 238.078125 149.304688 L 238.078125 154.066406 C 238.078125 154.988281 237.332031 155.738281 236.410156 155.738281 " fill-opacity="1" fill-rule="nonzero"/><path fill="#346ee3" d="M 225.414062 177.066406 L 182.761719 177.066406 C 181.839844 177.066406 181.09375 176.320312 181.09375 175.398438 L 181.09375 170.632812 C 181.09375 169.710938 181.839844 168.964844 182.761719 168.964844 L 225.414062 168.964844 C 226.335938 168.964844 227.082031 169.710938 227.082031 170.632812 L 227.082031 175.398438 C 227.082031 176.320312 226.335938 177.066406 225.414062 177.066406 " fill-opacity="1" fill-rule="nonzero"/><path fill="#346ee3" d="M 278.96875 188.847656 L 236.269531 188.847656 C 235.359375 188.847656 234.625 188.109375 234.625 187.199219 L 234.625 182.945312 C 234.625 182.035156 235.359375 181.296875 236.269531 181.296875 L 278.96875 181.296875 C 279.875 181.296875 280.613281 182.035156 280.613281 182.945312 L 280.613281 187.199219 C 280.613281 188.109375 279.875 188.847656 278.96875 188.847656 " fill-opacity="1" fill-rule="nonzero"/><path fill="#346ee3" d="M 225.695312 223.46875 L 182.484375 223.46875 C 181.714844 223.46875 181.09375 222.847656 181.09375 222.082031 L 181.09375 220.808594 C 181.09375 220.042969 181.714844 219.417969 182.484375 219.417969 L 225.695312 219.417969 C 226.460938 219.417969 227.082031 220.042969 227.082031 220.808594 L 227.082031 222.082031 C 227.082031 222.847656 226.460938 223.46875 225.695312 223.46875 " fill-opacity="1" fill-rule="nonzero"/><path fill="#ffffff" d="M 225.367188 241.261719 L 182.8125 241.261719 C 181.863281 241.261719 181.09375 240.492188 181.09375 239.542969 L 181.09375 228.003906 C 181.09375 227.058594 181.863281 226.289062 182.8125 226.289062 L 225.367188 226.289062 C 226.316406 226.289062 227.082031 227.058594 227.082031 228.003906 L 227.082031 239.542969 C 227.082031 240.492188 226.316406 241.261719 225.367188 241.261719 " fill-opacity="1" fill-rule="nonzero"/><path fill="#ffffff" d="M 168.382812 213.871094 L 129.28125 213.871094 C 128.332031 213.871094 127.5625 213.101562 127.5625 212.15625 L 127.5625 183.015625 C 127.5625 182.066406 128.332031 181.296875 129.28125 181.296875 L 168.382812 181.296875 C 169.332031 181.296875 170.101562 182.066406 170.101562 183.015625 L 170.101562 212.15625 C 170.101562 213.101562 169.332031 213.871094 168.382812 213.871094 " fill-opacity="1" fill-rule="nonzero"/><path fill="#ffffff" d="M 168.382812 241.261719 L 129.28125 241.261719 C 128.332031 241.261719 127.5625 240.492188 127.5625 239.542969 L 127.5625 221.136719 C 127.5625 220.1875 128.332031 219.417969 129.28125 219.417969 L 168.382812 219.417969 C 169.332031 219.417969 170.101562 220.1875 170.101562 221.136719 L 170.101562 239.542969 C 170.101562 240.492188 169.332031 241.261719 168.382812 241.261719 " fill-opacity="1" fill-rule="nonzero"/><path fill="#ffffff" d="M 278.898438 241.261719 L 236.339844 241.261719 C 235.394531 241.261719 234.625 240.492188 234.625 239.542969 L 234.625 221.136719 C 234.625 220.1875 235.394531 219.417969 236.339844 219.417969 L 278.898438 219.417969 C 279.847656 219.417969 280.613281 220.1875 280.613281 221.136719 L 280.613281 239.542969 C 280.613281 240.492188 279.847656 241.261719 278.898438 241.261719 " fill-opacity="1" fill-rule="nonzero"/><path fill="#ffffff" d="M 225.367188 213.871094 L 182.8125 213.871094 C 181.863281 213.871094 181.09375 213.101562 181.09375 212.15625 L 181.09375 183.015625 C 181.09375 182.066406 181.863281 181.296875 182.8125 181.296875 L 225.367188 181.296875 C 226.316406 181.296875 227.082031 182.066406 227.082031 183.015625 L 227.082031 212.15625 C 227.082031 213.101562 226.316406 213.871094 225.367188 213.871094 " fill-opacity="1" fill-rule="nonzero"/><path fill="#346ee3" d="M 181.09375 199.835938 L 193.9375 190.933594 L 208.125 201.644531 L 217.953125 196.289062 L 227.082031 201.644531 L 227.082031 212.15625 C 227.082031 213.101562 226.316406 213.871094 225.367188 213.871094 L 182.8125 213.871094 C 181.863281 213.871094 181.09375 213.101562 181.09375 212.15625 L 181.09375 199.835938 " fill-opacity="1" fill-rule="nonzero"/><path fill="#346ee3" d="M 211.742188 193.179688 C 211.742188 194.636719 210.5625 195.820312 209.105469 195.820312 C 207.648438 195.820312 206.46875 194.636719 206.46875 193.179688 C 206.46875 191.726562 207.648438 190.542969 209.105469 190.542969 C 210.5625 190.542969 211.742188 191.726562 211.742188 193.179688 " fill-opacity="1" fill-rule="nonzero"/><path fill="#ffffff" d="M 271.011719 213.871094 L 244.226562 213.871094 C 243.347656 213.871094 242.636719 213.160156 242.636719 212.285156 L 242.636719 194.765625 C 242.636719 193.890625 243.347656 193.179688 244.226562 193.179688 L 271.011719 193.179688 C 271.886719 193.179688 272.601562 193.890625 272.601562 194.765625 L 272.601562 212.285156 C 272.601562 213.160156 271.886719 213.871094 271.011719 213.871094 " fill-opacity="1" fill-rule="nonzero"/><path fill="#346ee3" d="M 254.242188 203.488281 L 258.160156 204.070312 L 257.605469 207.03125 L 253.847656 205.597656 Z M 250.304688 202.90625 L 253.25 203.34375 L 252.894531 205.234375 L 250.304688 204.246094 Z M 254.925781 199.847656 L 258.953125 199.847656 L 258.347656 203.085938 L 254.425781 202.503906 Z M 253.433594 202.355469 L 250.304688 201.890625 L 250.304688 199.847656 L 253.90625 199.847656 Z M 261.515625 208.523438 L 258.558594 207.398438 L 259.15625 204.21875 L 262.40625 204.703125 Z M 262.636719 203.722656 L 259.339844 203.234375 L 259.972656 199.847656 L 263.542969 199.847656 Z M 266.988281 194.75 C 266.464844 194.75 266.042969 195.164062 266.023438 195.683594 L 264.289062 196.644531 L 263.777344 198.847656 L 249.804688 198.847656 C 249.527344 198.847656 249.304688 199.070312 249.304688 199.347656 L 249.304688 204.59375 C 249.304688 204.597656 249.304688 204.597656 249.304688 204.601562 C 249.304688 204.640625 249.316406 204.679688 249.328125 204.71875 C 249.332031 204.746094 249.332031 204.769531 249.34375 204.796875 C 249.355469 204.824219 249.378906 204.847656 249.398438 204.871094 C 249.414062 204.898438 249.429688 204.925781 249.453125 204.953125 C 249.46875 204.96875 249.492188 204.976562 249.507812 204.988281 C 249.542969 205.015625 249.578125 205.042969 249.617188 205.058594 C 249.621094 205.058594 249.625 205.0625 249.625 205.0625 L 260.15625 209.078125 L 248.988281 209.027344 C 248.710938 209.027344 248.488281 209.253906 248.488281 209.53125 C 248.488281 209.808594 248.710938 210.03125 248.988281 210.03125 L 250.027344 210.03125 C 249.820312 210.273438 249.683594 210.578125 249.683594 210.917969 C 249.683594 211.679688 250.304688 212.300781 251.070312 212.300781 C 251.835938 212.300781 252.457031 211.679688 252.457031 210.917969 C 252.457031 210.578125 252.320312 210.273438 252.117188 210.03125 L 258.328125 210.03125 C 258.125 210.273438 257.988281 210.578125 257.988281 210.917969 C 257.988281 211.679688 258.609375 212.300781 259.375 212.300781 C 260.140625 212.300781 260.761719 211.679688 260.761719 210.917969 C 260.761719 210.578125 260.625 210.273438 260.421875 210.03125 L 261.457031 210.03125 C 261.859375 210.03125 262.203125 209.769531 262.328125 209.394531 C 262.335938 209.386719 262.34375 209.386719 262.34375 209.378906 C 262.347656 209.367188 262.347656 209.355469 262.351562 209.347656 C 262.351562 209.335938 262.363281 209.324219 262.363281 209.3125 L 265.164062 197.308594 L 266.515625 196.558594 C 266.660156 196.636719 266.816406 196.695312 266.988281 196.695312 C 267.523438 196.695312 267.960938 196.257812 267.960938 195.722656 C 267.960938 195.183594 267.523438 194.75 266.988281 194.75 " fill-opacity="1" fill-rule="nonzero"/><path fill="#254799" d="M 321.757812 243.203125 L 321.765625 243.203125 Z M 315.511719 249.46875 Z M 261.800781 287.417969 C 261.800781 286.949219 262.179688 286.570312 262.648438 286.570312 L 305.171875 286.570312 L 313.855469 249.089844 C 313.921875 248.816406 314.058594 248.5625 314.261719 248.355469 L 320.699219 241.949219 C 320.984375 241.664062 321.363281 241.507812 321.765625 241.507812 L 325.566406 241.507812 C 326.03125 241.507812 326.414062 241.890625 326.414062 242.355469 C 326.414062 242.824219 326.03125 243.203125 325.566406 243.203125 L 321.84375 243.203125 L 315.5 249.519531 L 306.792969 287.09375 C 306.632812 287.785156 306.027344 288.265625 305.320312 288.265625 L 262.648438 288.265625 C 262.179688 288.265625 261.800781 287.882812 261.800781 287.417969 " fill-opacity="1" fill-rule="nonzero"/><path fill="#254799" d="M 253.503906 249.804688 L 314.863281 249.804688 C 315.332031 249.804688 315.710938 249.425781 315.710938 248.957031 C 315.710938 248.488281 315.332031 248.109375 314.863281 248.109375 L 253.503906 248.109375 C 253.035156 248.109375 252.65625 248.488281 252.65625 248.957031 C 252.65625 249.425781 253.035156 249.804688 253.503906 249.804688 " fill-opacity="1" fill-rule="nonzero"/><path fill="#254799" d="M 257.457031 260.914062 L 312.183594 260.914062 C 312.652344 260.914062 313.03125 260.535156 313.03125 260.066406 C 313.03125 259.597656 312.652344 259.214844 312.183594 259.214844 L 257.457031 259.214844 C 256.988281 259.214844 256.609375 259.597656 256.609375 260.066406 C 256.609375 260.535156 256.988281 260.914062 257.457031 260.914062 " fill-opacity="1" fill-rule="nonzero"/><path fill="#254799" d="M 259.023438 271.25 L 309.789062 271.25 C 310.257812 271.25 310.636719 270.867188 310.636719 270.402344 C 310.636719 269.933594 310.257812 269.554688 309.789062 269.554688 L 259.023438 269.554688 C 258.554688 269.554688 258.175781 269.933594 258.175781 270.402344 C 258.175781 270.867188 258.554688 271.25 259.023438 271.25 " fill-opacity="1" fill-rule="nonzero"/><path fill="#254799" d="M 260.953125 281.472656 C 261.046875 281.472656 261.144531 281.460938 261.238281 281.425781 C 261.675781 281.269531 261.90625 280.785156 261.75 280.339844 L 254.300781 248.671875 C 254.144531 248.230469 253.660156 247.996094 253.21875 248.160156 C 252.777344 248.3125 252.546875 248.800781 252.703125 249.242188 L 260.152344 280.910156 C 260.273438 281.257812 260.601562 281.472656 260.953125 281.472656 " fill-opacity="1" fill-rule="nonzero"/><path fill="#254799" d="M 260.996094 281.589844 L 307.394531 281.589844 C 307.863281 281.589844 308.242188 281.207031 308.242188 280.738281 C 308.242188 280.273438 307.863281 279.890625 307.394531 279.890625 L 260.996094 279.890625 C 260.53125 279.890625 260.148438 280.273438 260.148438 280.738281 C 260.148438 281.207031 260.53125 281.589844 260.996094 281.589844 " fill-opacity="1" fill-rule="nonzero"/><path fill="#254799" d="M 293.453125 281.589844 C 293.847656 281.589844 294.199219 281.3125 294.28125 280.910156 L 300.886719 249.128906 C 300.984375 248.671875 300.6875 248.222656 300.230469 248.125 C 299.773438 248.03125 299.324219 248.328125 299.226562 248.785156 L 292.625 280.566406 C 292.527344 281.027344 292.820312 281.472656 293.28125 281.570312 C 293.339844 281.582031 293.398438 281.589844 293.453125 281.589844 " fill-opacity="1" fill-rule="nonzero"/><path fill="#254799" d="M 275.0625 281.589844 C 275.117188 281.589844 275.167969 281.585938 275.222656 281.574219 C 275.679688 281.488281 275.984375 281.042969 275.898438 280.582031 L 269.960938 248.800781 C 269.875 248.339844 269.429688 248.035156 268.972656 248.125 C 268.511719 248.210938 268.207031 248.648438 268.292969 249.109375 L 274.230469 280.898438 C 274.308594 281.304688 274.664062 281.589844 275.0625 281.589844 " fill-opacity="1" fill-rule="nonzero"/><path fill="#254799" d="M 296.730469 293.550781 C 296.730469 294.625 297.605469 295.503906 298.683594 295.503906 C 299.765625 295.503906 300.640625 294.625 300.640625 293.550781 C 300.640625 292.46875 299.765625 291.589844 298.683594 291.589844 C 297.605469 291.589844 296.730469 292.46875 296.730469 293.550781 Z M 295.03125 293.550781 C 295.03125 291.535156 296.671875 289.894531 298.683594 289.894531 C 300.699219 289.894531 302.335938 291.535156 302.335938 293.550781 C 302.335938 295.5625 300.699219 297.199219 298.683594 297.199219 C 296.671875 297.199219 295.03125 295.5625 295.03125 293.550781 " fill-opacity="1" fill-rule="nonzero"/><path fill="#254799" d="M 322.757812 242.355469 C 322.757812 243.628906 323.789062 244.660156 325.0625 244.660156 C 326.335938 244.660156 327.367188 243.628906 327.367188 242.355469 C 327.367188 241.085938 326.335938 240.054688 325.0625 240.054688 C 323.789062 240.054688 322.757812 241.085938 322.757812 242.355469 " fill-opacity="1" fill-rule="nonzero"/><path fill="#254799" d="M 268.519531 293.550781 C 268.519531 294.625 269.394531 295.503906 270.472656 295.503906 C 271.550781 295.503906 272.429688 294.625 272.429688 293.550781 C 272.429688 292.46875 271.550781 291.589844 270.472656 291.589844 C 269.394531 291.589844 268.519531 292.46875 268.519531 293.550781 Z M 266.824219 293.550781 C 266.824219 291.535156 268.460938 289.894531 270.472656 289.894531 C 272.488281 289.894531 274.125 291.535156 274.125 293.550781 C 274.125 295.5625 272.488281 297.199219 270.472656 297.199219 C 268.460938 297.199219 266.824219 295.5625 266.824219 293.550781 " fill-opacity="1" fill-rule="nonzero"/><path fill="#ffcc4d" d="M 299.523438 162.375 C 299.609375 170.039062 293.464844 176.324219 285.800781 176.410156 C 278.136719 176.496094 271.851562 170.355469 271.765625 162.6875 C 271.675781 155.019531 277.824219 148.734375 285.488281 148.648438 C 293.15625 148.5625 299.4375 154.707031 299.523438 162.375 " fill-opacity="1" fill-rule="nonzero"/><path fill="#ffffff" d="M 277.875 161.964844 L 277.132812 165.882812 L 286.160156 171.058594 L 293.710938 158.171875 L 293.675781 154.640625 L 285.167969 165.25 L 277.875 161.964844 " fill-opacity="1" fill-rule="nonzero"/><path fill="#346ee3" d="M 146.902344 242.445312 C 146.632812 242.445312 146.414062 242.226562 146.414062 241.953125 C 146.414062 231.742188 143.296875 224.878906 140.382812 224.878906 C 137.472656 224.878906 134.351562 231.742188 134.351562 241.953125 C 134.351562 242.226562 134.132812 242.445312 133.863281 242.445312 C 133.59375 242.445312 133.375 242.226562 133.375 241.953125 C 133.375 231.832031 136.453125 223.902344 140.382812 223.902344 C 144.3125 223.902344 147.390625 231.832031 147.390625 241.953125 C 147.390625 242.226562 147.171875 242.445312 146.902344 242.445312 " fill-opacity="1" fill-rule="nonzero"/><path fill="#f7bf41" d="M 162.335938 297.199219 L 119.96875 297.199219 L 119.96875 238.152344 L 162.335938 238.152344 L 162.335938 297.199219 " fill-opacity="1" fill-rule="nonzero"/><path fill="#ffcc4d" d="M 151.214844 297.199219 L 119.96875 297.199219 L 119.96875 238.152344 L 151.214844 238.152344 L 151.214844 297.199219 " fill-opacity="1" fill-rule="nonzero"/><path fill="#ffcc4d" d="M 151.214844 297.199219 L 156.410156 290.648438 L 162.335938 297.199219 Z M 151.214844 297.199219 " fill-opacity="1" fill-rule="nonzero"/><path fill="#346ee3" d="M 143.246094 242.445312 C 142.976562 242.445312 142.757812 242.226562 142.757812 241.953125 C 142.757812 231.742188 139.636719 224.878906 136.722656 224.878906 C 133.8125 224.878906 130.695312 231.742188 130.695312 241.953125 C 130.695312 242.226562 130.476562 242.445312 130.207031 242.445312 C 129.9375 242.445312 129.71875 242.226562 129.71875 241.953125 C 129.71875 231.832031 132.796875 223.902344 136.722656 223.902344 C 140.652344 223.902344 143.730469 231.832031 143.730469 241.953125 C 143.730469 242.226562 143.515625 242.445312 143.246094 242.445312 " fill-opacity="1" fill-rule="nonzero"/><path fill="#346ee3" d="M 120.011719 262.722656 C 119.765625 262.722656 119.566406 262.523438 119.566406 262.273438 C 119.566406 256.398438 115.90625 251.617188 111.40625 251.617188 C 106.910156 251.617188 103.246094 256.398438 103.246094 262.273438 C 103.246094 262.523438 103.050781 262.722656 102.800781 262.722656 C 102.554688 262.722656 102.355469 262.523438 102.355469 262.273438 C 102.355469 255.90625 106.417969 250.722656 111.40625 250.722656 C 116.394531 250.722656 120.460938 255.90625 120.460938 262.273438 C 120.460938 262.523438 120.257812 262.722656 120.011719 262.722656 " fill-opacity="1" fill-rule="nonzero"/><path fill="#ef354c" d="M 140.382812 297.199219 L 84.460938 297.199219 L 84.460938 259.871094 L 140.382812 259.871094 L 140.382812 297.199219 " fill-opacity="1" fill-rule="nonzero"/><path fill="#f54553" d="M 125.707031 297.199219 L 84.460938 297.199219 L 84.460938 259.871094 L 125.707031 259.871094 L 125.707031 297.199219 " fill-opacity="1" fill-rule="nonzero"/><path fill="#fa5c69" d="M 125.707031 297.199219 L 132.558594 293.058594 L 140.382812 297.199219 Z M 125.707031 297.199219 " fill-opacity="1" fill-rule="nonzero"/><path fill="#346ee3" d="M 115.183594 262.722656 C 114.933594 262.722656 114.734375 262.523438 114.734375 262.273438 C 114.734375 256.398438 111.074219 251.617188 106.578125 251.617188 C 102.078125 251.617188 98.417969 256.398438 98.417969 262.273438 C 98.417969 262.523438 98.21875 262.722656 97.96875 262.722656 C 97.722656 262.722656 97.523438 262.523438 97.523438 262.273438 C 97.523438 255.90625 101.585938 250.722656 106.578125 250.722656 C 111.566406 250.722656 115.628906 255.90625 115.628906 262.273438 C 115.628906 262.523438 115.429688 262.722656 115.183594 262.722656 " fill-opacity="1" fill-rule="nonzero"/><path fill="#ffcc4d" d="M 106.777344 297.195312 C 107.699219 297.195312 108.0625 296.011719 107.304688 295.484375 C 106.121094 294.660156 103.351562 293.34375 99.34375 292.6875 C 98.546875 292.554688 97.648438 291.820312 97.101562 291.035156 C 96.914062 290.765625 96.589844 290.617188 96.257812 290.648438 L 93.523438 290.902344 C 93.074219 290.945312 92.722656 291.296875 92.679688 291.742188 C 92.589844 292.722656 92.523438 294.519531 92.925781 296.476562 C 93.015625 296.902344 93.402344 297.199219 93.835938 297.199219 L 94.773438 297.199219 L 106.777344 297.195312 " fill-opacity="1" fill-rule="nonzero"/><path fill="#ffcc4d" d="M 65.613281 291.234375 C 66.011719 292.484375 66.625 295.121094 66.207031 296.605469 C 66.109375 296.964844 65.761719 297.195312 65.390625 297.195312 L 60.394531 297.199219 C 59.953125 297.199219 59.582031 296.859375 59.539062 296.417969 C 59.289062 294.132812 60.53125 292.078125 61.078125 291.300781 C 61.222656 291.09375 61.449219 290.960938 61.703125 290.9375 L 64.71875 290.65625 C 65.117188 290.621094 65.488281 290.859375 65.613281 291.234375 " fill-opacity="1" fill-rule="nonzero"/><path fill="#f54553" d="M 86.414062 177.757812 C 88.242188 179.738281 94.480469 196.070312 95.117188 198 C 95.746094 200.519531 93.730469 202.101562 90.375 201.257812 C 88.351562 200.746094 81.769531 185.148438 81.632812 180.453125 C 81.480469 175.210938 84.304688 175.472656 86.414062 177.757812 " fill-opacity="1" fill-rule="nonzero"/><path fill="#1f3b80" d="M 74.003906 234.519531 L 83.90625 260.898438 C 83.90625 260.898438 83.511719 263.886719 83.929688 267.234375 C 84.652344 273.101562 92.269531 292.320312 92.269531 292.320312 C 92.269531 292.320312 94.992188 293.460938 98.082031 291.710938 C 98.082031 291.710938 92.230469 259.167969 92.046875 258.253906 C 91.863281 257.339844 83.175781 211.894531 83.175781 211.894531 L 78.667969 210.410156 L 74.003906 234.519531 " fill-opacity="1" fill-rule="nonzero"/><path fill="#254799" d="M 66.394531 213.039062 C 63.441406 222.300781 62.472656 254.832031 62.226562 256.703125 C 61.988281 258.574219 60.664062 265.679688 60.652344 268.617188 C 60.632812 273.542969 60.644531 291.605469 60.644531 291.605469 C 60.644531 291.605469 62.925781 292.6875 66.101562 291.757812 C 66.101562 291.757812 69.914062 272.792969 70.597656 259.410156 C 70.675781 257.863281 80.109375 227.671875 80.273438 226.53125 C 80.433594 225.390625 80.652344 214.195312 80.492188 212.484375 C 80.328125 210.777344 66.394531 213.039062 66.394531 213.039062 " fill-opacity="1" fill-rule="nonzero"/><path fill="#f54553" d="M 70.839844 174 C 70.839844 174 64.644531 175.832031 63.832031 176.96875 C 63.015625 178.109375 67.75 198.472656 67.34375 202.621094 C 66.933594 206.769531 66.644531 211.257812 66.394531 213.039062 C 66.234375 214.175781 82.851562 216.773438 83.175781 211.894531 C 83.503906 207.015625 86.882812 190.667969 86.617188 183.347656 C 86.414062 177.757812 85.886719 177.242188 84.828125 176.507812 C 83.769531 175.777344 78.382812 174.035156 78.382812 174.035156 L 70.839844 174 " fill-opacity="1" fill-rule="nonzero"/><path fill="#1f3b80" d="M 78.839844 152.273438 C 78.84375 152.265625 78.847656 152.257812 78.855469 152.25 C 79.828125 151.070312 79.851562 149.441406 79.097656 148.144531 C 78.554688 147.214844 77.945312 146.386719 77.355469 145.683594 C 77.0625 146.679688 76.503906 147.609375 75.726562 148.34375 C 76.121094 147.152344 76.125 145.863281 75.773438 144.667969 C 75.574219 143.992188 75.128906 143.402344 74.542969 142.96875 C 74.527344 142.953125 74.519531 142.945312 74.519531 142.945312 C 74.519531 142.945312 67.011719 152.859375 65.519531 156.980469 C 64.296875 160.355469 68.398438 165.414062 72.121094 168.308594 C 72.121094 168.308594 74.449219 170.554688 79.578125 160.5625 C 81.269531 157.269531 81.207031 153.953125 80.492188 151.40625 C 80.042969 151.84375 79.476562 152.183594 78.839844 152.273438 " fill-opacity="1" fill-rule="nonzero"/><path fill="#e3885b" d="M 72.371094 164.085938 C 72.246094 171.738281 69.753906 174.339844 69.753906 174.339844 C 69.753906 174.339844 72.199219 176.453125 76.0625 177.6875 C 77.402344 178.109375 78.808594 177.414062 78.746094 176.011719 C 78.71875 175.386719 78.617188 174.710938 78.382812 174.035156 C 78.382812 174.035156 77.167969 172.90625 77.398438 169.652344 C 77.480469 168.5 78.078125 163.628906 78.078125 163.628906 C 78.078125 163.628906 72.390625 162.839844 72.371094 164.085938 " fill-opacity="1" fill-rule="nonzero"/><path fill="#ed996f" d="M 68.746094 178.097656 C 71.117188 180.789062 70.136719 194.921875 70.535156 198.179688 C 70.546875 198.1875 71.023438 204.71875 67.195312 204.890625 C 64.828125 205 62.65625 184.945312 62.59375 180.917969 C 62.507812 175.554688 65.933594 174.90625 68.746094 178.097656 " fill-opacity="1" fill-rule="nonzero"/><path fill="#ed996f" d="M 73.042969 163.0625 C 74.5 161.046875 72.738281 156.90625 74.0625 155.671875 C 76.363281 153.53125 79.496094 153.816406 80.855469 159.015625 C 82.03125 163.507812 81.902344 169.808594 79.820312 170.910156 C 78.019531 171.867188 74.351562 168.65625 72.488281 165.492188 C 71.820312 165.046875 70.230469 164.257812 69.894531 163.140625 C 69.207031 160.847656 71.144531 160.921875 73.042969 163.0625 " fill-opacity="1" fill-rule="nonzero"/><path fill="#f54553" d="M 68.746094 178.097656 C 70.054688 179.582031 70.84375 184.753906 70.890625 189.453125 C 70.902344 190.847656 63.1875 190.945312 63.1875 190.945312 C 62.589844 186.835938 62.617188 182.414062 62.59375 180.917969 C 62.507812 175.554688 65.933594 174.90625 68.746094 178.097656 " fill-opacity="1" fill-rule="nonzero"/><path fill="#f7bf41" d="M 117.339844 209 L 74.617188 216.855469 L 67.152344 176.269531 L 109.875 168.410156 L 117.339844 209 " fill-opacity="1" fill-rule="nonzero"/><path fill="#ffcc4d" d="M 117.339844 209 L 91.800781 213.695312 L 84.335938 173.109375 L 109.875 168.410156 L 117.339844 209 " fill-opacity="1" fill-rule="nonzero"/><path fill="#ffffff" d="M 101.816406 179.660156 L 95.871094 180.753906 L 94.132812 171.304688 L 100.078125 170.214844 L 101.816406 179.660156 " fill-opacity="1" fill-rule="nonzero"/><path fill="#ffffff" d="M 101.058594 208.964844 L 93.535156 210.347656 L 91.800781 200.898438 L 99.320312 199.519531 L 101.058594 208.964844 " fill-opacity="1" fill-rule="nonzero"/><path fill="#bcbec0" d="M 95.066406 203.4375 L 93.171875 203.785156 L 92.734375 201.402344 L 94.628906 201.054688 L 95.066406 203.4375 " fill-opacity="1" fill-rule="nonzero"/><path fill="#bcbec0" d="M 96.128906 209.195312 L 94.230469 209.542969 L 93.296875 204.460938 L 95.191406 204.113281 L 96.128906 209.195312 " fill-opacity="1" fill-rule="nonzero"/><path fill="#bcbec0" d="M 98.730469 200.894531 L 95.476562 201.492188 L 95.375 200.917969 L 98.628906 200.320312 L 98.730469 200.894531 " fill-opacity="1" fill-rule="nonzero"/><path fill="#bcbec0" d="M 98.898438 201.796875 L 95.644531 202.398438 L 95.539062 201.820312 L 98.792969 201.222656 L 98.898438 201.796875 " fill-opacity="1" fill-rule="nonzero"/><path fill="#bcbec0" d="M 99.0625 202.699219 L 95.808594 203.296875 L 95.703125 202.726562 L 98.957031 202.128906 L 99.0625 202.699219 " fill-opacity="1" fill-rule="nonzero"/><path fill="#bcbec0" d="M 98.144531 204.101562 L 96.03125 204.488281 L 95.933594 203.976562 L 98.050781 203.585938 L 98.144531 204.101562 " fill-opacity="1" fill-rule="nonzero"/><path fill="#bcbec0" d="M 98.3125 205.011719 L 96.195312 205.402344 L 96.101562 204.886719 L 98.21875 204.496094 L 98.3125 205.011719 " fill-opacity="1" fill-rule="nonzero"/><path fill="#bcbec0" d="M 98.480469 205.921875 L 96.363281 206.3125 L 96.269531 205.796875 L 98.386719 205.410156 L 98.480469 205.921875 " fill-opacity="1" fill-rule="nonzero"/><path fill="#bcbec0" d="M 98.648438 206.832031 L 96.53125 207.222656 L 96.4375 206.707031 L 98.554688 206.316406 L 98.648438 206.832031 " fill-opacity="1" fill-rule="nonzero"/><path fill="#bcbec0" d="M 98.816406 207.742188 L 96.699219 208.132812 L 96.601562 207.617188 L 98.722656 207.230469 L 98.816406 207.742188 " fill-opacity="1" fill-rule="nonzero"/><path fill="#bcbec0" d="M 98.980469 208.65625 L 96.867188 209.042969 L 96.769531 208.527344 L 98.886719 208.136719 L 98.980469 208.65625 " fill-opacity="1" fill-rule="nonzero"/><path fill="#bcbec0" d="M 100.125 208.460938 L 99.527344 208.570312 L 98.589844 203.488281 L 99.1875 203.378906 L 100.125 208.460938 " fill-opacity="1" fill-rule="nonzero"/><path fill="#ed996f" d="M 89.917969 192.96875 C 89.226562 192.578125 88.152344 192.8125 87.085938 193.15625 C 86.976562 193.191406 87.578125 192.640625 87.851562 192.21875 C 88.085938 191.851562 88.007812 191.617188 87.90625 191.65625 C 86.453125 192.242188 85.773438 192.875 84.871094 194.328125 C 81.757812 195.964844 86.800781 196.421875 86.851562 196.34375 C 87.589844 196.445312 89.382812 196.273438 90.035156 195.542969 C 91.113281 194.332031 91.292969 193.746094 89.917969 192.96875 " fill-opacity="1" fill-rule="nonzero"/><path fill="#ed996f" d="M 114.203125 184.574219 C 113.460938 181.695312 112.710938 182.613281 112.070312 183.542969 C 111.3125 184.644531 111.5625 186.421875 112.71875 186.1875 C 113.339844 186.058594 114.769531 186.769531 114.203125 184.574219 " fill-opacity="1" fill-rule="nonzero"/><path fill="#ed996f" d="M 70.558594 198.773438 C 70.574219 198.78125 76.222656 196.617188 85.199219 194.226562 C 87.570312 193.589844 86.496094 195.710938 86.328125 195.851562 C 82.71875 198.847656 71.109375 205.519531 67.195312 204.890625 C 64.773438 204.503906 68.382812 197.125 70.558594 198.773438 " fill-opacity="1" fill-rule="nonzero"/><path fill="#ffffff" d="M 136.515625 153.980469 C 134.28125 153.980469 132.46875 152.171875 132.46875 149.933594 C 132.46875 147.703125 134.28125 145.890625 136.515625 145.890625 C 138.746094 145.890625 140.558594 147.703125 140.558594 149.933594 C 140.558594 152.171875 138.746094 153.980469 136.515625 153.980469 Z M 136.515625 144.539062 C 133.535156 144.539062 131.117188 146.953125 131.117188 149.933594 C 131.117188 151.078125 131.472656 152.136719 132.082031 153.011719 C 132.058594 153.03125 132.027344 153.039062 132.007812 153.0625 L 127.769531 157.296875 C 127.359375 157.707031 127.359375 158.375 127.769531 158.785156 C 127.972656 158.988281 128.242188 159.09375 128.507812 159.09375 C 128.777344 159.09375 129.046875 158.988281 129.253906 158.785156 L 133.492188 154.546875 C 133.519531 154.515625 133.53125 154.480469 133.554688 154.449219 C 134.40625 155.007812 135.421875 155.335938 136.515625 155.335938 C 139.496094 155.335938 141.910156 152.917969 141.910156 149.933594 C 141.910156 146.953125 139.496094 144.539062 136.515625 144.539062 " fill-opacity="1" fill-rule="nonzero"/><path fill="#f7bf41" d="M 303.902344 294.265625 C 302.914062 295.003906 296.355469 297.667969 294.1875 297.527344 C 292.023438 297.390625 299.699219 291.445312 299.855469 291.402344 C 300.011719 291.363281 302.695312 289.78125 302.695312 289.78125 C 304.425781 292.253906 304.898438 293.53125 303.902344 294.265625 " fill-opacity="1" fill-rule="nonzero"/><path fill="#ffcc4d" d="M 295.597656 297.277344 C 293.542969 296.578125 302.5 292.839844 302.664062 292.839844 C 302.828125 292.839844 305.824219 292.636719 305.824219 292.636719 C 306.855469 295.476562 306.980469 296.742188 305.824219 297.195312 C 305.492188 297.324219 304.65625 297.445312 303.59375 297.53125 L 296.929688 297.53125 C 296.390625 297.46875 295.925781 297.386719 295.597656 297.277344 " fill-opacity="1" fill-rule="nonzero"/><path fill="#965c40" d="M 290.503906 262.390625 C 289.921875 257.480469 299.164062 213.953125 299.164062 213.953125 L 307.109375 221.335938 L 297.921875 262.46875 C 301.0625 267.484375 301.109375 282.539062 302.695312 289.78125 C 302.695312 289.78125 295.699219 294.996094 297.890625 292.933594 C 298.746094 292.128906 300.226562 289.953125 299.9375 289.167969 C 299.9375 289.167969 290.597656 263.171875 290.503906 262.390625 " fill-opacity="1" fill-rule="nonzero"/><path fill="#f1f2f2" d="M 294.398438 210.269531 C 296.636719 208.6875 306.4375 197.828125 307.792969 195.078125 C 309.085938 192.449219 306.140625 186.945312 301.527344 192.847656 C 299.734375 195.144531 292.859375 203.539062 290.585938 206.011719 C 287.59375 205.238281 282.242188 203.785156 280.675781 204.101562 C 278.015625 204.632812 279.535156 206.273438 280.382812 206.851562 C 282.378906 208.214844 289.503906 211.296875 291.9375 211.628906 C 292.847656 211.839844 292.800781 211.394531 294.398438 210.269531 " fill-opacity="1" fill-rule="nonzero"/><path fill="#ef354c" d="M 290.503906 262.390625 C 289.921875 257.480469 299.164062 213.953125 299.164062 213.953125 L 307.109375 221.335938 L 297.921875 262.46875 C 301.0625 267.484375 301.015625 281.988281 302.597656 289.230469 C 302.597656 289.230469 299.742188 290.316406 299.453125 289.535156 C 299.453125 289.535156 290.597656 263.171875 290.503906 262.390625 " fill-opacity="1" fill-rule="nonzero"/><path fill="#965c40" d="M 300.367188 293.804688 C 301.402344 293.25 303.398438 291.53125 303.324219 290.703125 L 301.171875 262.542969 C 301.171875 262.542969 299.644531 233.703125 300.097656 224.707031 C 300.230469 222.066406 299.164062 213.953125 299.164062 213.953125 L 309.238281 216.183594 C 316.515625 225.476562 312.859375 233.308594 312.859375 233.308594 C 312.859375 233.308594 309.925781 250.984375 307.894531 264.414062 C 310.535156 269.15625 306.183594 285.230469 305.824219 292.636719 C 305.746094 294.304688 297.71875 295.222656 300.367188 293.804688 " fill-opacity="1" fill-rule="nonzero"/><path fill="#f54553" d="M 303.324219 290.703125 L 301.171875 262.542969 C 301.171875 262.542969 299.644531 233.703125 300.097656 224.707031 C 300.230469 222.066406 299.164062 213.953125 299.164062 213.953125 L 309.238281 216.183594 C 316.515625 225.476562 312.859375 233.308594 312.859375 233.308594 C 312.859375 233.308594 310.78125 251.109375 308.746094 264.539062 C 310.820312 270.515625 307.066406 283.835938 306.46875 291.226562 C 306.410156 291.972656 303.398438 291.53125 303.324219 290.703125 " fill-opacity="1" fill-rule="nonzero"/><g clip-path="url(#ab8ab21bd6)"><path fill="#1f3b80" d="M 332.0625 192.515625 C 336.359375 207.5 338.527344 208.589844 336.457031 213.011719 C 334.246094 217.742188 323.050781 218.324219 318.285156 211.125 C 313.398438 203.738281 316.769531 192.714844 317.523438 185.34375 C 319.148438 169.417969 312.332031 169.046875 318.863281 166.664062 C 325.285156 164.316406 330.542969 169.496094 331.382812 174.789062 C 332.144531 179.582031 330.492188 187.035156 332.0625 192.515625 " fill-opacity="1" fill-rule="nonzero"/></g><path fill="#e6e7e8" d="M 306.859375 188.605469 C 305.304688 189.113281 297.894531 194.367188 296.9375 196.460938 C 295.570312 199.4375 299.164062 203.261719 299.164062 203.261719 C 299.164062 203.261719 299.207031 211.113281 299.164062 213.953125 C 299.097656 218.257812 309.238281 216.183594 309.238281 216.183594 C 308.667969 210.226562 313.453125 200.71875 315.667969 194.203125 C 315.808594 193.78125 312.238281 186.835938 306.859375 188.605469 " fill-opacity="1" fill-rule="nonzero"/><path fill="#f06570" d="M 316.121094 166.148438 C 314.367188 166.964844 313.769531 169.394531 314.78125 171.578125 C 315.792969 173.761719 318.039062 174.867188 319.792969 174.054688 C 321.546875 173.238281 322.148438 170.808594 321.136719 168.625 C 320.121094 166.445312 317.878906 165.332031 316.121094 166.148438 " fill-opacity="1" fill-rule="nonzero"/><path fill="#8c4f32" d="M 312.019531 188.332031 C 312.226562 186.390625 313.121094 182.226562 313.746094 181.042969 C 314.710938 179.222656 312.585938 176.496094 312.585938 176.496094 L 309.011719 179.070312 C 308.460938 182.917969 305.726562 189.167969 305.726562 189.167969 C 305.726562 189.167969 301.222656 192.847656 302.417969 192.847656 C 303.238281 192.847656 307.722656 190.933594 310.058594 190.308594 C 310.953125 190.070312 312.070312 190.234375 312.011719 189.417969 C 311.984375 189.066406 311.980469 188.6875 312.019531 188.332031 " fill-opacity="1" fill-rule="nonzero"/><path fill="#254799" d="M 304.886719 172.21875 L 310.109375 178.210938 C 310.109375 178.210938 312.195312 183.007812 313.273438 182.664062 C 318.992188 180.855469 320.832031 175.339844 318.789062 169.644531 C 317.527344 166.121094 309.289062 161.816406 304.886719 172.21875 " fill-opacity="1" fill-rule="nonzero"/><path fill="#965c40" d="M 310.445312 178.804688 C 309.355469 176.734375 311.601562 173.316406 310.527344 171.96875 C 308.660156 169.628906 305.667969 169.328125 303.652344 173.769531 C 301.914062 177.605469 301.148438 183.300781 302.953125 184.667969 C 304.515625 185.855469 308.425781 183.613281 310.625 181.09375 C 311.316406 180.8125 312.925781 180.390625 313.398438 179.441406 C 314.371094 177.496094 312.535156 177.21875 310.445312 178.804688 " fill-opacity="1" fill-rule="nonzero"/><path fill="#965c40" d="M 303.324219 217.933594 C 303.007812 219.238281 305.734375 217.378906 307.382812 218.394531 C 307.679688 218.578125 309.246094 217.871094 309.324219 217.339844 C 309.386719 216.929688 307.921875 216.132812 307.28125 216.042969 C 305.386719 215.78125 303.613281 216.746094 303.324219 217.933594 " fill-opacity="1" fill-rule="nonzero"/><path fill="#f1f2f2" d="M 313.777344 191.863281 C 312.316406 191.703125 309.5625 193.378906 310.074219 197.078125 C 310.8125 202.390625 313.242188 210.167969 313.242188 210.167969 C 309.863281 214.414062 307.023438 216.242188 307.066406 216.683594 C 307.125 217.300781 307.792969 217.933594 308.175781 218.25 C 308.339844 218.382812 308.546875 218.425781 308.746094 218.367188 C 310.273438 217.925781 317.605469 214.023438 318.914062 211.980469 C 319.59375 210.914062 319.160156 205.472656 316.859375 197.5 C 315.886719 194.140625 315.738281 192.078125 313.777344 191.863281 " fill-opacity="1" fill-rule="nonzero"/><path fill="#965c40" d="M 277.144531 204.152344 C 277.4375 204.597656 279.316406 205.972656 280.585938 205.902344 C 282.191406 205.472656 282.0625 204.675781 281.429688 203.964844 C 280.945312 203.425781 280.609375 202.09375 278.589844 201.839844 C 278.359375 201.8125 278.667969 202.484375 278.667969 202.484375 C 278.667969 202.484375 276.484375 200.359375 276.300781 200.671875 C 275.972656 201.242188 276.828125 203.675781 277.144531 204.152344 " fill-opacity="1" fill-rule="nonzero"/><path fill="#1f3b80" d="M 282.339844 208.1875 C 282.199219 208.1875 282.054688 208.121094 281.96875 208 L 273.335938 196.460938 C 273.179688 196.253906 273.222656 195.960938 273.429688 195.804688 C 273.636719 195.648438 273.929688 195.695312 274.085938 195.898438 L 282.714844 207.441406 C 282.871094 207.644531 282.828125 207.9375 282.621094 208.09375 C 282.539062 208.15625 282.4375 208.1875 282.339844 208.1875 " fill-opacity="1" fill-rule="nonzero"/><path fill="#f54553" d="M 148.617188 182.628906 C 145.488281 182.628906 142.949219 180.089844 142.949219 176.960938 C 142.949219 173.832031 145.488281 171.296875 148.617188 171.296875 C 151.746094 171.296875 154.285156 173.832031 154.285156 176.960938 C 154.285156 180.089844 151.746094 182.628906 148.617188 182.628906 Z M 148.617188 166.171875 C 142.605469 166.171875 137.738281 171.226562 137.738281 177.460938 C 137.738281 187.738281 146.355469 197.011719 148.25 198.925781 C 148.457031 199.136719 148.78125 199.136719 148.992188 198.933594 C 150.902344 197.078125 159.496094 188.140625 159.496094 177.460938 C 159.496094 171.226562 154.625 166.171875 148.617188 166.171875 " fill-opacity="1" fill-rule="nonzero"/><path fill="#ffcc4d" d="M 221.398438 251.191406 C 221.398438 259.914062 214.328125 266.980469 205.609375 266.980469 C 196.890625 266.980469 189.820312 259.914062 189.820312 251.191406 C 189.820312 242.472656 196.890625 235.40625 205.609375 235.40625 C 214.328125 235.40625 221.398438 242.472656 221.398438 251.191406 " fill-opacity="1" fill-rule="nonzero"/><path fill="#f0a737" d="M 219.472656 251.191406 C 219.472656 258.847656 213.265625 265.054688 205.609375 265.054688 C 197.957031 265.054688 191.746094 258.847656 191.746094 251.191406 C 191.746094 243.539062 197.957031 237.328125 205.609375 237.328125 C 213.265625 237.328125 219.472656 243.539062 219.472656 251.191406 " fill-opacity="1" fill-rule="nonzero"/><path fill="#f7bf41" d="M 218.53125 251.191406 C 218.53125 258.328125 212.746094 264.117188 205.609375 264.117188 C 198.476562 264.117188 192.6875 258.328125 192.6875 251.191406 C 192.6875 244.058594 198.476562 238.269531 205.609375 238.269531 C 212.746094 238.269531 218.53125 244.058594 218.53125 251.191406 " fill-opacity="1" fill-rule="nonzero"/><path fill="#f0a737" d="M 207.464844 249.714844 C 205.070312 247.882812 204.339844 246.953125 204.339844 245.820312 L 204.339844 245.445312 C 204.339844 244.285156 205.105469 243.730469 206.214844 243.730469 C 207.53125 243.730469 208.15625 244.398438 208.15625 245.820312 L 208.15625 246.035156 L 211.699219 245.996094 L 211.699219 245.589844 C 211.699219 243.035156 210.171875 241.410156 207.601562 241.003906 L 207.601562 239.175781 L 204.6875 239.175781 L 204.6875 241.003906 C 202.152344 241.410156 200.660156 242.976562 200.660156 245.503906 L 200.660156 245.9375 C 200.660156 248.144531 201.808594 249.800781 205.070312 252.324219 C 207.464844 254.152344 208.191406 255.082031 208.191406 256.214844 L 208.191406 256.652344 C 208.191406 257.8125 207.253906 258.363281 206.179688 258.363281 C 204.722656 258.363281 204.027344 257.699219 204.027344 256.273438 L 204.027344 255.324219 L 200.488281 255.34375 L 200.488281 256.507812 C 200.488281 259.03125 202.121094 260.628906 204.6875 261.09375 L 204.6875 263.210938 L 207.601562 263.210938 L 207.601562 261.09375 C 210.207031 260.71875 211.871094 259.148438 211.871094 256.59375 L 211.871094 256.097656 C 211.871094 253.890625 210.726562 252.238281 207.464844 249.714844 " fill-opacity="1" fill-rule="nonzero"/><path fill="#ffffff" d="M 206.894531 249.714844 C 204.5 247.882812 203.773438 246.953125 203.773438 245.820312 L 203.773438 245.445312 C 203.773438 244.285156 204.535156 243.730469 205.644531 243.730469 C 206.960938 243.730469 207.589844 244.398438 207.589844 245.820312 L 207.589844 246.035156 L 211.128906 245.996094 L 211.128906 245.589844 C 211.128906 243.035156 209.601562 241.410156 207.035156 241.003906 L 207.035156 239.175781 L 204.117188 239.175781 L 204.117188 241.003906 C 201.585938 241.410156 200.089844 242.976562 200.089844 245.503906 L 200.089844 245.9375 C 200.089844 248.144531 201.238281 249.800781 204.5 252.324219 C 206.894531 254.152344 207.621094 255.082031 207.621094 256.214844 L 207.621094 256.652344 C 207.621094 257.8125 206.683594 258.363281 205.609375 258.363281 C 204.152344 258.363281 203.460938 257.699219 203.460938 256.273438 L 203.460938 255.324219 L 199.917969 255.34375 L 199.917969 256.507812 C 199.917969 259.03125 201.550781 260.628906 204.117188 261.09375 L 204.117188 263.210938 L 207.035156 263.210938 L 207.035156 261.09375 C 209.636719 260.71875 211.300781 259.148438 211.300781 256.59375 L 211.300781 256.097656 C 211.300781 253.890625 210.15625 252.238281 206.894531 249.714844 " fill-opacity="1" fill-rule="nonzero"/><path fill="#346ee3" d="M 201.582031 269.039062 C 201.582031 278.507812 193.90625 286.183594 184.4375 286.183594 C 174.96875 286.183594 167.296875 278.507812 167.296875 269.039062 C 167.296875 259.570312 174.96875 251.894531 184.4375 251.894531 C 193.90625 251.894531 201.582031 259.570312 201.582031 269.039062 " fill-opacity="1" fill-rule="nonzero"/><path fill="#ffffff" d="M 199.417969 269.039062 C 199.417969 277.3125 192.710938 284.019531 184.4375 284.019531 C 176.167969 284.019531 169.460938 277.3125 169.460938 269.039062 C 169.460938 260.769531 176.167969 254.0625 184.4375 254.0625 C 192.710938 254.0625 199.417969 260.769531 199.417969 269.039062 " fill-opacity="1" fill-rule="nonzero"/><path fill="#346ee3" d="M 193.320312 263.378906 C 192.996094 262.871094 192.320312 262.722656 191.816406 263.046875 L 186.039062 266.726562 C 185.582031 266.410156 185.035156 266.222656 184.4375 266.222656 C 184.160156 266.222656 183.894531 266.277344 183.640625 266.351562 L 178.398438 258.441406 C 178.148438 258.0625 177.644531 257.960938 177.265625 258.210938 C 176.890625 258.457031 176.785156 258.96875 177.035156 259.34375 L 182.277344 267.257812 C 181.875 267.742188 181.621094 268.359375 181.621094 269.039062 C 181.621094 270.597656 182.882812 271.855469 184.4375 271.855469 C 185.992188 271.855469 187.257812 270.597656 187.257812 269.039062 C 187.257812 268.878906 187.234375 268.722656 187.207031 268.570312 L 192.988281 264.886719 C 193.496094 264.5625 193.644531 263.890625 193.320312 263.378906 " fill-opacity="1" fill-rule="nonzero"/><path fill="#346ee3" d="M 218.296875 106.355469 C 218.375 113.3125 212.800781 119.015625 205.84375 119.09375 C 198.886719 119.171875 193.179688 113.597656 193.105469 106.640625 C 193.023438 99.683594 198.601562 93.980469 205.558594 93.902344 C 212.515625 93.820312 218.21875 99.398438 218.296875 106.355469 " fill-opacity="1" fill-rule="nonzero"/><path fill="#ffffff" d="M 206.269531 97.554688 L 208.101562 103.199219 C 208.152344 103.347656 208.292969 103.449219 208.453125 103.449219 L 214.386719 103.449219 C 214.738281 103.449219 214.886719 103.902344 214.601562 104.109375 L 209.796875 107.601562 C 209.671875 107.691406 209.617188 107.855469 209.667969 108.007812 L 211.5 113.652344 C 211.609375 113.988281 211.222656 114.265625 210.9375 114.058594 L 206.136719 110.570312 C 206.011719 110.480469 205.835938 110.480469 205.707031 110.570312 L 200.910156 114.058594 C 200.621094 114.265625 200.238281 113.988281 200.347656 113.652344 L 202.179688 108.007812 C 202.226562 107.855469 202.175781 107.691406 202.046875 107.601562 L 197.25 104.109375 C 196.960938 103.902344 197.109375 103.449219 197.460938 103.449219 L 203.394531 103.449219 C 203.554688 103.449219 203.695312 103.347656 203.742188 103.199219 L 205.574219 97.554688 C 205.683594 97.21875 206.160156 97.21875 206.269531 97.554688 " fill-opacity="1" fill-rule="nonzero"/><path fill="#ffcc4d" d="M 262.539062 296.617188 L 228.070312 296.617188 C 227.054688 296.617188 226.230469 295.796875 226.230469 294.78125 L 226.230469 265.722656 C 226.230469 264.707031 227.054688 263.886719 228.070312 263.886719 L 262.539062 263.886719 C 263.554688 263.886719 264.375 264.707031 264.375 265.722656 L 264.375 294.78125 C 264.375 295.796875 263.554688 296.617188 262.539062 296.617188 " fill-opacity="1" fill-rule="nonzero"/><path fill="#f54553" d="M 250.570312 296.617188 L 240.035156 296.617188 L 240.035156 263.886719 L 250.570312 263.886719 L 250.570312 296.617188 " fill-opacity="1" fill-rule="nonzero"/><path fill="#ef354c" d="M 229.785156 253.464844 C 225.886719 259.519531 236.972656 263.886719 236.972656 263.886719 L 241.039062 263.886719 C 241.039062 263.886719 234.445312 260.367188 234.445312 256.757812 C 234.445312 253.148438 239.777344 257.195312 243.84375 263.886719 L 246.4375 263.886719 C 240.621094 246.933594 233.6875 247.410156 229.785156 253.464844 " fill-opacity="1" fill-rule="nonzero"/><path fill="#ef354c" d="M 260.820312 253.464844 C 264.726562 259.519531 253.636719 263.886719 253.636719 263.886719 L 249.566406 263.886719 C 249.566406 263.886719 256.160156 260.367188 256.160156 256.757812 C 256.160156 253.148438 250.832031 257.195312 246.761719 263.886719 L 244.167969 263.886719 C 249.988281 246.933594 256.917969 247.410156 260.820312 253.464844 " fill-opacity="1" fill-rule="nonzero"/><path fill="#ef354c" d="M 239.3125 263.886719 C 235.796875 267.300781 230.671875 269.878906 230.671875 269.878906 L 235.125 275.648438 L 245.167969 263.84375 L 239.3125 263.886719 " fill-opacity="1" fill-rule="nonzero"/><path fill="#ef354c" d="M 251.179688 263.695312 C 254.859375 266.9375 259.929688 269.078125 259.929688 269.078125 L 255.765625 275.054688 L 245.167969 263.84375 L 251.179688 263.695312 " fill-opacity="1" fill-rule="nonzero"/><g clip-path="url(#1de25fc9b3)"><path fill="#346ee3" d="M 330.609375 300.355469 L 39.75 300.355469 C 38.640625 300.355469 37.738281 299.453125 37.738281 298.34375 C 37.738281 297.234375 38.640625 296.332031 39.75 296.332031 L 330.609375 296.332031 C 331.71875 296.332031 332.617188 297.234375 332.617188 298.34375 C 332.617188 299.453125 331.71875 300.355469 330.609375 300.355469 " fill-opacity="1" fill-rule="nonzero"/></g></svg>